<svg id="visual" viewBox="0 0 900 600" width="900" height="600" xmlns="http://www.w3.org/2000/svg" xmlns:xlink="http://www.w3.org/1999/xlink" version="1.1"><rect x="0" y="0" width="900" height="600" fill="#ffffff"></rect><defs><linearGradient id="grad1_0" x1="33.3%" y1="0%" x2="100%" y2="100%"><stop offset="20%" stop-color="#009328" stop-opacity="1"></stop><stop offset="80%" stop-color="#009328" stop-opacity="1"></stop></linearGradient></defs><defs><linearGradient id="grad1_1" x1="33.3%" y1="0%" x2="100%" y2="100%"><stop offset="20%" stop-color="#009328" stop-opacity="1"></stop><stop offset="80%" stop-color="#43a348" stop-opacity="1"></stop></linearGradient></defs><defs><linearGradient id="grad1_2" x1="33.3%" y1="0%" x2="100%" y2="100%"><stop offset="20%" stop-color="#67b265" stop-opacity="1"></stop><stop offset="80%" stop-color="#43a348" stop-opacity="1"></stop></linearGradient></defs><defs><linearGradient id="grad1_3" x1="33.3%" y1="0%" x2="100%" y2="100%"><stop offset="20%" stop-color="#67b265" stop-opacity="1"></stop><stop offset="80%" stop-color="#87c283" stop-opacity="1"></stop></linearGradient></defs><defs><linearGradient id="grad1_4" x1="33.3%" y1="0%" x2="100%" y2="100%"><stop offset="20%" stop-color="#a5d1a1" stop-opacity="1"></stop><stop offset="80%" stop-color="#87c283" stop-opacity="1"></stop></linearGradient></defs><defs><linearGradient id="grad1_5" x1="33.3%" y1="0%" x2="100%" y2="100%"><stop offset="20%" stop-color="#a5d1a1" stop-opacity="1"></stop><stop offset="80%" stop-color="#c3e1c0" stop-opacity="1"></stop></linearGradient></defs><defs><linearGradient id="grad1_6" x1="33.3%" y1="0%" x2="100%" y2="100%"><stop offset="20%" stop-color="#e1f0df" stop-opacity="1"></stop><stop offset="80%" stop-color="#c3e1c0" stop-opacity="1"></stop></linearGradient></defs><defs><linearGradient id="grad1_7" x1="33.3%" y1="0%" x2="100%" y2="100%"><stop offset="20%" stop-color="#e1f0df" stop-opacity="1"></stop><stop offset="80%" stop-color="#ffffff" stop-opacity="1"></stop></linearGradient></defs><defs><linearGradient id="grad2_0" x1="0%" y1="0%" x2="66.7%" y2="100%"><stop offset="20%" stop-color="#009328" stop-opacity="1"></stop><stop offset="80%" stop-color="#009328" stop-opacity="1"></stop></linearGradient></defs><defs><linearGradient id="grad2_1" x1="0%" y1="0%" x2="66.7%" y2="100%"><stop offset="20%" stop-color="#43a348" stop-opacity="1"></stop><stop offset="80%" stop-color="#009328" stop-opacity="1"></stop></linearGradient></defs><defs><linearGradient id="grad2_2" x1="0%" y1="0%" x2="66.7%" y2="100%"><stop offset="20%" stop-color="#43a348" stop-opacity="1"></stop><stop offset="80%" stop-color="#67b265" stop-opacity="1"></stop></linearGradient></defs><defs><linearGradient id="grad2_3" x1="0%" y1="0%" x2="66.7%" y2="100%"><stop offset="20%" stop-color="#87c283" stop-opacity="1"></stop><stop offset="80%" stop-color="#67b265" stop-opacity="1"></stop></linearGradient></defs><defs><linearGradient id="grad2_4" x1="0%" y1="0%" x2="66.7%" y2="100%"><stop offset="20%" stop-color="#87c283" stop-opacity="1"></stop><stop offset="80%" stop-color="#a5d1a1" stop-opacity="1"></stop></linearGradient></defs><defs><linearGradient id="grad2_5" x1="0%" y1="0%" x2="66.7%" y2="100%"><stop offset="20%" stop-color="#c3e1c0" stop-opacity="1"></stop><stop offset="80%" stop-color="#a5d1a1" stop-opacity="1"></stop></linearGradient></defs><defs><linearGradient id="grad2_6" x1="0%" y1="0%" x2="66.7%" y2="100%"><stop offset="20%" stop-color="#c3e1c0" stop-opacity="1"></stop><stop offset="80%" stop-color="#e1f0df" stop-opacity="1"></stop></linearGradient></defs><defs><linearGradient id="grad2_7" x1="0%" y1="0%" x2="66.7%" y2="100%"><stop offset="20%" stop-color="#ffffff" stop-opacity="1"></stop><stop offset="80%" stop-color="#e1f0df" stop-opacity="1"></stop></linearGradient></defs><g transform="translate(900, 0)"><path d="M0 486.7C-98 481.5 -196 476.2 -243.4 421.5C-290.7 366.9 -287.4 263 -319.6 184.5C-351.7 106 -419.2 53 -486.7 0L0 0Z" fill="#f0f7ef"></path><path d="M0 425.9C-85.8 421.3 -171.5 416.6 -213 368.8C-254.4 321.1 -251.5 230.1 -279.6 161.4C-307.7 92.8 -366.8 46.4 -425.9 0L0 0Z" fill="#d2e8cf"></path><path d="M0 365.1C-73.5 361.1 -147 357.1 -182.5 316.2C-218 275.2 -215.6 197.2 -239.7 138.4C-263.8 79.5 -314.4 39.8 -365.1 0L0 0Z" fill="#b4d9b0"></path><path d="M0 304.2C-61.3 300.9 -122.5 297.6 -152.1 263.5C-181.7 229.3 -179.7 164.4 -199.7 115.3C-219.8 66.3 -262 33.1 -304.2 0L0 0Z" fill="#96ca92"></path><path d="M0 243.4C-49 240.7 -98 238.1 -121.7 210.8C-145.4 183.5 -143.7 131.5 -159.8 92.3C-175.8 53 -209.6 26.5 -243.4 0L0 0Z" fill="#77ba74"></path><path d="M0 182.5C-36.8 180.5 -73.5 178.6 -91.3 158.1C-109 137.6 -107.8 98.6 -119.8 69.2C-131.9 39.8 -157.2 19.9 -182.5 0L0 0Z" fill="#56ab57"></path><path d="M0 121.7C-24.5 120.4 -49 119 -60.8 105.4C-72.7 91.7 -71.9 65.7 -79.9 46.1C-87.9 26.5 -104.8 13.3 -121.7 0L0 0Z" fill="#2c9b38"></path><path d="M0 60.8C-12.3 60.2 -24.5 59.5 -30.4 52.7C-36.3 45.9 -35.9 32.9 -39.9 23.1C-44 13.3 -52.4 6.6 -60.8 0L0 0Z" fill="#009328"></path></g><g transform="translate(0, 600)"><path d="M0 -486.7C94.7 -479.5 189.3 -472.3 243.4 -421.5C297.4 -370.8 310.9 -276.5 344.7 -199C378.5 -121.5 432.6 -60.7 486.7 0L0 0Z" fill="#f0f7ef"></path><path d="M0 -425.9C82.8 -419.6 165.7 -413.3 213 -368.8C260.3 -324.4 272 -241.9 301.6 -174.1C331.2 -106.3 378.5 -53.2 425.9 0L0 0Z" fill="#d2e8cf"></path><path d="M0 -365.1C71 -359.6 142 -354.2 182.5 -316.2C223.1 -278.1 233.2 -207.4 258.5 -149.3C283.9 -91.1 324.5 -45.6 365.1 0L0 0Z" fill="#b4d9b0"></path><path d="M0 -304.2C59.2 -299.7 118.3 -295.2 152.1 -263.5C185.9 -231.7 194.3 -172.8 215.4 -124.4C236.5 -75.9 270.4 -38 304.2 0L0 0Z" fill="#96ca92"></path><path d="M0 -243.4C47.3 -239.8 94.7 -236.1 121.7 -210.8C148.7 -185.4 155.4 -138.3 172.3 -99.5C189.2 -60.7 216.3 -30.4 243.4 0L0 0Z" fill="#77ba74"></path><path d="M0 -182.5C35.5 -179.8 71 -177.1 91.3 -158.1C111.5 -139 116.6 -103.7 129.3 -74.6C141.9 -45.6 162.2 -22.8 182.5 0L0 0Z" fill="#56ab57"></path><path d="M0 -121.7C23.7 -119.9 47.3 -118.1 60.8 -105.4C74.4 -92.7 77.7 -69.1 86.2 -49.8C94.6 -30.4 108.2 -15.2 121.7 0L0 0Z" fill="#2c9b38"></path><path d="M0 -60.8C11.8 -59.9 23.7 -59 30.4 -52.7C37.2 -46.3 38.9 -34.6 43.1 -24.9C47.3 -15.2 54.1 -7.6 60.8 0L0 0Z" fill="#009328"></path></g></svg>