<?xml version="1.0" encoding="UTF-8"?><svg id="b" xmlns="http://www.w3.org/2000/svg" width="240" height="192" viewBox="0 0 240 192"><defs><style>.d{fill:#fff;}.e{fill:#008556;}.f{fill:#f93549;}.g{fill:#414142;}</style></defs><g id="c"><path class="d" d="m190.99,42.33c-18.94-14.5-44.15-22.48-70.99-22.48s-52.05,7.98-70.99,22.48c-18.78,14.37-29.12,33.43-29.12,53.67s10.34,39.3,29.12,53.67c18.94,14.5,44.15,22.48,70.99,22.48s52.05-7.98,70.99-22.48c18.78-14.37,29.12-33.43,29.12-53.67s-10.34-39.3-29.12-53.67Z"/><path class="f" d="m193.21,39.44c-19.57-14.98-45.58-23.23-73.21-23.23s-53.64,8.25-73.21,23.23c-19.7,15.08-30.55,35.17-30.55,56.56s10.85,41.48,30.55,56.56c19.58,14.98,45.58,23.23,73.21,23.23s53.64-8.25,73.21-23.23c19.7-15.08,30.55-35.17,30.55-56.56s-10.85-41.48-30.55-56.56Zm-2.22,110.23c-18.94,14.5-44.15,22.48-70.99,22.48s-52.05-7.98-70.99-22.48c-18.78-14.37-29.12-33.43-29.12-53.67s10.34-39.3,29.12-53.67c18.94-14.5,44.15-22.48,70.99-22.48s52.05,7.98,70.99,22.48c18.78,14.37,29.12,33.43,29.12,53.67s-10.34,39.3-29.12,53.67Z"/><path class="d" d="m195.44,36.54c-20.21-15.47-47-23.99-75.44-23.99s-55.23,8.52-75.44,23.99c-20.62,15.78-31.98,36.9-31.98,59.46s11.36,43.67,31.98,59.46c20.21,15.47,47,23.98,75.44,23.98s55.23-8.52,75.44-23.98c20.63-15.79,31.98-36.9,31.98-59.46s-11.36-43.67-31.98-59.46Zm-2.22,116.02c-19.57,14.98-45.58,23.23-73.21,23.23s-53.64-8.25-73.21-23.23c-19.7-15.08-30.55-35.17-30.55-56.56s10.85-41.48,30.55-56.56c19.57-14.98,45.57-23.23,73.21-23.23s53.64,8.25,73.21,23.23c19.7,15.08,30.55,35.17,30.55,56.56s-10.85,41.49-30.55,56.56Z"/><path class="e" d="m201.98,28.03C179.9,11.13,150.79,1.82,120,1.82S60.1,11.13,38.02,28.03C14.68,45.89,1.83,70.03,1.83,96s12.85,50.11,36.19,67.98c22.08,16.9,51.19,26.2,81.98,26.2s59.9-9.3,81.98-26.2c23.34-17.86,36.19-42,36.19-67.98s-12.85-50.11-36.19-67.98Zm-81.98,151.42c-28.44,0-55.23-8.52-75.44-23.98-20.62-15.79-31.98-36.9-31.98-59.46s11.36-43.67,31.98-59.46c20.21-15.47,47-23.99,75.44-23.99s55.23,8.52,75.44,23.99c20.62,15.78,31.98,36.9,31.98,59.46s-11.36,43.67-31.98,59.46c-20.21,15.47-47,23.98-75.44,23.98Z"/><path class="d" d="m203.09,26.58C180.7,9.44,151.19,0,120,0S59.3,9.44,36.91,26.58C13.11,44.79,0,69.45,0,96s13.11,51.21,36.91,69.42c22.39,17.14,51.9,26.58,83.09,26.58s60.7-9.44,83.09-26.58c23.8-18.22,36.91-42.87,36.91-69.42s-13.11-51.21-36.91-69.42Zm-1.11,137.4c-22.07,16.9-51.19,26.2-81.98,26.2s-59.9-9.31-81.98-26.2C14.68,146.11,1.83,121.97,1.83,96S14.68,45.89,38.02,28.02C60.1,11.13,89.21,1.82,120,1.82s59.9,9.3,81.98,26.2c23.34,17.86,36.19,42,36.19,67.98s-12.85,50.11-36.19,67.98Z"/><path class="g" d="m85.81,152.35c0,2.78-1.39,4.18-4.18,4.19-2.78,0-4.17-1.4-4.17-4.19v-11.6c0-2.78,1.39-4.18,4.17-4.18s4.18,1.39,4.18,4.18v2.74h-3.22v-2.74c0-.72-.32-1.09-.95-1.09h-.02c-.63,0-.94.36-.94,1.09v11.6c0,.73.32,1.09.95,1.09s.96-.36.96-1.09v-2.74h3.22v2.74Z"/><path class="g" d="m94.46,140.76c0-.72-.32-1.08-.95-1.09h-.02c-.63,0-.94.36-.94,1.09v11.6c0,.73.32,1.09.95,1.09s.96-.36.96-1.09v-11.6Zm3.22,11.6c0,2.78-1.39,4.18-4.18,4.19-2.78,0-4.17-1.4-4.17-4.19v-11.6c0-2.78,1.39-4.17,4.17-4.17s4.18,1.39,4.18,4.17v11.6Z"/><path class="g" d="m107.7,149.7l2.98-12.82h3.19v19.35h-3.11v-8.9l-1.9,8.9h-2.27l-1.97-8.96v8.96h-3.14v-19.35h3.19l3.02,12.82Z"/><path class="g" d="m121.1,139.96v5.04h.39c.35,0,.57-.02.68-.06.41-.16.61-.51.61-1.03v-2.85c0-.74-.32-1.1-.95-1.1h-.73Zm-3.22-3.08h4.23c2.59,0,3.89,1.4,3.89,4.19v2.85c0,2.04-.93,3.37-2.78,3.97-.45.14-1.08.21-1.92.21h-.2v8.13h-3.22v-19.35Z"/><path class="g" d="m133.55,149.11l-.78-5.86-.77,5.86h1.55Zm3.28.17l.92,6.94h-3.25l-.53-4.02h-2.37l-.54,4.02h-3.24l.92-6.91,1.96-12.44h4.18l1.96,12.41Z"/><path class="g" d="m140.89,136.88h3.18l2.15,9.53v-9.53h3.02v19.35h-3.19l-2.05-9.27v9.27h-3.12v-19.35Z"/><path class="g" d="m155.78,136.88l1.67,7.47,1.68-7.47h3.41l-3.4,11-.07.2v8.15h-3.22v-8.14l-.08-.21-3.4-11h3.41Z"/><path class="e" d="m196.46,122.89l-2.73-10.76c-5.48,3.36-11.92,5.29-18.82,5.29s-13.44-1.97-18.95-5.37l-2.74,10.78c6.48,3.39,13.86,5.32,21.69,5.32s15.1-1.9,21.56-5.25Z"/><path class="g" d="m54.25,74.08v16.77h1.29c1.16,0,1.91-.06,2.25-.19,1.35-.54,2.03-1.68,2.03-3.44v-9.48c0-2.44-1.05-3.66-3.15-3.66h-2.41Zm-10.72-10.25h14.07c8.63.02,12.94,4.66,12.94,13.91v9.48c0,6.79-3.08,11.19-9.24,13.2-1.48.47-3.6.71-6.37.71h-.68v27.02h-10.72V63.83Z"/><path class="g" d="m77.46,63.83h10.72v64.31h-10.72V63.83Z"/><path class="g" d="m119.33,70l-12.17,47.9h12.71v10.25h-24.78v-6.17l12.17-47.9h-11.75v-10.25h23.82v6.17Z"/><path class="g" d="m149.8,117.9h-12.71l12.17-47.9v-6.17h-23.82v10.25h11.75l-12.17,47.9v6.17h22.17l2.6-10.25Z"/><path class="g" d="m181.47,63.83h-13.25l-10.84,42.7c2.91,2.17,6.24,3.8,9.84,4.76l7.62-30.02,7.62,30.02c3.6-.96,6.93-2.6,9.84-4.76l-10.84-42.7Z"/><path class="g" d="m112.59,35.74v3.08h-2.57v16.26h-3.22v-16.26h-2.57v-3.08h8.35Z"/><path class="g" d="m115.82,35.74h3.22v8.13h1.91v-8.13h3.22v19.35h-3.22v-8.13h-1.91v8.13h-3.22v-19.35Z"/><path class="g" d="m128.18,35.74h7.59v3.08h-4.37v5.04h3.76v3.09h-3.76v5.04h4.37v3.08h-7.59v-19.35Z"/><path class="f" d="m97.43,47.24h-19.97v-3.65h19.97v3.65Z"/><path class="f" d="m162.54,47.24h-19.85v-3.65h19.85v3.65Z"/></g></svg>