<svg fill="#6f9c76" viewBox="550 400 500 200" stroke="#black" height="1000" stroke-linecap="round" stroke-linejoin="round" stroke-width=".1" version="1.2" width="1000" xmlns="http://www.w3.org/2000/svg"><path d="m654.7 528.1.5.4 2 2.9 1.4.5 1.9 1.3 1.4 3.2.1 2.2-.5 2.6.3 2.1-.8.8.7 2 .2 1.9 1.2 2.2 1.2 1.1 1.3 2.4 1.6-.2 1.3 1.1v1.1l1.1 1.8-.8 2.6-1.7.8-1.2 3.1-.3 2-.6.5-1.9.3-1.7 1.3 1 2.2-.9.7-.3 1.5-.7.7-2.7-.9-.7-2.5-1.7-2.7-4.9-2.6-1.2-1.1.4-1.5-.1-1.4-1.4-2.4.3-2.6.8-2.2-.3-2.7.1-2.1-.7-2.9.5-2.1.9-1.3-.2-2.2-1.5-1.1-1.6-.2v-3.1l-.3-.6h1.7l-1.7-2.8 3.2-5.3 1.1.3.8 2.1zm-16.5-35.9 2.8-.7 1.5.8-.5 2.5-1.6 2.7-.1 2.6.5.8 2.4 1.2 3.3 2.9-.3.8-3.1-.1-.5.8 3.2 3.7-.2 2.2-2.5-.3-.7.8-3.2.5 1.4 2.2-2.3.2-2 1.7-.5 1.7.1 1.5-1.7.2-.5.7.6 3 1.1 1.6-.1.8-1.1 1-1.7-.7-6.2-3.8-.6-.9-1.6.1-1.1-.6.3-1.6-3-2.5-1.5-1.6-.4-2.2-2.4-1.1-5-4.1-1.7-2-2.8-2.3-2.3-2.4-1.3-4-3.4-3.2-1.9-1.3-.1-1.4.3-5 1.2-.6 1.8.4 1.7 1.8 1.8 1 2.7-3.2 3.2.3 1.5-1.2 2.7 1.6 2.5.1 2.8.7 1.7-.6 1.6 1.3 2.2-1 1.8.3 1.8-.2 2.6.7 2.2.2 1.1.8 1.3 2.2zm121.4 17.4.2 3.7-.9 1.8-2-.6-2.2.5-1 2-1.2 1.2v2.6l.4 4.2-1.6.7-2.9 3.7 3 1.8 1.7 2.2 2.4 2.5.5 1.2-1.7-.2-.9.4h-1.8l-1.5.6-3.4-2.5-3.5.3-1.5 1.1-3.4.4-1 2.2-1.9.3-.3 1.4-1.6-.5-1.6 1.1.7 1 .9 2.7-.2.8-2.5 1.2-1.8-.3-3.2.4-3.4.9-1.7-1.1-3.7-1.2-.9.6-2.4-1.4-1.2-1.7-1.6.5-4.2-.1-.2.9-1.9.2-3 1.1-2.6-.2-2.4.2-1 1-3-.2v-4.2l.5-1.7-.9-1-1.7-3.3-3.4-1.8-3.3-3.2 1-.3 1.1-1.7-1.4-2.9v-3.3l1.1-.6 1.8-.1 1.1-1.6 1.6-1.7.3-1.4-1.6-1-1.3-1.6-2.9-1.5-2.4-3.9-.6-2.4.4-2.3 2.1-1 .2-1.9.9-.7 4.3 2.5-1.8 2 .9 1.8 3.7-.6 3.9.3 5.3 1 3.5.4 2.5-.5 9.4 1.7 4.2.2 2.3-.6 1.6-.9 1.2-1.6 3.3-2.1 3.2-1.2 4.4-.9 2.9-.4 4.5 2.3 3.2.4.9.6 1.7-.5 2.5 2.6 2.2.7 2.6.5z"/><path d="M712.9 637.7h2.3l1.7-1 2.2 3.7 1.7-.1 3.5-.9 3.7.2 1.4 1 2.6.2 2.3.5 3.3-.7.4.4.1 2.8 1.2.2.7-.7 1.7-.6h1.8l1.6-.8-.4 3.5-.9.4-4.4-.1-8.1 1-5.3.4-.7-.2-.7-2.2-3.3-1.1-6.2-1-1.5-.4-3.1.2-1.1-1-.4-1.8.2-1.9 1.4.3.4-1.4zm43.4 1.1-1.6-2.1 1.1-.5 1.2 2.4zm-54.7-11.4-1.4.2-.7-2.2.5-1 2.1 2.1zm62.7 4.1-1.7-.4.4-1.8-.7-1.6 2.3-2.7 3.2-1.3.9.9-.9 2.5-.9 1.3.4 1-1.6.2zm-19-10.3-1.5 1.2-.9-.6 1.9-1.2zm6.2-2.2v-.7l1.3-1.1 2.5-1 1.2.6-2.5 1.4-1.5.1zm-22.2-5.4-.9 1.3-1.3-.7.4-1.2 1.1-.6zm3.6 1.6-1.1.6-1.4-2.2 1.9-2 .9.7.1 1.8zm5.4-8.8.6-1.6 1.6-.1v1.1zm-21.7-.7-1-.4.4-1.2 1.1.5zm31.6-3.7 2.8.7-.7 1-1.6.9-1.7-.9-1.2-1.2zm-76.7.1.4 1.2-1.1 1-1.6-1.2-1.2-1.8.9-1.1.9 1.2zm53.1.7-1.4-.1-2.4-2.1.9-1.4.9 1.2 1.3.1zm-57.3-9.7.3 1.8.9.3 1.3 1.6-.2 1.2-2.1-.8-1 .2-1.1-2-1.3.2.6-1.8 1.4.1zm70.8 2.5-1.1.9-1.8-1.7 1.4-1.3-2.1-2.4-.1-1 2.1-.5 1.3.9.6 1.2.4 2.6zm-70.2-6.1-1.3.1-.4-.9.8-2.4 1.1.3.2 2.5zm34.6-5.4.9 1.7 5.5 2.5 2.8.3 1.7 2.6-.2.6 1.5 3.8 1.1.9 2.7.3.4 1.9-.9.8-1.9-.7-2.1-1.6-.4-1.3-2.2-2.9-3.6-.2-1.5-.7-.6-1.7-1.5-.9-2-1.9-1.5-1.1-3-1.1-.6-.7 1.9-1.3 2.1-.5zm37.9-5.8-.1.9 1.9 1.5.7 1-1.2 2.1-4-.8-.8-.8 1.6-1.3-.9-.5-1.2 1.5-2.2-.7-.9-.9.7-1.4 1.5.1 1.7-.8v-.6l2.3-.2zm-81.3-1.6-1.3.3-1.2-.8-1.2-1.9-2.2-2.2.7-1.1 1.6-.4 1.4 1.2-1.1 1.2.8.7.9 2.4zm67.8-8.6-.7 1.4-.1 1.3-3.8-.7-.3-2.3 2.2-.1.8.8 1-.9zm2.4-6.9-1.4.4-1.7-1.3 1.4-.5zm-11.9-3-1.6.6-1.8-1.1 1.1-2.3 1.3.1 1 1.3zm15.9-1.7-.5-.7-2.1-1.2-4.6-.6-2.3-.9-.9.2-2-1-1.2.4-2.5 1.7-1.5-.2-1.6-1-2.2.4-1.7 1.9-1.8 1-1.8-.4h-2.3l-.2 1.1 2 2.1-.5 1 .5 1 2.1.1 2.5 1.3-.7.7-3.2-1.2-1.2-.1-1.2 1.2 3.5 2.7.5 1.4-.6.9-1.5-.8-2.5-3.2-3.1-.6-.4.6 1.2 2.4 2.9 1.7-.6.6-3-1-1.1-1.6-.4-2-5.5-2.8-1.4-2.8-2.2 1.3.4 2-.6 3.8.4 1.3 3.5 3.7 1.3 2.7 2.6 2.1 2.6 3.2.7 1.8-1.3 1.1-1.3-.5.3-1.9-2.2-1.2-1.9 1.2 1.5 2.3.5 1.2-.4 1.3-1.6.8-2.6.1 2.4 1.4 3.3 1 1.6 1.1 1.5.1 1.7 2.1 2.6.6 1.7 2.1 2 .5 1.7.8 1 2.1.3 2.9.6 2.1.1 1.7-1.1.5-1.3-1.6-4.2-3.6-1-.4-1 .7-2.9.5-1.9 1.3 1.5 1.3.1 1.2.8 1.5 2 .4 2 2.4-3 1-1.1.7-.8-.5-.2-1.2-4.3-2.2-.6.6.7 2.4 1.3 1.6 2.2 4.3 1.3 3.7-.2 2.1 1 1.5.1 1.5-1.7-1.2-2.2-2.5-.8-1.5-2.2.1-1.3 3.3.2 1.9-1.6-1.1-.2-2.9-2.1-2.8-.9-.4-1.3-1.9-1.5.6-.1 2.9-.4 1-2.2-1.9-2.3-3.5-.2-1.8 1.4-1.7-.3-1.2-1.6-2.5-2.1-1.5-1.2-.5-.7-1.6-2-1.3v-1l2-1.7 1-2.6 1.9.5 1.4-.2 2-2.4 1.6.1 3.9 2.1 4.2 1.2 2.1 1 1.2 1.1 1.6.3-.5-1.4.8-.4h2.1l.2-1.6-2-.6-.8.2-2.4-1.4-2.3-.8-2.2-1.5-1.2 1.3h-1.2l-3.4-.9-2.1.7-4.2.7-1.1-1.3-2.6 1-1-.7-1.9-4.2-1.7-1.9-1.2-.5-.2-1.9 1.5-.2 2.4.9.9-.6-.6-1.6-2.5-.2-1.8.5-2.8-2.2-1.5-1.7-2.2-1.1-1.7-3.4-2.6-2.6 2.7.9.7-.7.3-1.5.9-.7-1-2.2 1.7-1.3 1.9-.3.6-.5.3-2 1.2-3.1 1.7-.8.8-2.6-1.1-1.8v-1.1l4.6-.3.9-.6 2.3.6 2.4-1.3 1.7-2.5.8-.3 3-.4 3.3.6 2.9-1 .2-2.1 2-.3 3 .2 1-1 2.4-.2 2.6.2 3-1.1 1.9-.2.2-.9 4.2.1 1.6-.5 1.2 1.7 2.4 1.4.9-.6 3.7 1.2 1.7 1.1 3.4-.9 3.2-.4 1.8.3 2.5-1.2.2-.8-.9-2.7-.7-1 1.6-1.1 1.6.5 1.2.3 2.3 1.5.9 3.1-3.4 2.5.5 4.4-2.5 3.2zM674 532.8l-2.1.4-1.5 1.9-1.6-1.2-1 .1-3.4 1.5-.2 2.6-.5.8-1.7-.3-.1-2.2-1.4-3.2-1.9-1.3-1.4-.5-2-2.9-.5-.4.2-1.3-.9-1.5 2-.4.2-.7 1.6-.4 1.5-.5v-1.4l1.7-1.3.4-1-.6-1.6 1.7-.9 1.1 1.3 2.8 1.3 2.3 2.1.2.7 2.2 1.2v1.3l4.7 1.2-.2 1.2-1.2 3.2-1 .9z"/><path d="m642.4 512.9.4 1.2 2.6 1.7 1.9 2 3 1.6 2.1.5 5.3 2.9.1 1-1.6.4-.2.7-2 .4.9 1.5-.2 1.3-3.4 1.2-.8-2.1-1.1-.3-3.2 5.3-.8.3-2.5-.2 1.6 1.9 1.7.8.3.6v3.1l-2.1-1.2-.9-1.8-3.1-2.9-3.5-2 .1-1-1.6.1-1.2-1.9 1.1-1 .1-.8-1.1-1.6-.6-3 .5-.7 1.7-.2-.1-1.5.5-1.7 2-1.7 2.3-.2-1.4-2.2zm41.4 18.9 3.3 3.2 3.4 1.8 1.7 3.3.9 1-.5 1.7v4.2l-2 .3-.2 2.1-2.9 1-3.3-.6-3 .4-.8.3-1.7 2.5-2.4 1.3-2.3-.6-.9.6-4.6.3-1.3-1.1-1.6.2-1.3-2.4-1.2-1.1-1.2-2.2-.2-1.9-.7-2 .8-.8-.3-2.1.5-2.6 1.7.3.5-.8.2-2.6 3.4-1.5 1-.1 1.6 1.2 1.5-1.9 2.1-.4 2.2-.3 2-.9 1.9.3 2.3-.8zm67.6-48.6 1.5 1.6 1.8.9 4 .9.6-1.2.9.3 1.6-.5 2.2-1.3 2.2-.2 2.2.7 1.9 1.8-.2 4.3-.7 2.1-6.2 1.3.4-.6-.7-2-1-1-.9 1.1.6 1.7-.7 1.4-.2 2.4.6.9-1.6 2-.5 1.3.8 4.8-.4 3.7h-2l-2.6-.5-2.2-.7-2.5-2.6-1.7.5-.9-.6-3.2-.4-4.5-2.3-2.9.4-4.4.9-3.2 1.2-3.3 2.1-1.2 1.6-1.6.9-2.3.6-4.2-.2-9.4-1.7-2.5.5-3.5-.4-5.3-1-3.9-.3-3.7.6-.9-1.8 1.8-2-4.3-2.5-.8-1.2-1.6-.9-.5-1.7 2.5-1.8-3-1.6-1.7.5-1.7 1.8-1.3.2-1-1.2-1.5-.7-3.5-.7-1.5-1.2-2.1-.6.2-.6 1.8-.8-2.3-1.1 1.5-2-.9-1.1-2.6-.8-3.8-1.9-2.2-1.8-.4-4.1-.8.2-1.8-2-2.9-1.7-1.7-2 3.2-.9 1.4.5 2.5-2 2.6.3 1.3-.9 1.5-4.7 2.1-1.5-.2-1.3 1.6-2.7v-1.2l1.4-1.5.7-2.5 1.4-1.4-.1-1.7 1.2-1 1.9-2.4 4.6-1.1 2.2-2.3 2.1-.9.9-1.2h.7l2.7 1.5 2.7-.1 6.9 1.4 3.6-.7 1.2.3 4.3 3.3 2.1-.5 1-1.2 3.4-1.3 8.4-1.2 1.1-1.9.2-1.4 3.7-.8h2.1l2.5 1.6 2.5 3 3 4.9 1.5 1.3 2.5 3.2 2.1 1.8 1.3 1.7 3 2.1 1.4 2.9 1.4 2.3.5 2.9-.9 4.8.1 2.6 1.4 5-.9.7z"/><path d="m651.6 473.1 1.7 2 2.9 1.7 1.8 2 .8-.2.4 4.1 2.2 1.8 3.8 1.9 2.6.8.9 1.1-1.5 2 2.3 1.1-1.8.8-.2.6 2.1.6 1.5 1.2 3.5.7 1.5.7 1 1.2 1.3-.2 1.7-1.8 1.7-.5 3 1.6-2.5 1.8.5 1.7 1.6.9.8 1.2-.9.7-.2 1.9-2.1 1-.4 2.3.6 2.4 2.4 3.9 2.9 1.5 1.3 1.6 1.6 1-.3 1.4-1.6 1.7-1.1 1.6-1.8.1-1.1.6v3.3l1.4 2.9-1.1 1.7-1 .3-1.4-.7-2.3.8-1.9-.3-2 .9-2.2.3-.6-1.3 1-.9 1.2-3.2.2-1.2-4.7-1.2v-1.3l-2.2-1.2-.2-.7-2.3-2.1-2.8-1.3-1.1-1.3-1.7.9.6 1.6-.4 1-1.7 1.3v1.4l-1.5.5-.1-1-5.3-2.9-2.1-.5-3-1.6-1.9-2-2.6-1.7-.4-1.2.7-.8 2.5.3.2-2.2-3.2-3.7.5-.8 3.1.1.3-.8-3.3-2.9-2.4-1.2-.5-.8.1-2.6 1.6-2.7.5-2.5-1.5-.8-2.8.7 1-1.6-.7-2.6 1.7-.4 2.3-.1-.9-1.5-3-1-1.2-1 .4-2-1.3-.4-.2-1.6-1.6-2.7.7-1.5 2.1-1.3 1.6.5 2.2-1 1.5-1.6 1-.3 2.9.4 1.1-.2 2.8.3zm-46.4-6-2.5-.6-.9.8v1.7h-2l-.7 1-4.4 1.7-.4 1.4.9.9.2 2.2-.4 1.1-2.1.6-2.1 1 1 1.1-.7.7.8 2.3-1.2.4-1.6-.2-2-.7-1.3.5-1.5-.7-2.6-2.1-1.2 2.2-.6.3-3.6.1-1.1-.5-1.4 1.3-3.3-.8-.5-.6 1.7-1.1 1.5-.1-.2-1.3-1.5-1.3-1.9-1.1.4-2-1.3-.2-.3-1 1.6-2.1-2.3-.7-.7-1.4 3.3-2.3.2-.9 5 .9 5 .7 3-1.2 1-1.3 1.9-.7 2.6-.2 2.8.2 2.3-1.1 1.6-.2 2.4.5.1-1.9 1.3-.9 2.4.1 1.4 3.3zm128.2 98.6-2.9.5-.1-1.5 2.2-.6zm194.5-21.5 4.3 1.3 1.1-1 3.6.1 3.4.8.9-1.9 1.4-.4 1.4.3.6 1.1 1.2.4 3.5 2.5 1.1 1.7 1.9.2 1.3 1.2 1.3 1.6 1.7 1.2 1.7 3.3-.2 2.3-1 1.4.8 1.9 1.9 3-.5.6 1.8.9 2.9.9 3.5-.4 1.6.7 2.3 1.7 3.2 2.8.8.9-3.3-1.9-1.4 1.6-.1 3.8-.6.4-2.8-.1-1.2.4 1.2 2.5 1.4 1.2v2.3l2.1 2.5.2 2.1.9 2.2.3 2.2.5.7 1.4.3-.6 3.8-.6 1.2-.4 2 1.7.6 3.2 2 .1 1.3.6 1.5.3 2 3.2 2.3v2.3l-2.1-.5-3.7 3.1-1.2-1.2-.3-2.4-1.5-1.5-1.3-.2-2.1 1.4-4.2-.3-2.9-1.1-2.9-.8-1.9.6-2.2-.7-1.5 1.9-2 1.9-1.2.3-1.6-2.6-1.3-.2-1.2 1.3-2.2.8-4.6 1-3.2.3-4.1-.6-3.2.2-3.1 1.4-5.2 2.8-4.1 1.4-4.2.9-7.6-.2-1.1-.3-3.5-2.3-3.4-.6-3.4 1.6-2.3.8-3.5 1.6-4.8-.1-1.9-1.7-3.7-.7-.6 1.6-.3 3.8 1.8 3.1-3.3 1.4v2.6l-1.8 1.1-.8 1.6-2.2-1.2-1-.1.7-1.3-2.5-4.9.7-1.5 3.5-3.9-.4-2.4-2-1.6-2.9 2.1-1.7.8-.3 1.2-1.1.8-1.8.4-2.9-1-3.2-1.4-1.9-1.1-1.4-.3-1.3.5-3.5 2.8-3.1 4.1-.8.8-3.2 1.7-2.2.6-1-.1-4.4.8-2.2.1-1.6.9-3.5-1-2.2-1.3-1.4-1.3-2.3-2.9-1.6-1.3-3.3-1.2-5.8-3-5.3-.7-4-.3-.7 1.1.1 4.2-.5 1.2-.1 2.2-1.1 1.1-2.1-1-1.9.9-3.7 1.3-1.2.1-4.6-1.6-2.9-2.1-.6-2-1.3-2.7-1.8.3-2.3-.4-3.2-1.6-2.4-.1-1.2 1.9-1 .7-1.3-.4.8-1.3-3.7.2-1.8 1-1.5-.1-1-1 2-.6 3.9-.4.9-.4.9-1.3 1.7-1.2-1.2-.5-6 .3-4.2-.2-1 .7-.4-1.6 3.6-1.4-.3-1.3-4.2-2.2-.3-1.6-2-3.1 1.9-.5.1-2.5-.4-1.5-3.9-1.3-.8.1-1.1-1.3-1.7-.9-1.2.7-3.3-1.4-.6-.6.5-1.4 1-1.1-.9-1.9-.1-1 1.8-.1 1 1.1.3 2.2 3.6.7 2.9-.6-2.5-1.1-1.1-1.2-1.2-2.3 1.8-1.1 1.2-1.7-2.7-1.2.2-2.4-2.5-2.7.3-.8 2.3-2.8-1.2-.7-4.3.7-1.6.6-3.1.2-.3-1.6.6-1.3-.5-3.4.2-1.8 1.7-.6 1.7-2.7 3-3.1h3.5l1.3-.9h2.1l.8 1.2 1.9.9 3.2-.1 1.4-.9-1.6-1.5 1.7-.5 1.5.4-.1 1.8 4.1-.5 4.4.4 1.4-.2h3.4l.5-.5-3.6-1.7 2-1.5 6.8-1.2 3.7-.8-5.7-.8-1.4-.6-2-1.4-1-1.1.3-2.6.6-.7 2.2-.1 7.7 1.2 5.3-.8 6.1 1.8 5.6-.4 1.1-.7 1.1-2.6 7.4-4.2 2.4-2.1 2.8-1.2 5-1.4 4-1.7 1.2-.2 10.4.8 7 .1 3-1.6 2 .5-.1 2.1 2.6 2.6 3.5 1.4 4.4-1.2 1.8.5 2.2 4 1.5 1.4 1.8.9 1.3.2 1.5-1.4 1.7-.1 2.9 1.3 1.2 1.4 4.8 1.1 4.3.6 2 1.2 6.2 1.2 2.2-.2 3.6-1.3 7-1.3 5.2 1.9 2.5.1 1.7.5 1.7-.3 5-2.3 1.4-1.2 1.7-.4 5.2-3.3zM756 537.1l-.1 1.8 1 2 2.3 2.7 2 1.4 8.1 3.3 1.4.3-.9 3.5-2.1.5-6.4-1.5-1.6-.1-2.9 1.4-2.3-.4-3.1.6-.6 2.1-2 2.4-3.3 1.9-2.5 1-3.5 3.7-1.5 2.2-1.5.7.5-2-.3-1.7 2.3-2 3.3-1.6.7-1.3-5.4.3h-3.3l-1-1.8.8-.4 2.5-3.2-.5-4.4 3.4-2.5-.9-3.1-2.3-1.5-1.2-.3.3-1.4 1.9-.3 1-2.2 3.4-.4 1.5-1.1 3.5-.3 3.4 2.5 1.5-.6h1.8l.9-.4z"/></svg>