<svg fill="#6f9c76" height="857" stroke="#000" stroke-linecap="round" stroke-linejoin="round" stroke-width=".2" version="1.2" width="2000" viewBox="1380 220 400 400" xmlns="http://www.w3.org/2000/svg">
  <path d="m1264.1 333.3.3.1.2-.1.4.7-.1.2.1.9v.7l-.2.4-.1-.4-.6-.8.1-.4-.2-.7v-.4zm-85-45.1.4 2.6-.6 1h.1l-.7 2-2.1-.8-.7 4.2 1.5.7-1.3.9-.1 1.7 2.5-.8.4 2.5-1.8 10.2-.7-1.6-3.9-9.4 1.4-2.1-.4-.4 1.1-3 .6-4.8.6-1.7h1.9l.4-1.1z"/>
  <path class="Cyprus" d="m1168.2 276.7.1.2.3.4-.4-.1h-.3l-.4.2-.3-.3v-.3l.3-.1.2.1z"/>
  <path d="m1179.1 288.2-1.4.1-.4 1.1h-1.8l1.3-5.3 2.2-4.5v-.2l2.5.3 1.2 2.5-2.7 2.5z"/>
  <path class="Oman" d="m1283.8 394.9-2.2-4.5-5.2-10.6 16.3-6.4 2.6-12.8-3-4.6v-2.6l1.3-2.6-.2-2.6 2.4-1.3-1.1-.9v-4.2h2.8l3 4.4 3.3 2.3 4.1.9 3.4 1.1 2.9 3.7 1.7 2.1 2 .9.2 1.4-1.7 3.8-.7 1.8-2.2 2.1-1.7 4.4-2.5-.4-1 1.6-.7 3.2 1.1 4.3-.5.8h-2.5l-3.3 2.4-.3 3.1-1.2 1.4-3.5-.1-2 1.6.2 2.6-2.6 1.8-3.1-.6-3.6 2.2z"/>
  <path d="m1240.5 315 5 .6 1.7 3.1 3.9-.2 2.7 5.6 2.9 1.4 1.2 2.3 4 2.7.7 2.6-.4 2.2.9 2.1 1.8 1.8.9 2.1 1 1.6 1.8 1.3 1.5-.5 1.3 2.5.3 1.4 2.7 6.6 16.9 3.2 1-1.4 3 4.6-2.6 12.8-16.3 6.4-15.9 2.5-5 2.9-3.5 6.7-2.6 1.1-1.5-2.1-2.1.3-5.5-.7-1.1-.6-6.4.1-1.5.6-2.4-1.6-1.3 3.1.8 2.7-2.4 2.1-.9-2.8-1.8-1.9-.5-2.6-3.1-2.3-3.3-5.4-1.9-5.2-4.1-4.4-2.5-1.1-4.1-6.1-.9-4.4v-3.8l-3.6-7.2-2.8-2.5-3-1.3-2.1-3.7.2-1.4-1.8-3.4-1.7-1.4-2.5-4.8-3.8-5.1-3.1-4.4h-2.7l.5-3.5.1-2.3.4-2.6 6.2 1.1 2.1-2 1.1-2.3 4.1-.9.7-2.2 1.6-1-6-6.5 10.4-3.2.9-1 6.8 1.8 8.6 4.5 16.8 12.9z"/>
  <path class="Turkey" d="m1201.7 235.3 5.5-.3 5.6 3.2 1.3 2.2.1 3.1 4.2 1.6 2.4 1.8-3.3 1.9 2.9 7.3-.7 2 3.8 5.1-2.4 1.1-2.1-1.6-6.3-.9-2.1 1-5.9 1-2.9-.1-5.7 2.4h-4.4l-3-1.2-5.6 1.8-1.9-1.2.2 3.5-1.2 1.4-1.3 1.4-2.3-2.9 1.7-2.4-3.2.6-4.6-1.5-3.2 3.7-8 .7-4.7-3.4-5.7-.2-1 2.6-3.6.8-5.4-3.4-5.8.1-3.8-6.4-4.2-3.5 2-5-3.6-3.1 5.1-6.1 8-.2 1.6-4.9 10 .9 5.6-4.1 5.8-1.8 8.5-.2 9.8 4.5 7.9 2.5 5.8-1 4.6.6z"/>
  <path d="m1283.8 394.9-4 1.7-.9 2.9v2.2l-5.4 2.7-8.8 3-4.7 4.5-2.5.4-1.7-.4-3.2 2.7-3.5 1.2-4.7.3-1.4.4-1.1 1.7-1.5.5-.8 1.6-2.8-.2-1.7.9-4-.3-1.6-3.8v-3.5l-1-1.9-1.3-4.7-1.8-2.6 1.1-.4-.7-2.9.6-1.2-.4-2.8 2.4-2.1-.8-2.7 1.3-3.1 2.4 1.6 1.5-.6 6.4-.1 1.1.6 5.5.7 2.1-.3 1.5 2.1 2.6-1.1 3.5-6.7 5-2.9 15.9-2.5 5.2 10.6zm12.4-58.2 1.3 5.1h-2.8v4.2l1.1.9-2.4 1.3.2 2.6-1.3 2.6v2.6l-1 1.4-16.9-3.2-2.7-6.6-.3-1.4.9-.4.4 1.8 4.2-1 4.6.2 3.4.2 3.3-4.4 3.7-4.1 3-4z"/>
  <path class="Turkey" d="m1121.9 239.9 1.2-.7 1.1-4-2.7-1.7 5-2 4.6.8.9 2.5 4.8 2-.7 1.6-6.2.3-2 2-3.9 3.4-2-2.9z"/>
  <path d="m1195 287.5-9.7 6.9-6.3-2.6h-.1l.6-1-.4-2.6.9-3.5 2.7-2.5-1.2-2.5-2.5-.3-1.1-4.9 1-2.7 1.3-1.4 1.2-1.4-.2-3.5 1.9 1.2 5.6-1.8 3 1.2h4.4l5.7-2.4 2.9.1 5.9-1-2.1 4-2.7 1.6 1.2 4.7-1 7.7zm75.1 56.2-1.5.5-1.8-1.3-.8-4.7 1.1-3.3 1.5-.7 1.8 2 .5 3.7zm-91.8-49.9.4 4-.6 1.9-2.5.8.1-1.7 1.3-.9-1.5-.7.7-4.2z"/>
  <path class="Oman" d="m1296.2 336.7-1.3-2.2 1.4-2.1.7.5-.2 2.7z"/>
  <path d="m1247.5 309.4 1.5 2.8-.3 1.5 2.4 4.8-3.9.2-1.7-3.1-5-.6 3.3-6.2zm-49.4-14.1-.9 1-10.4 3.2 6 6.5-1.6 1-.7 2.2-4.1.9-1.1 2.3-2.1 2-6.2-1.1-.3-.9 1.8-10.2-.4-2.5.6-1.9-.4-4 .7-2 6.3 2.6 9.7-6.9z"/>
  <path d="m1223.5 263.2 4.7 7.6 3.8 2 .9 3.7-2.3 2.2-.5 5 4.6 6.1 7.1 3.6 3.5 4.8-.2 4.7h1.7l.5 3.4 3.5 3.4-3.3-.3-3.7-.6-3.3 6.2-10.2-.5-16.8-12.9-8.6-4.5-6.8-1.8-3.1-7.8 11-6.7 1-7.7-1.2-4.7 2.7-1.6 2.1-4 2.1-1 6.3.9 2.1 1.6z"/>
  <path class="Cyprus" d="M1166.5 277.2v.1l-.2.2-.1.6-.1.2h-.3l-.2.2-.5.2-.2.1-.6.3-.4-.1-.5.1-.3.4-.2-.3-.3.1h-.2l-.3-.3-.4.3h-.5l-.5-.2-.5-.1-.4-.3-.3-.6-.3-.3-.2-.7-.2-.3.1-.3.5.3.4-.1.2-.3.1-.3.3-.1.2.1.2-.2h.2l.1.4.5.2.1.2h.6l.6-.5.4.1.3-.2.3.1.4.2.2-.3h.3l.3.4v.6l.3-.2.3.2.1-.1z"/>
  <path d="m1229 253.2 1.8-.2 5.3-4.7 1.9-.5 1.9 1.9-1.2 3.1 3.9 3.4 1.3-.4 2.5 4.8 5.3 1.3 4.3 3.2 7.7 1.1 8-1.7.2-1.5 4.4-1.2 3-3.7 3.6.2 2-1.2 3.9.6 6.6 3.3 4.3.7 7.3 5.6 4 .3 1.7 5.3-.6 8-.5 4.7 2.5 1-1.6 3.5 2.7 5.1 1.2 4.1 4.3 1.1 1.1 4.1-3.9 5.8 3.2 3.4 2.8 3.9 5.7 2.8 1 5.6 2.7 1.1.9 2.9-7.5 3.4-1.1 7.4-10.6-1.9-6.2-1.5-6.3-.8-3.3-7.9-2.8-1.1-4.1 1.1-5.1 3.1-7-2.1-6.1-5-5.5-1.8-4.4-6.1-5.2-8.5-2.8 1-3.7-2.1-1.7 2.5-3.5-3.4-.5-3.4h-1.7l.2-4.7-3.5-4.8-7.1-3.6-4.6-6.1.5-5 2.3-2.2-.9-3.7-3.8-2-4.7-7.6-3.8-5.1.7-2-2.9-7.3 3.3-1.9 1.2 2.5 3.2 2.9zm-56.9 48.2 3.9 9.4.7 1.6-1.3 2.6-.7 4.8-1.2 3.4-1.2 1.1-2-2.1-2.7-2.8-4.7-9.2-.5.6 2.8 6.7 3.9 6.5 4.9 10 2.3 3.5 2 3.6 5.4 7.1-1 1.1.4 4.2 6.8 5.8 1.1 1.3h-65.9l-1-23.7-1.3-22.8-2-5.2 1.1-3.9-1-2.8 1.7-3.1 7.2-.1 5.4 1.7 5.5 1.9 2.6 1 4-2 2.1-1.8 4.7-.6 3.9.8 1.8 3.2 1.1-2.1 4.4 1.5 4.3.4z"/>
</svg>
