<svg xmlns="http://www.w3.org/2000/svg" version="1.1" xmlns:xlink="http://www.w3.org/1999/xlink" xmlns:svgjs="http://svgjs.dev/svgjs" width="412" height="412"><svg version="1.1" xmlns="http://www.w3.org/2000/svg" width="412" height="412">
<path d="M0 0 C1.20654537 -0.00085442 2.41309074 -0.00170885 3.65619808 -0.00258917 C6.99246737 -0.00394851 10.32867763 -0.00083457 13.66493976 0.0041889 C17.26744068 0.00851598 20.86993984 0.00704537 24.47244263 0.00628662 C30.70981717 0.00576282 36.94718124 0.00889463 43.18455315 0.01452446 C52.20269418 0.02265889 61.22083016 0.02525667 70.23897446 0.02651245 C84.87107557 0.02869991 99.50317109 0.03535172 114.13526917 0.04481506 C128.34718294 0.05399708 142.55909521 0.06107406 156.77101135 0.06532288 C157.64734899 0.0655856 158.52368662 0.06584832 159.42657994 0.06611901 C163.82300244 0.06742407 168.21942495 0.06868777 172.61584747 0.06993091 C209.07618375 0.080294 245.5365097 0.09872719 281.99684143 0.12025452 C281.99684143 19.59025452 281.99684143 39.06025452 281.99684143 59.12025452 C273.47517151 59.14007385 264.95350159 59.15989319 256.17359924 59.18031311 C228.92427461 59.24508652 201.6749845 59.31961666 174.42570253 59.40030613 C170.19485842 59.41282537 165.96401407 59.42525809 161.73316956 59.43763733 C160.89086543 59.44010332 160.04856131 59.44256932 159.18073282 59.44511004 C145.53260856 59.48486085 131.884476 59.5175979 118.23632756 59.54775433 C104.23768962 59.57884088 90.23908701 59.61743825 76.24048877 59.66304457 C67.59885921 59.69096049 58.95725557 59.71298004 50.31559297 59.72751702 C44.39402131 59.73803883 38.47249976 59.75583962 32.55096582 59.77942155 C29.13180614 59.79282128 25.71271686 59.80295683 22.29352951 59.80446815 C18.59014437 59.80777473 14.88700539 59.82320881 11.18367004 59.84178162 C10.09807399 59.83984688 9.01247794 59.83791215 7.89398503 59.83591878 C6.40856241 59.84711702 6.40856241 59.84711702 4.89313126 59.85854149 C3.61043598 59.86195897 3.61043598 59.86195897 2.30182767 59.86544549 C-0.29770124 60.15281529 -1.83814106 60.65192843 -4.00315857 62.12025452 C-8.94279418 71.99952574 -6.62251029 84.08145445 -7.00315857 95.12025452 C87.70684143 95.12025452 182.41684143 95.12025452 279.99684143 95.12025452 C279.99684143 114.59025452 279.99684143 134.06025452 279.99684143 154.12025452 C185.28684143 154.12025452 90.57684143 154.12025452 -7.00315857 154.12025452 C-8.45787474 179.9444901 -8.45787474 179.9444901 -3.00315857 188.12025452 C-0.05730119 190.14964011 2.36375378 190.37256423 5.89313126 190.38196754 C6.883413 190.38943304 7.87369475 190.39689853 8.89398503 190.40459025 C9.97958109 190.40265551 11.06517714 190.40072078 12.18367004 190.39872742 C13.91613924 190.40741602 13.91613924 190.40741602 15.68360782 190.41628015 C18.88984796 190.4303575 22.09596078 190.43551154 25.30222702 190.43692875 C28.75961049 190.44062052 32.21694578 190.45577487 35.67430115 190.46954346 C41.66453294 190.49182713 47.65474762 190.50683374 53.6450119 190.51691055 C62.30594278 190.53149045 70.96681404 190.55702532 79.62770995 190.58524184 C93.67912342 190.63072237 107.73054546 190.66733196 121.78199768 190.69837952 C135.43240363 190.72855989 149.08278859 190.76290781 162.73316956 190.8028717 C163.57445141 190.80533325 164.41573327 190.8077948 165.28250852 190.81033094 C169.50293428 190.82270544 173.72335979 190.835162 177.94378519 190.84765935 C212.96144581 190.95124604 247.97912093 191.0388118 282.99684143 191.12025452 C282.99684143 210.59025452 282.99684143 230.06025452 282.99684143 250.12025452 C245.68792871 250.18646527 208.37907168 250.24182911 171.07011697 250.2734505 C166.65946122 250.27720236 162.24880559 250.28108535 157.83815002 250.28504944 C156.96011563 250.28583637 156.08208124 250.2866233 155.17743975 250.28743408 C140.98450397 250.30046668 126.79160487 250.32410864 112.59869081 250.3517129 C98.02145587 250.37982693 83.44424006 250.39644342 68.86697912 250.40252 C59.88139082 250.40662404 50.89590621 250.41955801 41.91034985 250.44400392 C35.73781355 250.45993524 29.56533039 250.46463825 23.39277506 250.46075865 C19.83840422 250.45884853 16.28421382 250.46165142 12.72987556 250.47787094 C-11.0919217 250.58104403 -35.4747784 250.01301373 -54.25315857 233.09291077 C-66.68795542 220.06934513 -69.46744814 204.12558074 -69.4072113 186.75160217 C-69.41292768 185.24546812 -69.41989679 183.73933839 -69.42800903 182.23321533 C-69.44581659 178.17726664 -69.44479557 174.12153576 -69.43906665 170.06555986 C-69.43595644 166.66384746 -69.44208752 163.2621758 -69.44810539 159.86046922 C-69.46210855 151.82723756 -69.4606248 143.79411233 -69.44920349 135.76087952 C-69.43772874 127.50834009 -69.45179669 119.25612591 -69.47859997 111.00362933 C-69.50084225 103.8855823 -69.50737517 96.76763674 -69.50152355 89.64955747 C-69.4981728 85.41264573 -69.50044236 81.17594231 -69.51777458 76.93906021 C-69.53337835 72.95136348 -69.52914163 68.96414401 -69.51046944 64.97646523 C-69.50682022 63.52458466 -69.50978304 62.07266766 -69.52035522 60.620821 C-69.62502098 45.04145301 -66.28030671 30.59677475 -55.81956482 18.62025452 C-40.80270759 4.02258707 -20.2011283 -0.05237216 0 0 Z " fill="#E2001B" transform="translate(99.00315856933594,80.87974548339844)"></path>
<path d="M0 0 C8.16227597 -0.11580043 16.32420938 -0.20466639 24.48710346 -0.25906086 C28.27742313 -0.28516647 32.06718128 -0.32057991 35.85717773 -0.37719727 C39.51414195 -0.43148603 43.1705658 -0.46141327 46.82790184 -0.47438622 C48.22384336 -0.48363205 49.61975496 -0.5016876 51.01546669 -0.52865028 C52.96875847 -0.56488701 54.92259292 -0.5670419 56.8762207 -0.56762695 C58.5450103 -0.58428154 58.5450103 -0.58428154 60.24751282 -0.60127258 C63 0 63 0 64.63273621 2.41047668 C65.08393326 3.26501938 65.53513031 4.11956207 66 5 C68.99983735 6.93110534 71.36792708 7.25231242 74.89628983 7.26171303 C76.38171245 7.27291127 76.38171245 7.27291127 77.8971436 7.28433573 C78.98273966 7.282401 80.06833571 7.28046626 81.18682861 7.2784729 C82.91929781 7.2871615 82.91929781 7.2871615 84.68676639 7.29602563 C87.89300653 7.31010299 91.09911935 7.31525702 94.30538559 7.31667423 C97.76276906 7.320366 101.22010435 7.33552036 104.67745972 7.34928894 C110.66769151 7.37157261 116.65790619 7.38657923 122.64817047 7.39665604 C131.30910135 7.41123594 139.96997261 7.43677081 148.63086852 7.46498732 C162.68228199 7.51046786 176.73370403 7.54707745 190.78515625 7.578125 C204.4355622 7.60830538 218.08594716 7.64265329 231.73632812 7.68261719 C232.57760998 7.68507874 233.41889184 7.68754028 234.28566709 7.69007643 C238.50609285 7.70245093 242.72651836 7.71490748 246.94694376 7.72740483 C281.96460438 7.83099153 316.9822795 7.91855728 352 8 C352 27.47 352 46.94 352 67 C314.69108728 67.06621076 277.38223025 67.12157459 240.07327554 67.15319599 C235.66261979 67.15694784 231.25196416 67.16083083 226.84130859 67.16479492 C225.9632742 67.16558185 225.08523981 67.16636878 224.18059832 67.16717956 C209.98766254 67.18021217 195.79476344 67.20385412 181.60184938 67.23145839 C167.02461444 67.25957241 152.44739863 67.27618891 137.87013769 67.28226548 C128.88454939 67.28636952 119.89906478 67.2993035 110.91350842 67.3237494 C104.74097212 67.33968073 98.56848896 67.34438373 92.39593363 67.34050413 C88.84156279 67.33859402 85.28737239 67.3413969 81.73303413 67.35761642 C57.91123687 67.46078951 33.52838017 66.89275922 14.75 49.97265625 C3.83393019 38.53972707 -0.24119074 24.54753175 -0.0703125 9.09765625 C-0.06523682 8.2204895 -0.06016113 7.34332275 -0.05493164 6.4395752 C-0.04177599 4.29301235 -0.02160229 2.14649446 0 0 Z " fill="#009228" transform="translate(30,264)"></path>
<path d="M0 0 C0.33 0 0.66 0 1 0 C1 43.89 1 87.78 1 133 C20.8 133 40.6 133 61 133 C61 124.42 61 115.84 61 107 C61.33 107 61.66 107 62 107 C62 116.57 62 126.14 62 136 C41.54 136 21.08 136 0 136 C0 91.12 0 46.24 0 0 Z " fill="#9D2924" transform="translate(30,128)"></path>
</svg><style>@media (prefers-color-scheme: light) { :root { filter: none; } }
@media (prefers-color-scheme: dark) { :root { filter: none; } }
</style></svg>