<?xml version="1.0" encoding="utf-8"?>
<!-- Generator: Adobe Illustrator 28.0.0, SVG Export Plug-In . SVG Version: 6.00 Build 0)  -->
<svg version="1.1" id="Layer_1" xmlns="http://www.w3.org/2000/svg" xmlns:xlink="http://www.w3.org/1999/xlink" x="0px" y="0px"
	 viewBox="0 0 960 960" style="enable-background:new 0 0 960 960;" xml:space="preserve">
<style type="text/css">
	.st0{fill:#A0C515;}
	.st1{fill:#D60F16;}
	.st2{fill:none;}
	.st3{fill:#F9EA11;}
</style>
<g>
	<rect class="st0" width="960" height="960"/>
	<path class="st1" d="M801.5,201.5l-50.3,227.6c-18.1-22.2-49.2-51.2-90.7-56.6c-58-7.6-116.8,12.6-158.1,54
		c-34.7,34.8-60,88.2-43.6,137.4c15.2,45.6,57.8,69.8,103.6,73.2c55.7,4.2,109.5-21.2,154.3-51.9l-54.6,247.3
		c-91.5,24.3-203.7,43.7-295.1,6.9c-96.4-38.8-167.3-126.1-172.5-231.8C188,476,264.1,336.4,358,248.6
		c39.9-37.4,90.7-65.4,142.7-81.6c39.8-12.4,81.5-18.3,123.2-17.4C735.6,152.2,801.5,201.5,801.5,201.5z"/>
	<line class="st2" x1="359.8" y1="170" x2="359.4" y2="171.6"/>
	<path class="st1" d="M552.5,194l-5.6,23.4l-27.8,117v0.2c-6.2,25.4-19.2,38.8-23.5,42.7c-5.2,5.3-27.9,25.2-72.1,25.2
		c-26.5,0-44.5-9.5-54.9-17.4c-11.4-8.7-16.7-17.7-17.7-19.4l-6.8-12.2l4.2-4.4h-50.6l1.8-7.9c-8.8,4.5-18.3,7.2-27.6,7.8H155.7
		l5.6-23.4l17.4-73l2.4-10l18.3-77l3.5-14.6h91.9c16.2,0,30.4,6.3,40.1,17.8c0.7,0.8,1.3,1.6,1.9,2.4c2.1-4.5,4.9-8.7,8.4-12.3l1-1
		c4.5-4.6,9.7-8.1,15.5-10.6c5.7-2.5,12-3.8,18.3-3.8c2.2,0,4.3,0.2,6.4,0.5c8.8,1.2,16.9,5.4,22.9,11.8c5.9,6.3,9.4,14.5,10,23.1
		c0.4,5.4-0.3,10.8-2,16c-0.4,1.3-1,2.5-1.5,3.8l-0.4,1.7l0,0.2c11.6-5.8,24.3-9,37.2-9.1c6.7-0.1,13.4,1.1,19.8,3.4l0.2-0.9H552.5z
		"/>
	<path class="st3" d="M381.3,341.9l0,0.1l11.1-11.8L381.3,341.9z"/>
	<g>
		<path class="st3" d="M327.6,214.5c4.2-24.4-8.4-44.5-32.8-44.5l-76.8,0.1l-18.3,77l-2.4,10l-17.4,73h90.9
			c10.7-0.7,21.3-5.2,30.1-12.1c1.9-1.5,3.7-3.1,5.4-4.8c7-6.8,12-15.3,14.5-24.6c2.1-8.2,1.1-16.8-2.9-24.2
			c-4.3-8.1-11.6-14.1-20.3-16.9C322.6,241.5,327.6,214.5,327.6,214.5z M278.9,279.5c-1.2,4.4-3.8,8.2-7.4,11
			c-3.5,2.8-7.8,4.4-12.3,4.5h-28.1l7.4-31h28.6C275.8,264,281.1,270.9,278.9,279.5z M285.4,220.5c-1,3.7-3.1,6.9-6.1,9.2
			c-2.8,2.4-6.4,3.7-10.1,3.8h-23.5l6.1-26h23.9C282.9,207.5,287.2,213.3,285.4,220.5z"/>
		<path class="st3" d="M399.2,189c-0.5,1.6-1.2,3.2-2,4.6c-5.6,10-17.4,16.4-28.5,14.7c-7.4-1.1-12.8-5.5-15.3-11.4
			c-1.9-4.7-2-10-0.3-14.8c1.2-3.8,3.2-7.2,5.9-10.1l0.4-0.4c6.2-6.5,15.4-10.2,24.2-8.9c9.7,1.5,16.1,8.7,16.7,17.6
			C400.6,183.2,400.2,186.2,399.2,189z"/>
		<path class="st3" d="M392.6,213l-1.8,7.5l0,0L390,224l0,0l-19.1,80.2l-6.2,25.8h-43L348,219.7l1.6-6.7H392.6z"/>
		<path class="st3" d="M487.6,213.1V213l-3.6,15.3c0,0-8.4-17.8-31.4-17.8c-10,0.1-19.9,2.6-28.9,7.1l-1.1,0.6
			c-0.4,0.2-0.7,0.4-1.1,0.6s-0.6,0.3-0.9,0.5c-0.4,0.2-0.9,0.5-1.3,0.8l-0.3,0.2c-0.3,0.2-0.7,0.4-1,0.6c-1,0.7-2.1,1.4-3,2.2
			c-0.3,0.2-0.6,0.5-0.9,0.7c-0.6,0.5-1.1,0.9-1.7,1.4c-0.2,0.2-0.5,0.4-0.7,0.7c-0.6,0.6-1.3,1.2-1.9,1.8c-0.3,0.3-0.6,0.6-0.9,1
			l-0.6,0.7l-0.6,0.6l-0.5,0.6c-0.4,0.4-0.7,0.9-1.1,1.3c-4.5,5.5-10.1,13.6-13.5,22.1c-3.8,9.7-4.8,22.2-5.1,30.3v3.1
			c0,1,0.1,2.1,0.2,3.1c0,0.4,0.1,0.9,0.1,1.3c0,0.4,0.1,1,0.2,1.5s0.1,1,0.2,1.4c0.1,0.4,0.1,0.8,0.2,1.2c0,0.2,0.1,0.4,0.1,0.6
			v0.2c0.1,0.3,0.1,0.6,0.2,0.9c0.1,0.5,0.2,0.9,0.3,1.3v0.1c0.1,0.5,0.2,0.9,0.4,1.4v0.1c0.1,0.4,0.2,0.9,0.4,1.3
			c0.2,0.4,0.2,0.7,0.3,1c0.1,0.3,0.2,0.5,0.3,0.8v0.1c0.1,0.3,0.2,0.6,0.3,0.9c0.1,0.3,0.3,0.9,0.5,1.3c0.2,0.4,0.4,0.9,0.6,1.3
			s0.4,0.9,0.6,1.3c2.7,5.6,6.9,11.4,12.9,15.1c0.3,0.2,0.7,0.4,1,0.6s0.7,0.4,1.1,0.6c0.4,0.2,0.6,0.3,0.9,0.4h0.1l0.3,0.1l1,0.5
			c0.6,0.3,1.3,0.6,1.9,0.8l0.8,0.3c0.4,0.2,0.8,0.3,1.2,0.5c0.4,0.1,0.8,0.3,1.2,0.4c0.4,0.1,1,0.3,1.5,0.5c1,0.3,2,0.5,3,0.8
			s1.9,0.4,2.9,0.5c0.4,0.1,0.9,0.1,1.3,0.2h0.3c0.5,0.1,1.1,0.1,1.7,0.1c1.1,0.1,2.2,0.1,3.4,0.1h1.5c1,0,2.1-0.1,3.1-0.2l0.7-0.1
			c0.5-0.1,1.1-0.1,1.6-0.2c0.5-0.1,1-0.2,1.4-0.2h0.2l0.7-0.1c0.2,0,0.5-0.1,0.8-0.2c0.3-0.1,0.5-0.1,0.8-0.2h0.1
			c0.4-0.1,0.8-0.2,1.2-0.3l0.8-0.2l1.1-0.3c0.7-0.2,1.5-0.5,2.2-0.8c0.7-0.3,1.4-0.6,2.2-0.9s1.4-0.6,2.1-1
			c0.7-0.4,1.4-0.7,2.1-1.1l1.6-1l0.8-0.5l0.8-0.5c3-2,5.8-4.2,8.3-6.7l-1.7,7.2c-3,12.9-13.5,22.7-26.6,24.8l-1.4,0.2
			c-2.1,0.2-4.2,0.3-6.3,0.3c-15.8,0-27.5-6.7-34.6-17.8l-11.1,11.8l-13.7,14.6c0,0,15,27,56,27s59-20,59-20s12.4-10,18.2-33.5
			l27.9-117H487.6z M470.5,278.5c-1.2,6-4.4,11.3-9,15.3c-2.4,2.2-5.5,3.5-8.7,3.7h-2l-0.5-0.1c-0.2,0-0.4-0.1-0.6-0.1h-0.1
			l-0.5-0.1c-0.9-0.2-1.7-0.5-2.5-0.8l-0.4-0.2l-0.4-0.2c-0.3-0.1-0.5-0.3-0.8-0.5c-0.3-0.2-0.6-0.4-0.9-0.6l-0.1-0.1
			c-0.2-0.1-0.4-0.3-0.6-0.5c-0.1-0.1-0.2-0.2-0.3-0.3c-0.2-0.2-0.4-0.3-0.6-0.5c-0.1-0.1-0.3-0.3-0.4-0.4c-0.2-0.1-0.3-0.3-0.5-0.5
			c-0.3-0.3-0.5-0.6-0.8-1c-0.1-0.2-0.3-0.3-0.4-0.5c-0.2-0.3-0.5-0.7-0.7-1.1c-0.1-0.2-0.2-0.4-0.3-0.6c-0.2-0.4-0.4-0.8-0.6-1.2
			c-0.1-0.2-0.2-0.4-0.2-0.6s-0.1-0.4-0.2-0.6c-0.1-0.4-0.3-0.8-0.4-1.3c0-0.2-0.1-0.4-0.1-0.6c-1-4.8-1.1-11.4,1.7-19.7
			c3.7-11.1,11.3-15.4,16.5-17c1.4-0.4,2.9-0.7,4.4-0.7c0.5,0,1.1,0,1.6,0.1c0.3,0,0.5,0.1,0.8,0.1c0.3,0,0.5,0.1,0.8,0.2
			c0.3,0.1,0.7,0.2,1,0.3c0.3,0.1,0.7,0.2,1,0.4l0.7,0.3c0.2,0.1,0.5,0.2,0.7,0.4c0.2,0.2,0.4,0.2,0.6,0.4l0.3,0.2
			c0.1,0.1,0.3,0.2,0.4,0.3C476.5,256.9,471.6,273.2,470.5,278.5z"/>
	</g>
</g>
</svg>
