<svg height="128.309838" viewBox="0 0 43.2704 7.042027" width="779.363463" xmlns="http://www.w3.org/2000/svg" xmlns:xlink="http://www.w3.org/1999/xlink"><symbol id="a" overflow="visible"/><symbol id="b" overflow="visible"/><symbol id="c" overflow="visible"/><symbol id="d" overflow="visible"/><symbol id="e" overflow="visible"/><symbol id="f" overflow="visible"/><symbol id="g" overflow="visible"/><symbol id="h" overflow="visible"/><symbol id="i" overflow="visible"/><symbol id="j" overflow="visible"/><symbol id="k" overflow="visible"/><g transform="translate(-744.56837 -317.62047)"><g transform="matrix(.35277778 0 0 .35277778 -305.65438 -35.808437)"><use fill="#fff" height="100%" width="100%" x="74.203102" xlink:href="#a" y="631.56927"/><use fill="#fff" height="100%" width="100%" x="85.045097" xlink:href="#a" y="613.74329"/><use fill="#636161" height="100%" width="100%" x="58.6922" xlink:href="#c" y="765.82428"/><use fill="#636161" height="100%" width="100%" x="99.671898" xlink:href="#c" y="765.82428"/><use fill="#636161" height="100%" width="100%" x="289.40491" xlink:href="#c" y="738.82428"/><use fill="#636161" height="100%" width="100%" x="315.98151" xlink:href="#c" y="749.82428"/><use fill="#636161" height="100%" width="100%" x="318.79279" xlink:href="#c" y="749.82428"/><use fill="#636161" height="100%" width="100%" x="391.96021" xlink:href="#c" y="739.82428"/><use fill="#636161" height="100%" width="100%" x="418.5369" xlink:href="#c" y="750.82428"/><use fill="#636161" height="100%" width="100%" x="421.34821" xlink:href="#c" y="750.82428"/><use fill="#636161" height="100%" width="100%" x="489.43271" xlink:href="#c" y="756.82428"/><use fill="#636161" height="100%" width="100%" x="180.75191" xlink:href="#c" y="739.51721"/><use fill="#636161" height="100%" width="100%" x="210.3716" xlink:href="#c" y="739.51721"/><use fill="#636161" height="100%" width="100%" x="157.4352" xlink:href="#c" y="761.51721"/><use fill="#636161" height="100%" width="100%" x="186.0565" xlink:href="#c" y="761.51721"/><use fill="#636161" height="100%" width="100%" x="663.84021" xlink:href="#d" y="96.181"/><use fill="#636161" height="100%" width="100%" x="684.9679" xlink:href="#d" y="110.181"/><use fill="#636161" height="100%" width="100%" x="649.51617" xlink:href="#b" y="121.181"/><use fill="#636161" height="100%" width="100%" x="672.84601" xlink:href="#d" y="202.0607"/><use fill="#636161" height="100%" width="100%" x="684.40552" xlink:href="#d" y="216.0607"/><use fill="#636161" height="100%" width="100%" x="648.94928" xlink:href="#b" y="227.0607"/><use fill="#636161" height="100%" width="100%" x="683.90308" xlink:href="#d" y="307.85529"/><use fill="#636161" height="100%" width="100%" x="683.35352" xlink:href="#d" y="321.85529"/><use fill="#636161" height="100%" width="100%" x="647.95721" xlink:href="#b" y="332.85529"/><use fill="#636161" height="100%" width="100%" x="678.94702" xlink:href="#d" y="413.64999"/><use fill="#636161" height="100%" width="100%" x="683.39783" xlink:href="#d" y="427.64999"/><use fill="#636161" height="100%" width="100%" x="647.95721" xlink:href="#b" y="438.64999"/><use fill="#636161" height="100%" width="100%" x="664.06799" xlink:href="#d" y="519.44568"/><use fill="#636161" height="100%" width="100%" x="683.75732" xlink:href="#d" y="533.44568"/><use fill="#636161" height="100%" width="100%" x="648.24841" xlink:href="#b" y="544.44568"/><use fill="#636161" height="100%" width="100%" x="678.79187" xlink:href="#d" y="625.23932"/><use fill="#636161" height="100%" width="100%" x="683.67798" xlink:href="#d" y="639.23932"/><use fill="#636161" height="100%" width="100%" x="648.03198" xlink:href="#b" y="650.23932"/><use fill="#636161" height="100%" width="100%" x="653.37708" xlink:href="#c" y="661.23932"/><use fill="#636161" height="100%" width="100%" x="669.29272" xlink:href="#c" y="661.23932"/><use fill="#636161" height="100%" width="100%" x="682.14618" xlink:href="#d" y="731.03387"/><use fill="#636161" height="100%" width="100%" x="683.27692" xlink:href="#d" y="745.03387"/><use fill="#636161" height="100%" width="100%" x="647.68158" xlink:href="#b" y="756.03387"/><use fill="#636161" height="100%" width="100%" x="526.38959" xlink:href="#e" y="634.1441"/><use fill="#636161" height="100%" width="100%" x="228.75841" xlink:href="#e" y="632.19922"/><use fill="#002154" height="100%" width="100%" x="1139.1696" xlink:href="#a" y="206.29379"/><use fill="#002154" height="100%" width="100%" x="1139.1696" xlink:href="#a" y="191.3118"/><use fill="#002154" height="100%" width="100%" x="1139.1696" xlink:href="#a" y="176.3298"/><use fill="#002154" height="100%" width="100%" x="1139.1696" xlink:href="#a" y="161.34779"/><use fill="#002154" height="100%" width="100%" x="1139.1696" xlink:href="#a" y="146.3658"/><use fill="#002154" height="100%" width="100%" x="1139.1696" xlink:href="#a" y="131.3838"/><use fill="#002154" height="100%" width="100%" x="1139.1696" xlink:href="#a" y="116.4018"/><use fill="#002154" height="100%" width="100%" x="1139.1696" xlink:href="#a" y="101.4198"/><use fill="#002154" height="100%" width="100%" x="1139.1696" xlink:href="#a" y="86.437798"/><use fill="#636363" height="100%" width="100%" x="985.8197" xlink:href="#f" y="164.2067"/><use fill="#636363" height="100%" width="100%" x="1170.385" xlink:href="#a" y="99.126801"/><use fill="#636363" height="100%" width="100%" x="1168.225" xlink:href="#a" y="106.3268"/><use fill="#636363" height="100%" width="100%" x="1181.239" xlink:href="#a" y="121.6988"/><use fill="#636363" height="100%" width="100%" x="1170.199" xlink:href="#a" y="128.8988"/><use fill="#636363" height="100%" width="100%" x="1179.343" xlink:href="#a" y="156.72681"/><use fill="#636363" height="100%" width="100%" x="1168.063" xlink:href="#a" y="163.9268"/><use fill="#3f3f3f" height="100%" width="100%" x="1147.9845" xlink:href="#f" y="304.62939"/><use fill="#3f3f3f" height="100%" width="100%" x="1147.9845" xlink:href="#f" y="318.23251"/><use fill="#3f3f3f" height="100%" width="100%" x="1148.8241" xlink:href="#f" y="331.83569"/><use fill="#3f3f3f" height="100%" width="100%" x="1148.8241" xlink:href="#f" y="345.43881"/><use fill="#3f3f3f" height="100%" width="100%" x="1142.5792" xlink:href="#a" y="400.9556"/><use fill="#3f3f3f" height="100%" width="100%" x="1153.0192" xlink:href="#a" y="400.9556"/><use fill="#636363" height="100%" width="100%" x="848.44122" xlink:href="#g" y="759.1405"/><use fill="#636363" height="100%" width="100%" x="1083.7162" xlink:href="#h" y="762.71472"/><use fill="#0094e6" height="100%" width="100%" x="721.3172" xlink:href="#a" y="591.7627"/><use fill="#0094e6" height="100%" width="100%" x="721.3172" xlink:href="#a" y="573.3847"/><use fill="#0094e6" height="100%" width="100%" x="721.3172" xlink:href="#a" y="555.00671"/><use fill="#0094e6" height="100%" width="100%" x="721.3172" xlink:href="#a" y="536.62872"/><use fill="#0094e6" height="100%" width="100%" x="721.3172" xlink:href="#a" y="518.25067"/><use fill="#0094e6" height="100%" width="100%" x="721.3172" xlink:href="#a" y="499.87271"/><use fill="#0094e6" height="100%" width="100%" x="721.3172" xlink:href="#a" y="481.49469"/><use fill="#636363" height="100%" width="100%" x="919.89111" xlink:href="#a" y="618.43488"/><use fill="#636363" height="100%" width="100%" x="934.05109" xlink:href="#a" y="618.43488"/><use fill="#636363" height="100%" width="100%" x="951.93109" xlink:href="#a" y="618.43488"/><use fill="#636363" height="100%" width="100%" x="1073.7374" xlink:href="#f" y="479.66479"/><use fill="#636363" height="100%" width="100%" x="1128.8145" xlink:href="#f" y="479.66479"/></g><use fill="#fff" height="100%" transform="matrix(.35277777 0 0 .35277777 -145.52759 -33.235045)" width="100%" x="1109.4722" xlink:href="#i" y="286.22089"/><use fill="#fff" height="100%" transform="matrix(.35277777 0 0 .35277777 -145.52759 -33.235045)" width="100%" x="1439.5682" xlink:href="#j" y="299.5127"/><use height="100%" transform="matrix(.35277777 0 0 .35277777 89.461843 92.17722)" width="100%" x="413.4249" xlink:href="#k" y="535.74841"/><use height="100%" transform="matrix(.35277777 0 0 .35277777 89.461843 92.17722)" width="100%" x="430.7019" xlink:href="#k" y="535.74841"/><path d="m759.82325 322.68364v-.75104h-1.40698v-.64767h1.30914v-.7345h-1.30914v-.61047h1.35875v-.76619h-2.56315v3.50987zm0 0" fill="#267f38"/><path d="m764.08966 321.07684v-1.90307h-1.22646v1.87551c0 .4961-.2067.74001-.64078.74001-.43822 0-.64493-.24391-.64493-.74001v-1.87551h-1.22094v1.90307c0 1.09968.62563 1.66743 1.86587 1.66743 1.23885 0 1.86724-.56086 1.86724-1.66743" fill="#267f38"/><path d="m768.34504 322.68364-.51952-1.17409c-.1006-.23565-.21911-.40652-.41066-.50574.36518-.16537.54846-.42582.54846-.79237 0-.71107-.52228-1.03767-1.58061-1.03767h-1.60817v3.50987h1.21405v-1.47313h.16812c.30455 0 .42582.19431.64079.68627l.34865.78686zm-1.54754-2.47772c0 .31557-.18465.40515-.57464.40515h-.23427v-.8158h.25081c.38309 0 .5581.11438.5581.41065" fill="#267f38"/><path d="m772.36615 320.93077c0-.52227-.1819-.95084-.55672-1.29811-.36518-.34037-.83647-.51401-1.3808-.51401-.54432 0-1.01148.17364-1.37941.51401-.37483.34727-.55673.77584-.55673 1.29811 0 .51952.1819.94534.55673 1.29674.36793.33486.83509.51676 1.37941.51676.54433 0 1.01562-.1819 1.3808-.51676.37482-.3514.55672-.77722.55672-1.29674m-1.22369-.008c0 .45888-.30317.7841-.71383.7841-.41341 0-.71658-.32522-.71658-.7841 0-.45613.30317-.77446.71658-.77446.41066 0 .71383.31833.71383.77446" fill="#267f38"/><path d="m776.04 322.4287-.0331-.94809c-.35691.226-.69866.339-1.0666.339-.58291 0-.96601-.35967-.96601-.89711 0-.51952.3831-.8847.96601-.8847.36794 0 .70969.10473 1.0666.33487v-.96187c-.40652-.19706-.80478-.29215-1.23197-.29215-.59944 0-1.06798.1571-1.44831.51401-.37759.34727-.56087.77584-.56087 1.29811 0 .51952.18328.94534.56087 1.29674.3638.33486.82682.51676 1.37803.51676.48921 0 .92329-.0965 1.33532-.31557" fill="#267f38"/><path d="m780.71293 322.68364-1.59715-3.50987h-1.27744l-1.644 3.50987h1.23059l.24943-.60496h1.58336l.23978.60496zm-1.7253-1.27744h-1.03766l.5264-1.29812zm0 0" fill="#267f38"/><path d="m783.40148 321.69145c0-.58153-.35966-.78686-.91501-1.0859-.29766-.15847-.45613-.24529-.45613-.40927 0-.13781.10748-.22324.3197-.22324.30593 0 .58153.15847.91778.44923v-.92328c-.33625-.26183-.70832-.38172-1.14516-.38172-.71795 0-1.21818.45062-1.21818 1.06798 0 .4396.26458.7469.79513 1.05558.29628.16537.49885.24667.49885.39963 0 .1571-.12816.23978-.37483.23978s-.55948-.12402-.92466-.36242v.96462c.35829.17501.70969.26045 1.08313.26045.92053 0 1.41938-.38998 1.41938-1.05144" fill="#267f38"/><path d="m787.70648 322.68364v-3.50987h-1.22784v1.28296h-1.26228v-1.28296h-1.22232v3.50987h1.22232v-1.30225h1.26228v1.30225zm0 0" fill="#267f38"/><path d="m782.16401 323.64689c-.19982 0-.3514.1254-.38999.3073-.0262.17363.0717.29765.24391.29765.0207 0 .0565-.003.0896-.0124l.0248-.11576h-.13505l.04-.23978h.41479l-.0978.56776c-.14607.0469-.2825.0785-.42857.0785-.13781 0-.25907-.0317-.34727-.0896-.16398-.10611-.23288-.27974-.19292-.48369.0276-.16123.11024-.30317.25218-.41203.13642-.11162.29903-.16261.4892-.16261.13918 0 .27285.0344.40377.0951l-.0455.2577c-.113-.0593-.22324-.0882-.32108-.0882" fill="#e31733"/><path d="m783.29537 324.51367-.0675-.24942c-.0358-.1571-.0675-.21635-.16261-.21635h-.0565l-.0772.46577h-.38309l.19017-1.11621h.51538c.33073 0 .47956.10335.43684.32935-.0179.11851-.0951.20119-.21497.25632.0537.0317.0841.0868.10197.15709l.0992.37345zm-.12815-.9164h-.0772l-.0482.25908h.0744c.12816 0 .19292-.0276.20946-.12954.0124-.091-.0345-.12954-.15847-.12954" fill="#e31733"/><path d="m784.3482 324.53021c-.39275 0-.55949-.17777-.49885-.52504l.1061-.60771h.38861l-.10473.60082c-.0289.15572.0234.23014.15848.23014.13918 0 .21773-.0744.24804-.23014l.10198-.60082h.3886l-.1061.60771c-.0634.35003-.29766.52504-.68213.52504" fill="#e31733"/><path d="m785.73726 324.11542h-.13367l-.0689.39825h-.38034l.19568-1.11621h.50436c.34038 0 .47956.11851.44235.35415-.0427.23565-.23151.36381-.55948.36381m.0413-.50988h-.0841l-.0551.30455h.0772c.12815 0 .1943-.0496.21359-.1571.0193-.1061-.0317-.14745-.15158-.14745" fill="#e31733"/><path d="m787.23381 324.51367-.0413-.19155h-.50299l-.11024.19155h-.38723l.71383-1.11621h.39963l.31557 1.11621zm-.18053-.81718-.2384.41066h.33073zm0 0" fill="#e31733"/><path d="m744.70066 321.01483c0 1.55305 2.15939 2.46118 2.15939 2.46118s1.77077.88332 4.76388.74c-3.00826-.40651-4.04317-1.43453-4.04317-1.43453s-1.01148-.66973-1.00046-1.76665c.011-1.10105 1.00046-1.78042 1.00046-1.78042s1.0418-1.05282 4.04317-1.47037c-3.01377-.12127-4.76388.77584-4.76388.77584s-2.15939.9219-2.15939 2.47495" fill="#e31733"/><path d="m751.69421 321.3497c-.27837 0-.54295-.003-.79651-.008.0276.63528.12815 1.14791.25631 1.51033.12954-.011.27148-.0152.42444-.0152.16812 0 .32246.004.45888.0152.12816-.35967.22463-.87092.25081-1.50482-.19017.003-.38723.003-.59393.003m.98942-2.55351c-.1943-.0978-.40376-.17363-.61873-.22186.0579.091.113.19843.15985.31833.19844-.0234.34727-.0593.45888-.0965m-.73173.11989c-.11714-.2508-.24667-.38723-.35691-.38723-.11438 0-.23841.13643-.35692.38448.11576.008.23978.0124.37345.0124.1254 0 .2384-.004.34038-.01m-1.31603 2.4157c-.56362-.0207-1.03904-.0606-1.43178-.10335.0717.7524.47267 1.40835 1.05696 1.80936.1378-.0648.34037-.1254.62562-.16123-.14193-.43271-.22737-.98117-.2508-1.54478m3.62837-.33486v.0152c.68351-.0537.98806-.11575 1.10244-.14745-.0758-.92466-.93983-1.72392-2.17041-2.1015-.001.01-.0124.0248-.0193.0358.6587.49885 1.08727 1.29536 1.08727 2.19798m-1.70463 0v.0854c.58704-.0124 1.05971-.0303 1.43454-.0537 0-.0124.005-.0248.005-.0317 0-.8406-.41754-1.58199-1.03904-2.02709-.13918.073-.34589.13504-.64079.17914.1571.50987.23978 1.18649.23978 1.84795m1.418.2949c-.41065.0248-.89159.0427-1.42489.0524-.0234.55673-.10611 1.10933-.2508 1.5379.28525.0331.4768.0992.62011.16398.57327-.38998.97152-1.0225 1.05558-1.75424m-3.08955-.21508c.25356.006.52228.011.80616.011.21359 0 .41203 0 .59944-.005 0-.0289.001-.0551.001-.0854 0-.77584-.10473-1.39733-.24391-1.82315-.13367.011-.27423.0138-.4396.0138-.17639 0-.33624-.003-.47129-.0165-.14472.42169-.25221 1.04456-.25221 1.82591v.0799m.23978-2.50251c-.21497.0482-.4203.12126-.6146.21911.10886.0344.25769.0703.45613.0965.0468-.11989.10059-.22462.15847-.31557m.93707 4.83278c.19568-.0386.38171-.10198.56361-.19017-.10611-.0331-.24115-.0606-.42168-.0827-.0413.10198-.0896.19569-.14193.27286m-.80616-.2949c.113.22324.22876.34451.33625.34451.10473 0 .22461-.12127.33624-.34451-.10611-.008-.226-.008-.35278-.008-.11575 0-.22187 0-.31971.008m2.99035-1.83555c-.0868.79237-.49196 1.48139-1.09968 1.93063l.0262.0193c1.23335-.3707 2.11391-1.16445 2.19108-2.09738-.22875.062-.61323.11025-1.11759.14745m-5.05602-.31281c.37758.0482.85439.0827 1.43316.10611v-.073c0-.66146.0854-1.33807.24805-1.85346-.29766-.04-.49885-.10611-.63804-.17915-.62425.44098-1.03352 1.16858-1.04317 1.99954m1.36288 2.24758c.17363.091.36932.15434.57464.19568-.0551-.0799-.10611-.17088-.14883-.27423-.17776.0165-.3197.0469-.42581.0786m-.53606-4.41524c-.0124-.011-.0179-.0234-.0275-.0331-1.14791.35278-1.97886 1.07073-2.1456 1.92374.13229.051.45199.15158 1.08313.23978.0207-.87092.44511-1.644 1.09003-2.13045m-1.08176 2.39503c-.54432-.0716-.9095-.16261-1.11759-.2384-.003.0124-.006.0262-.006.0441 0 .9853.90124 1.83968 2.19522 2.22966l.0207-.0248c-.61461-.46026-1.03629-1.18649-1.09278-2.01055" fill="#e31733"/></g></svg>