<svg id="visual" viewBox="0 0 960 540" width="960" height="540" xmlns="http://www.w3.org/2000/svg" xmlns:xlink="http://www.w3.org/1999/xlink" version="1.1"><rect x="0" y="0" width="960" height="540" fill="#ffffff"></rect><defs><linearGradient id="grad1_0" x1="43.8%" y1="0%" x2="100%" y2="100%"><stop offset="14.444444444444446%" stop-color="#fa3c3c" stop-opacity="1"></stop><stop offset="85.55555555555554%" stop-color="#fa3c3c" stop-opacity="1"></stop></linearGradient></defs><defs><linearGradient id="grad1_1" x1="43.8%" y1="0%" x2="100%" y2="100%"><stop offset="14.444444444444446%" stop-color="#fa3c3c" stop-opacity="1"></stop><stop offset="85.55555555555554%" stop-color="#ff6156" stop-opacity="1"></stop></linearGradient></defs><defs><linearGradient id="grad1_2" x1="43.8%" y1="0%" x2="100%" y2="100%"><stop offset="14.444444444444446%" stop-color="#ff7e70" stop-opacity="1"></stop><stop offset="85.55555555555554%" stop-color="#ff6156" stop-opacity="1"></stop></linearGradient></defs><defs><linearGradient id="grad1_3" x1="43.8%" y1="0%" x2="100%" y2="100%"><stop offset="14.444444444444446%" stop-color="#ff7e70" stop-opacity="1"></stop><stop offset="85.55555555555554%" stop-color="#ff9a8b" stop-opacity="1"></stop></linearGradient></defs><defs><linearGradient id="grad1_4" x1="43.8%" y1="0%" x2="100%" y2="100%"><stop offset="14.444444444444446%" stop-color="#ffb4a7" stop-opacity="1"></stop><stop offset="85.55555555555554%" stop-color="#ff9a8b" stop-opacity="1"></stop></linearGradient></defs><defs><linearGradient id="grad1_5" x1="43.8%" y1="0%" x2="100%" y2="100%"><stop offset="14.444444444444446%" stop-color="#ffb4a7" stop-opacity="1"></stop><stop offset="85.55555555555554%" stop-color="#ffcdc4" stop-opacity="1"></stop></linearGradient></defs><defs><linearGradient id="grad1_6" x1="43.8%" y1="0%" x2="100%" y2="100%"><stop offset="14.444444444444446%" stop-color="#ffe6e1" stop-opacity="1"></stop><stop offset="85.55555555555554%" stop-color="#ffcdc4" stop-opacity="1"></stop></linearGradient></defs><defs><linearGradient id="grad1_7" x1="43.8%" y1="0%" x2="100%" y2="100%"><stop offset="14.444444444444446%" stop-color="#ffe6e1" stop-opacity="1"></stop><stop offset="85.55555555555554%" stop-color="#ffffff" stop-opacity="1"></stop></linearGradient></defs><defs><linearGradient id="grad2_0" x1="0%" y1="0%" x2="56.3%" y2="100%"><stop offset="14.444444444444446%" stop-color="#fa3c3c" stop-opacity="1"></stop><stop offset="85.55555555555554%" stop-color="#fa3c3c" stop-opacity="1"></stop></linearGradient></defs><defs><linearGradient id="grad2_1" x1="0%" y1="0%" x2="56.3%" y2="100%"><stop offset="14.444444444444446%" stop-color="#ff6156" stop-opacity="1"></stop><stop offset="85.55555555555554%" stop-color="#fa3c3c" stop-opacity="1"></stop></linearGradient></defs><defs><linearGradient id="grad2_2" x1="0%" y1="0%" x2="56.3%" y2="100%"><stop offset="14.444444444444446%" stop-color="#ff6156" stop-opacity="1"></stop><stop offset="85.55555555555554%" stop-color="#ff7e70" stop-opacity="1"></stop></linearGradient></defs><defs><linearGradient id="grad2_3" x1="0%" y1="0%" x2="56.3%" y2="100%"><stop offset="14.444444444444446%" stop-color="#ff9a8b" stop-opacity="1"></stop><stop offset="85.55555555555554%" stop-color="#ff7e70" stop-opacity="1"></stop></linearGradient></defs><defs><linearGradient id="grad2_4" x1="0%" y1="0%" x2="56.3%" y2="100%"><stop offset="14.444444444444446%" stop-color="#ff9a8b" stop-opacity="1"></stop><stop offset="85.55555555555554%" stop-color="#ffb4a7" stop-opacity="1"></stop></linearGradient></defs><defs><linearGradient id="grad2_5" x1="0%" y1="0%" x2="56.3%" y2="100%"><stop offset="14.444444444444446%" stop-color="#ffcdc4" stop-opacity="1"></stop><stop offset="85.55555555555554%" stop-color="#ffb4a7" stop-opacity="1"></stop></linearGradient></defs><defs><linearGradient id="grad2_6" x1="0%" y1="0%" x2="56.3%" y2="100%"><stop offset="14.444444444444446%" stop-color="#ffcdc4" stop-opacity="1"></stop><stop offset="85.55555555555554%" stop-color="#ffe6e1" stop-opacity="1"></stop></linearGradient></defs><defs><linearGradient id="grad2_7" x1="0%" y1="0%" x2="56.3%" y2="100%"><stop offset="14.444444444444446%" stop-color="#ffffff" stop-opacity="1"></stop><stop offset="85.55555555555554%" stop-color="#ffe6e1" stop-opacity="1"></stop></linearGradient></defs><g transform="translate(960, 0)"><path d="M0 405C-40.3 393.8 -80.7 382.7 -120.8 371.9C-161 361 -200.9 350.5 -238.1 327.7C-275.2 304.8 -309.5 269.6 -313.1 227.5C-316.6 185.4 -289.4 136.4 -299.6 97.3C-309.8 58.3 -357.4 29.1 -405 0L0 0Z" fill="#fff3f0"></path><path d="M0 354.4C-35.3 344.6 -70.6 334.9 -105.7 325.4C-140.8 315.9 -175.8 306.7 -208.3 286.7C-240.8 266.7 -270.8 235.9 -274 199C-277.1 162.2 -253.2 119.3 -262.1 85.2C-271 51 -312.7 25.5 -354.4 0L0 0Z" fill="#ffdad2"></path><path d="M0 303.8C-30.3 295.4 -60.5 287 -90.6 278.9C-120.7 270.8 -150.7 262.9 -178.5 245.7C-206.4 228.6 -232.2 202.2 -234.8 170.6C-237.5 139 -217 102.3 -224.7 73C-232.3 43.7 -268 21.9 -303.7 0L0 0Z" fill="#ffc0b5"></path><path d="M0 253.1C-25.2 246.2 -50.4 239.2 -75.5 232.4C-100.6 225.6 -125.6 219.1 -148.8 204.8C-172 190.5 -193.5 168.5 -195.7 142.2C-197.9 115.9 -180.9 85.2 -187.2 60.8C-193.6 36.4 -223.4 18.2 -253.1 0L0 0Z" fill="#ffa799"></path><path d="M0 202.5C-20.2 196.9 -40.3 191.3 -60.4 185.9C-80.5 180.5 -100.5 175.3 -119 163.8C-137.6 152.4 -154.8 134.8 -156.5 113.7C-158.3 92.7 -144.7 68.2 -149.8 48.7C-154.9 29.1 -178.7 14.6 -202.5 0L0 0Z" fill="#ff8c7d"></path><path d="M0 151.9C-15.1 147.7 -30.3 143.5 -45.3 139.4C-60.4 135.4 -75.3 131.4 -89.3 122.9C-103.2 114.3 -116.1 101.1 -117.4 85.3C-118.7 69.5 -108.5 51.1 -112.3 36.5C-116.2 21.9 -134 10.9 -151.9 0L0 0Z" fill="#ff7063"></path><path d="M0 101.3C-10.1 98.5 -20.2 95.7 -30.2 93C-40.2 90.3 -50.2 87.6 -59.5 81.9C-68.8 76.2 -77.4 67.4 -78.3 56.9C-79.2 46.3 -72.3 34.1 -74.9 24.3C-77.4 14.6 -89.3 7.3 -101.2 0L0 0Z" fill="#fe5049"></path><path d="M0 50.6C-5 49.2 -10.1 47.8 -15.1 46.5C-20.1 45.1 -25.1 43.8 -29.8 41C-34.4 38.1 -38.7 33.7 -39.1 28.4C-39.6 23.2 -36.2 17 -37.4 12.2C-38.7 7.3 -44.7 3.6 -50.6 0L0 0Z" fill="#fa3c3c"></path></g><g transform="translate(0, 540)"><path d="M0 -405C37.8 -372.7 75.5 -340.3 101 -311C126.6 -281.7 139.9 -255.3 181 -249.2C222.2 -243 291.1 -257 327.7 -238.1C364.2 -219.1 368.2 -167.2 375.7 -122.1C383.1 -76.9 394.1 -38.4 405 0L0 0Z" fill="#fff3f0"></path><path d="M0 -354.4C33 -326.1 66.1 -297.8 88.4 -272.1C110.8 -246.5 122.4 -223.4 158.4 -218C194.4 -212.6 254.8 -224.9 286.7 -208.3C318.6 -191.7 322.2 -146.3 328.7 -106.8C335.3 -67.3 344.8 -33.6 354.4 0L0 0Z" fill="#ffdad2"></path><path d="M0 -303.7C28.3 -279.5 56.6 -255.2 75.8 -233.2C94.9 -211.2 104.9 -191.5 135.8 -186.9C166.6 -182.3 218.4 -192.7 245.7 -178.5C273.1 -164.3 276.1 -125.4 281.8 -91.5C287.4 -57.7 295.6 -28.8 303.8 0L0 0Z" fill="#ffc0b5"></path><path d="M0 -253.1C23.6 -232.9 47.2 -212.7 63.2 -194.4C79.1 -176 87.4 -159.6 113.1 -155.7C138.9 -151.9 182 -160.6 204.8 -148.8C227.6 -136.9 230.1 -104.5 234.8 -76.3C239.5 -48.1 246.3 -24 253.1 0L0 0Z" fill="#ffa799"></path><path d="M0 -202.5C18.9 -186.3 37.8 -170.2 50.5 -155.5C63.3 -140.8 69.9 -127.7 90.5 -124.6C111.1 -121.5 145.6 -128.5 163.8 -119C182.1 -109.6 184.1 -83.6 187.8 -61C191.6 -38.4 197 -19.2 202.5 0L0 0Z" fill="#ff8c7d"></path><path d="M0 -151.9C14.2 -139.7 28.3 -127.6 37.9 -116.6C47.5 -105.6 52.5 -95.8 67.9 -93.4C83.3 -91.1 109.2 -96.4 122.9 -89.3C136.6 -82.2 138.1 -62.7 140.9 -45.8C143.7 -28.8 147.8 -14.4 151.9 0L0 0Z" fill="#ff7063"></path><path d="M0 -101.2C9.4 -93.2 18.9 -85.1 25.3 -77.7C31.6 -70.4 35 -63.8 45.3 -62.3C55.5 -60.8 72.8 -64.2 81.9 -59.5C91 -54.8 92 -41.8 93.9 -30.5C95.8 -19.2 98.5 -9.6 101.3 0L0 0Z" fill="#fe5049"></path><path d="M0 -50.6C4.7 -46.6 9.4 -42.5 12.6 -38.9C15.8 -35.2 17.5 -31.9 22.6 -31.1C27.8 -30.4 36.4 -32.1 41 -29.8C45.5 -27.4 46 -20.9 47 -15.3C47.9 -9.6 49.3 -4.8 50.6 0L0 0Z" fill="#fa3c3c"></path></g></svg>