<svg id="visual" viewBox="0 0 100 100" width="100" height="100" xmlns="http://www.w3.org/2000/svg" xmlns:xlink="http://www.w3.org/1999/xlink" version="1.1"><g transform="translate(47.70964083903778 43.33271558315208)"><path d="M22.9 -23.5C32.4 -19.3 44.8 -14.7 46.9 -7.5C49 -0.4 41 9.3 35 20.8C29.1 32.2 25.2 45.5 16.7 50.6C8.2 55.8 -5 52.8 -13.6 45.9C-22.2 39 -26.2 28.3 -30.9 18.6C-35.6 8.9 -41 0.4 -42.3 -10.2C-43.7 -20.8 -41.1 -33.4 -33.4 -37.8C-25.7 -42.3 -12.9 -38.7 -3.1 -35C6.7 -31.3 13.4 -27.6 22.9 -23.5" fill="#fa9595"></path></g></svg>