<?xml version="1.0" encoding="UTF-8"?>
<svg version="1.1" xmlns="http://www.w3.org/2000/svg" width="1591" height="250">
<path d="M0 0 C1.20654537 -0.00085442 2.41309074 -0.00170885 3.65619808 -0.00258917 C6.99246737 -0.00394851 10.32867763 -0.00083457 13.66493976 0.0041889 C17.26744068 0.00851598 20.86993984 0.00704537 24.47244263 0.00628662 C30.70981717 0.00576282 36.94718124 0.00889463 43.18455315 0.01452446 C52.20269418 0.02265889 61.22083016 0.02525667 70.23897446 0.02651245 C84.87107557 0.02869991 99.50317109 0.03535172 114.13526917 0.04481506 C128.34718294 0.05399708 142.55909521 0.06107406 156.77101135 0.06532288 C157.64734899 0.0655856 158.52368662 0.06584832 159.42657994 0.06611901 C163.82300244 0.06742407 168.21942495 0.06868777 172.61584747 0.06993091 C209.07618375 0.080294 245.5365097 0.09872719 281.99684143 0.12025452 C281.99684143 19.59025452 281.99684143 39.06025452 281.99684143 59.12025452 C273.47517151 59.14007385 264.95350159 59.15989319 256.17359924 59.18031311 C228.92427461 59.24508652 201.6749845 59.31961666 174.42570253 59.40030613 C170.19485842 59.41282537 165.96401407 59.42525809 161.73316956 59.43763733 C160.89086543 59.44010332 160.04856131 59.44256932 159.18073282 59.44511004 C145.53260856 59.48486085 131.884476 59.5175979 118.23632756 59.54775433 C104.23768962 59.57884088 90.23908701 59.61743825 76.24048877 59.66304457 C67.59885921 59.69096049 58.95725557 59.71298004 50.31559297 59.72751702 C44.39402131 59.73803883 38.47249976 59.75583962 32.55096582 59.77942155 C29.13180614 59.79282128 25.71271686 59.80295683 22.29352951 59.80446815 C18.59014437 59.80777473 14.88700539 59.82320881 11.18367004 59.84178162 C10.09807399 59.83984688 9.01247794 59.83791215 7.89398503 59.83591878 C6.40856241 59.84711702 6.40856241 59.84711702 4.89313126 59.85854149 C3.61043598 59.86195897 3.61043598 59.86195897 2.30182767 59.86544549 C-0.29770124 60.15281529 -1.83814106 60.65192843 -4.00315857 62.12025452 C-8.94279418 71.99952574 -6.62251029 84.08145445 -7.00315857 95.12025452 C87.70684143 95.12025452 182.41684143 95.12025452 279.99684143 95.12025452 C279.99684143 114.59025452 279.99684143 134.06025452 279.99684143 154.12025452 C185.28684143 154.12025452 90.57684143 154.12025452 -7.00315857 154.12025452 C-8.45787474 179.9444901 -8.45787474 179.9444901 -3.00315857 188.12025452 C-0.05730119 190.14964011 2.36375378 190.37256423 5.89313126 190.38196754 C6.883413 190.38943304 7.87369475 190.39689853 8.89398503 190.40459025 C9.97958109 190.40265551 11.06517714 190.40072078 12.18367004 190.39872742 C13.91613924 190.40741602 13.91613924 190.40741602 15.68360782 190.41628015 C18.88984796 190.4303575 22.09596078 190.43551154 25.30222702 190.43692875 C28.75961049 190.44062052 32.21694578 190.45577487 35.67430115 190.46954346 C41.66453294 190.49182713 47.65474762 190.50683374 53.6450119 190.51691055 C62.30594278 190.53149045 70.96681404 190.55702532 79.62770995 190.58524184 C93.67912342 190.63072237 107.73054546 190.66733196 121.78199768 190.69837952 C135.43240363 190.72855989 149.08278859 190.76290781 162.73316956 190.8028717 C163.57445141 190.80533325 164.41573327 190.8077948 165.28250852 190.81033094 C169.50293428 190.82270544 173.72335979 190.835162 177.94378519 190.84765935 C212.96144581 190.95124604 247.97912093 191.0388118 282.99684143 191.12025452 C282.99684143 210.59025452 282.99684143 230.06025452 282.99684143 250.12025452 C245.68792871 250.18646527 208.37907168 250.24182911 171.07011697 250.2734505 C166.65946122 250.27720236 162.24880559 250.28108535 157.83815002 250.28504944 C156.96011563 250.28583637 156.08208124 250.2866233 155.17743975 250.28743408 C140.98450397 250.30046668 126.79160487 250.32410864 112.59869081 250.3517129 C98.02145587 250.37982693 83.44424006 250.39644342 68.86697912 250.40252 C59.88139082 250.40662404 50.89590621 250.41955801 41.91034985 250.44400392 C35.73781355 250.45993524 29.56533039 250.46463825 23.39277506 250.46075865 C19.83840422 250.45884853 16.28421382 250.46165142 12.72987556 250.47787094 C-11.0919217 250.58104403 -35.4747784 250.01301373 -54.25315857 233.09291077 C-66.68795542 220.06934513 -69.46744814 204.12558074 -69.4072113 186.75160217 C-69.41292768 185.24546812 -69.41989679 183.73933839 -69.42800903 182.23321533 C-69.44581659 178.17726664 -69.44479557 174.12153576 -69.43906665 170.06555986 C-69.43595644 166.66384746 -69.44208752 163.2621758 -69.44810539 159.86046922 C-69.46210855 151.82723756 -69.4606248 143.79411233 -69.44920349 135.76087952 C-69.43772874 127.50834009 -69.45179669 119.25612591 -69.47859997 111.00362933 C-69.50084225 103.8855823 -69.50737517 96.76763674 -69.50152355 89.64955747 C-69.4981728 85.41264573 -69.50044236 81.17594231 -69.51777458 76.93906021 C-69.53337835 72.95136348 -69.52914163 68.96414401 -69.51046944 64.97646523 C-69.50682022 63.52458466 -69.50978304 62.07266766 -69.52035522 60.620821 C-69.62502098 45.04145301 -66.28030671 30.59677475 -55.81956482 18.62025452 C-40.80270759 4.02258707 -20.2011283 -0.05237216 0 0 Z " fill="#E2001B" transform="translate(69.00315856933594,-0.1202545166015625)"/>
<path d="M0 0 C8.01457863 -0.1390668 16.02865272 -0.24565207 24.04413986 -0.31087303 C27.76618839 -0.34217758 31.48741115 -0.38463014 35.20898438 -0.45263672 C38.80114083 -0.51786702 42.39250358 -0.55371265 45.9852066 -0.56926346 C47.3552424 -0.58034382 48.72523506 -0.6019828 50.09493256 -0.63438034 C54.12773846 -0.72596821 58.03087589 -0.76317106 62 0 C64.62207031 2.91162109 64.62207031 2.91162109 66 6 C68.97361836 7.96559326 71.37753206 8.25233801 74.89628983 8.26171303 C76.38171245 8.27291127 76.38171245 8.27291127 77.8971436 8.28433573 C78.98273966 8.282401 80.06833571 8.28046626 81.18682861 8.2784729 C82.91929781 8.2871615 82.91929781 8.2871615 84.68676639 8.29602563 C87.89300653 8.31010299 91.09911935 8.31525702 94.30538559 8.31667423 C97.76276906 8.320366 101.22010435 8.33552036 104.67745972 8.34928894 C110.66769151 8.37157261 116.65790619 8.38657923 122.64817047 8.39665604 C131.30910135 8.41123594 139.96997261 8.43677081 148.63086852 8.46498732 C162.68228199 8.51046786 176.73370403 8.54707745 190.78515625 8.578125 C204.4355622 8.60830538 218.08594716 8.64265329 231.73632812 8.68261719 C232.57760998 8.68507874 233.41889184 8.68754028 234.28566709 8.69007643 C238.50609285 8.70245093 242.72651836 8.71490748 246.94694376 8.72740483 C281.96460438 8.83099153 316.9822795 8.91855728 352 9 C352 28.47 352 47.94 352 68 C314.69108728 68.06621076 277.38223025 68.12157459 240.07327554 68.15319599 C235.66261979 68.15694784 231.25196416 68.16083083 226.84130859 68.16479492 C225.9632742 68.16558185 225.08523981 68.16636878 224.18059832 68.16717956 C209.98766254 68.18021217 195.79476344 68.20385412 181.60184938 68.23145839 C167.02461444 68.25957241 152.44739863 68.27618891 137.87013769 68.28226548 C128.88454939 68.28636952 119.89906478 68.2993035 110.91350842 68.3237494 C104.74097212 68.33968073 98.56848896 68.34438373 92.39593363 68.34050413 C88.84156279 68.33859402 85.28737239 68.3413969 81.73303413 68.35761642 C57.91123687 68.46078951 33.52838017 67.89275922 14.75 50.97265625 C3.65082657 39.34795378 -0.23452558 25.26276529 -0.0703125 9.59375 C-0.06523682 8.66916992 -0.06016113 7.74458984 -0.05493164 6.79199219 C-0.04176836 4.52790801 -0.0233258 2.26399844 0 0 Z " fill="#009228" transform="translate(0,182)"/>
<path d="M0 0 C1.24962524 -0.00029205 2.49925049 -0.00058411 3.78674316 -0.00088501 C7.19121624 0.00026444 10.59544273 0.0102516 13.99987221 0.02426291 C17.56594736 0.03681852 21.13202627 0.03794456 24.69812012 0.04031372 C31.44108521 0.04651436 38.18398496 0.06290587 44.92692137 0.0830127 C52.60772542 0.10541594 60.28853269 0.11637623 67.96936131 0.12640357 C83.76021737 0.14727346 99.55098351 0.18393186 115.34179688 0.22705078 C115.34179688 8.80705078 115.34179688 17.38705078 115.34179688 26.22705078 C111.68682129 26.25210693 108.0318457 26.27716309 104.26611328 26.30297852 C92.21607364 26.38629997 80.16607885 26.47495526 68.1160984 26.56639004 C60.80723303 26.62171823 53.49836277 26.67519956 46.18945312 26.72436523 C39.82059213 26.76721203 33.45176701 26.81349126 27.08296144 26.86392933 C23.70930697 26.89052629 20.3356596 26.91537925 16.96196365 26.9361248 C13.20001489 26.96011956 9.43816144 26.99018084 5.67626953 27.02172852 C3.98989632 27.03036171 3.98989632 27.03036171 2.26945496 27.03916931 C0.738162 27.05385254 0.738162 27.05385254 -0.82406616 27.0688324 C-1.71451818 27.07528495 -2.60497021 27.0817375 -3.52240562 27.08838558 C-5.71104193 27.09166771 -5.71104193 27.09166771 -7.65820312 28.22705078 C-7.98820313 32.51705078 -8.31820312 36.80705078 -8.65820312 41.22705078 C31.93179688 41.22705078 72.52179688 41.22705078 114.34179688 41.22705078 C114.34179688 49.80705078 114.34179688 58.38705078 114.34179688 67.22705078 C73.75179687 67.22705078 33.16179687 67.22705078 -8.65820312 67.22705078 C-8.16320312 74.15705078 -8.16320312 74.15705078 -7.65820312 81.22705078 C-4.72346368 82.20529726 -2.80085271 82.36289347 0.25822449 82.38526917 C1.27204697 82.39505798 2.28586945 82.4048468 3.33041382 82.41493225 C4.44171661 82.42068771 5.55301941 82.42644318 6.69799805 82.43237305 C7.86886459 82.44227264 9.03973114 82.45217224 10.24607849 82.46237183 C13.45652942 82.48856239 16.6669751 82.51042332 19.87746978 82.53037381 C23.23273756 82.55224289 26.58796018 82.57962707 29.94319153 82.60643005 C36.29669144 82.65634448 42.65021644 82.70128794 49.0037654 82.74445242 C56.23710075 82.79383548 63.47039079 82.84874964 70.7036823 82.90413201 C85.58301308 83.01793287 100.46238671 83.12404585 115.34179688 83.22705078 C115.34179688 91.80705078 115.34179688 100.38705078 115.34179688 109.22705078 C99.51183507 109.27231107 83.68192508 109.30910574 67.85191727 109.33067513 C60.50070112 109.34095925 53.14952822 109.35496436 45.79833984 109.37792969 C39.38619701 109.39795174 32.97408553 109.410788 26.5619123 109.41522777 C23.17112071 109.41782032 19.78041875 109.42385319 16.38965607 109.43851089 C12.59142331 109.45311781 8.7933737 109.45502486 4.99511719 109.45410156 C3.3346209 109.46488739 3.3346209 109.46488739 1.64057922 109.47589111 C-9.07994653 109.44785876 -20.92781061 109.11422783 -29.37304688 101.72705078 C-37.32343139 93.32957863 -37.11127638 83.211171 -37.05664062 72.22705078 C-37.05866632 70.78173679 -37.06158186 69.33642381 -37.06533813 67.89111328 C-37.06973824 64.8753884 -37.06340583 61.85993175 -37.04931641 58.84423828 C-37.0322256 55.00124758 -37.04207932 51.15888567 -37.0600338 47.31591797 C-37.07093473 44.33540204 -37.06739661 41.35503233 -37.05965042 38.37451172 C-37.05766579 36.95849531 -37.0600458 35.54246512 -37.06708908 34.12646484 C-37.10370546 24.69872314 -36.74929544 16.90784771 -31.47070312 8.91455078 C-22.65034345 0.48620709 -11.62106681 -0.0715346 0 0 Z " fill="#E2001B" transform="translate(600.658203125,-0.22705078125)"/>
<path d="M0 0 C1.09933868 -0.00137466 2.19867737 -0.00274933 3.33132935 -0.00416565 C4.53254425 -0.00057037 5.73375916 0.0030249 6.97137451 0.00672913 C8.87419693 0.00651009 8.87419693 0.00651009 10.81546021 0.00628662 C14.29033331 0.00599977 17.76517188 0.01187835 21.24003696 0.01886058 C24.8728728 0.02511282 28.50570942 0.0256994 32.1385498 0.02688599 C39.01620508 0.02999378 45.89384445 0.03819974 52.77149272 0.04823548 C60.60214771 0.05941373 68.43280347 0.06491138 76.26346445 0.06993091 C92.37021347 0.08038281 108.4769406 0.09872144 124.5836792 0.12025452 C124.5836792 8.70025452 124.5836792 17.28025452 124.5836792 26.12025452 C119.04792114 26.15783875 119.04792114 26.15783875 113.40032959 26.19618225 C101.23852414 26.27947198 89.07676348 26.36813076 76.91501713 26.45959377 C69.53774178 26.51494267 62.16046161 26.56842734 54.78314209 26.61756897 C48.35532707 26.66039046 41.92754791 26.70666321 35.49978822 26.75713307 C32.0943075 26.78375049 28.68883396 26.80860387 25.28331184 26.82932854 C21.48763156 26.85329367 17.69204685 26.88335867 13.89642334 26.91493225 C12.75922852 26.92068771 11.62203369 26.92644318 10.45037842 26.93237305 C8.90852623 26.94705627 8.90852623 26.94705627 7.33552551 26.96203613 C5.98740327 26.97171496 5.98740327 26.97171496 4.61204624 26.98158932 C2.58812908 26.89672702 2.58812908 26.89672702 1.5836792 28.12025452 C1.2536792 32.41025452 0.9236792 36.70025452 0.5836792 41.12025452 C41.1736792 41.12025452 81.7636792 41.12025452 123.5836792 41.12025452 C123.5836792 49.70025452 123.5836792 58.28025452 123.5836792 67.12025452 C82.9936792 67.12025452 42.4036792 67.12025452 0.5836792 67.12025452 C0.09778791 74.80366781 0.09778791 74.80366781 2.5836792 81.12025452 C4.16481533 81.22834568 5.75073982 81.26709495 7.33552551 81.2784729 C8.36342697 81.28826172 9.39132843 81.29805054 10.45037842 81.30813599 C12.15617065 81.31676918 12.15617065 81.31676918 13.89642334 81.32557678 C15.08650497 81.33547638 16.27658661 81.34537598 17.50273132 81.35557556 C20.77528229 81.38182555 24.04782785 81.40366183 27.32042241 81.42357755 C30.73709481 81.44539984 34.15372217 81.47280685 37.57035828 81.49963379 C44.04433919 81.54961164 50.51834504 81.5945315 56.99237484 81.63765615 C64.36109039 81.68698511 71.72976077 81.74191929 79.09843266 81.79733574 C94.26014094 81.91123393 109.42189181 82.01731575 124.5836792 82.12025452 C124.5836792 90.70025452 124.5836792 99.28025452 124.5836792 108.12025452 C107.82375085 108.21072646 91.06403256 108.28433597 74.30392742 108.3275032 C66.52103081 108.34808378 58.73829728 108.37611754 50.95550537 108.42201233 C44.16798134 108.46201881 37.38057548 108.48772004 30.59293681 108.4966085 C27.00253556 108.50180005 23.4124722 108.51390641 19.82217979 108.54317474 C15.80332145 108.57566769 11.78504171 108.57620514 7.76605225 108.57435608 C6.59000427 108.58873718 5.4139563 108.60311829 4.20227051 108.61793518 C-5.27814455 108.57092763 -14.91455982 106.79421375 -21.99613953 99.97666931 C-28.2136512 91.84934018 -27.99904385 81.67393615 -27.91241455 71.92494202 C-27.91256997 70.48248726 -27.91406611 69.04003209 -27.91682434 67.59757996 C-27.91819914 64.59371685 -27.90580371 61.59033658 -27.88287354 58.58656311 C-27.85443961 54.75929526 -27.85725234 50.93282471 -27.86996365 47.10549736 C-27.87695571 44.13354315 -27.86909246 41.16176953 -27.85670662 38.18983841 C-27.8522299 36.77941203 -27.85182178 35.36896601 -27.85577202 33.95853806 C-27.87111503 23.66716091 -27.52034243 14.48077533 -20.2288208 6.62416077 C-14.49633635 1.86768121 -7.30637385 -0.00705248 0 0 Z " fill="#009228" transform="translate(754.4163208007813,141.87974548339844)"/>
<path d="M0 0 C1.09933868 -0.00137466 2.19867737 -0.00274933 3.33132935 -0.00416565 C4.53254425 -0.00057037 5.73375916 0.0030249 6.97137451 0.00672913 C8.87419693 0.00651009 8.87419693 0.00651009 10.81546021 0.00628662 C14.29033331 0.00599977 17.76517188 0.01187835 21.24003696 0.01886058 C24.8728728 0.02511282 28.50570942 0.0256994 32.1385498 0.02688599 C39.01620508 0.02999378 45.89384445 0.03819974 52.77149272 0.04823548 C60.60214771 0.05941373 68.43280347 0.06491138 76.26346445 0.06993091 C92.37021347 0.08038281 108.4769406 0.09872144 124.5836792 0.12025452 C124.5836792 8.70025452 124.5836792 17.28025452 124.5836792 26.12025452 C63.2036792 26.61525452 63.2036792 26.61525452 0.5836792 27.12025452 C0.2536792 31.74025452 -0.0763208 36.36025452 -0.4163208 41.12025452 C40.5036792 41.12025452 81.4236792 41.12025452 123.5836792 41.12025452 C123.5836792 49.70025452 123.5836792 58.28025452 123.5836792 67.12025452 C82.6636792 67.12025452 41.7436792 67.12025452 -0.4163208 67.12025452 C0.0786792 74.05025452 0.0786792 74.05025452 0.5836792 81.12025452 C41.5036792 81.45025452 82.4236792 81.78025452 124.5836792 82.12025452 C124.5836792 90.70025452 124.5836792 99.28025452 124.5836792 108.12025452 C107.80648503 108.18808684 91.02940867 108.24330326 74.25211525 108.27569103 C66.46138204 108.2911318 58.67074036 108.31216765 50.88006592 108.34657288 C44.08632606 108.37656102 37.29265253 108.39584978 30.49884832 108.40252 C26.9046319 108.40641639 23.31060512 108.41551451 19.71644974 108.43744469 C15.69505808 108.46178057 11.673992 108.4622185 7.65252686 108.46083069 C6.47288361 108.47161652 5.29324036 108.48240234 4.07785034 108.49351501 C-6.04206981 108.45583446 -14.32043151 107.09571122 -21.7913208 99.95619202 C-26.70338196 94.40650753 -27.53599636 88.68511216 -27.57745361 81.55091858 C-27.58490097 80.57445374 -27.58490097 80.57445374 -27.59249878 79.57826233 C-27.60706809 77.4307905 -27.61391443 75.28339259 -27.6194458 73.13587952 C-27.62520256 71.63618469 -27.63096022 70.13648986 -27.63671875 68.63679504 C-27.64721457 65.49293171 -27.65306618 62.34909383 -27.65655518 59.20521545 C-27.66203 55.19277908 -27.68604208 51.18068373 -27.71452713 47.16835403 C-27.73322896 44.06952458 -27.73836315 40.97077594 -27.73989105 37.87189484 C-27.74290227 36.39362987 -27.75087862 34.9153658 -27.76407623 33.43715668 C-27.84960308 23.11930264 -27.50064421 14.62196365 -20.2288208 6.65931702 C-14.55676889 1.84296259 -7.28631172 -0.00703312 0 0 Z " fill="#009228" transform="translate(430.41632080078125,141.87974548339844)"/>
<path d="M0 0 C34.66508754 -0.16121214 34.66508754 -0.16121214 49.22851562 -0.1953125 C59.27099815 -0.21901634 69.3133461 -0.24683199 79.35571289 -0.30175781 C86.67061395 -0.34174678 93.98540549 -0.36746143 101.30041283 -0.37635398 C105.17025996 -0.38154843 109.03979388 -0.39367392 112.90954018 -0.42292023 C116.55968003 -0.45028061 120.20938075 -0.45840396 123.85961342 -0.45243073 C125.8220648 -0.45403801 127.78446951 -0.47545208 129.74679565 -0.49768066 C138.64956141 -0.45665046 147.04806811 0.85558809 154.4375 6.1875 C161.26458451 13.68064153 161.62922376 21.71130008 161.5 31.5 C161.52320313 33.25763672 161.52320313 33.25763672 161.546875 35.05078125 C161.51177628 42.86902074 160.77258464 49.86135281 155.32177734 55.84106445 C148.25414406 62.4747573 140.10049946 63.9466963 130.6875 64.5625 C129.43324219 64.64628906 128.17898438 64.73007813 126.88671875 64.81640625 C125.93410156 64.87699219 124.98148438 64.93757813 124 65 C124.5261792 65.52395859 125.0523584 66.04791718 125.59448242 66.5877533 C130.54159175 71.51486399 135.48632235 76.44435041 140.42835999 81.37654781 C142.96947564 83.91243454 145.51151741 86.44737848 148.05566406 88.98022461 C150.97735598 91.88901938 153.89503627 94.80180816 156.8125 97.71484375 C157.73119873 98.6283812 158.64989746 99.54191864 159.59643555 100.48313904 C160.43730713 101.32393509 161.27817871 102.16473114 162.14453125 103.03100586 C162.89065674 103.77491074 163.63678223 104.51881561 164.40551758 105.28526306 C166 107 166 107 166 108 C132.83517714 112.44900386 132.83517714 112.44900386 121.80517578 104.09579468 C114.2461829 97.61910542 108.06724511 89.84482176 102 82 C100.2905432 79.94574649 98.56176048 77.93192668 96.75428772 75.96374512 C95 74 95 74 93.41578674 71.92810059 C90.57037892 68.52984478 88.35090637 66.32961906 83.96873474 65.26037598 C80.3223824 64.97987595 76.750467 64.94414395 73.09375 65 C71.75994509 64.99246931 70.42615584 64.98142459 69.09240723 64.96704102 C65.60661786 64.93877186 62.12267983 64.95778356 58.63696289 64.98712158 C55.07036294 65.00861572 51.50406637 64.98517324 47.9375 64.96484375 C40.95681784 64.92831692 33.98211471 64.96602377 27 65 C27 79.19 27 93.38 27 108 C18.09 108 9.18 108 0 108 C0 72.36 0 36.72 0 0 Z M27 26 C27 31.28 27 36.56 27 42 C40.7861279 42.04626041 54.57223745 42.0818371 68.35842705 42.10362434 C74.75932423 42.11407904 81.16016846 42.12826892 87.56103516 42.15087891 C93.73367969 42.17254725 99.90627317 42.18455591 106.07895279 42.18975449 C108.4385674 42.19346107 110.79817909 42.20069867 113.15777206 42.21146011 C116.45273718 42.22589516 119.74748903 42.2279813 123.04248047 42.22705078 C124.0264682 42.23424133 125.01045593 42.24143188 126.02426147 42.24884033 C127.36623596 42.24471634 127.36623596 42.24471634 128.73532104 42.24050903 C129.90507634 42.24327441 129.90507634 42.24327441 131.09846306 42.24609566 C133.24153833 42.16546297 133.24153833 42.16546297 135 40 C135.24360073 36.87185486 135.24360073 36.87185486 135.125 33.375 C135.10695313 32.18648437 135.08890625 30.99796875 135.0703125 29.7734375 C135.04710937 28.85820312 135.02390625 27.94296875 135 27 C132.669801 25.8349005 131.33000001 25.87667849 128.73532104 25.87974548 C127.39334656 25.87768349 127.39334656 25.87768349 126.02426147 25.87557983 C125.04027374 25.87917511 124.05628601 25.88277039 123.04248047 25.88647461 C122.00830994 25.88632858 120.9741394 25.88618256 119.90863037 25.8860321 C116.47812834 25.88673076 113.04768009 25.89452099 109.6171875 25.90234375 C107.24350006 25.9042081 104.86981223 25.90563192 102.49612427 25.90663147 C96.23910465 25.91045534 89.98210813 25.92028453 83.72509766 25.93133545 C77.3440787 25.94155236 70.96305602 25.94612969 64.58203125 25.95117188 C52.05467733 25.9619069 39.52734059 25.97898177 27 26 Z " fill="#019228" transform="translate(1224,142)"/>
<path d="M0 0 C1.11891632 -0.00137466 2.23783264 -0.00274933 3.39065552 -0.00416565 C4.60338135 -0.00057037 5.81610718 0.0030249 7.06558228 0.00672913 C8.35392975 0.0065831 9.64227722 0.00643707 10.96966553 0.00628662 C14.48987318 0.00600048 18.01004655 0.0118676 21.53024626 0.01886058 C25.21378625 0.02512461 28.89732708 0.02570033 32.58087158 0.02688599 C39.55054168 0.02999032 46.52019604 0.03819159 53.48985922 0.04823548 C61.4269673 0.05942452 69.36407614 0.06491409 77.30119014 0.06993091 C93.62321823 0.08037496 109.94522465 0.09870927 126.26724243 0.12025452 C126.26724243 8.70025452 126.26724243 17.28025452 126.26724243 26.12025452 C122.460802 26.14531067 118.65436157 26.17036682 114.73257446 26.19618225 C102.18361216 26.27950119 89.63469239 26.36815675 77.08578682 26.45959377 C69.47425 26.51492361 61.8627085 26.5684052 54.25112915 26.61756897 C47.61858078 26.66041375 40.98606689 26.70669248 34.35357177 26.75713307 C30.84018846 26.78373165 27.32681198 26.80858465 23.81338882 26.82932854 C19.89577931 26.85252305 15.97825106 26.88338258 12.06069946 26.91493225 C10.88969696 26.92068771 9.71869446 26.92644318 8.51220703 26.93237305 C7.44927429 26.94216187 6.38634155 26.95195068 5.29119873 26.96203613 C4.36387499 26.96848868 3.43655125 26.97494123 2.48112679 26.98158932 C0.22596643 26.97821475 0.22596643 26.97821475 -1.73275757 28.12025452 C-1.80862935 35.48916553 -1.86128192 42.85797637 -1.89755249 50.22718811 C-1.91266786 52.73568994 -1.93316054 55.24416523 -1.95907593 57.75257874 C-1.99533799 61.35176634 -2.01245631 64.95060552 -2.02572632 68.54994202 C-2.04121017 69.67705597 -2.05669403 70.80416992 -2.07264709 71.96543884 C-2.07287369 73.00636688 -2.07310028 74.04729492 -2.07333374 75.11976624 C-2.07999557 76.03909943 -2.08665741 76.95843262 -2.09352112 77.90562439 C-1.91494316 79.0018663 -1.91494316 79.0018663 -1.73275757 80.12025452 C2.25974774 82.78192472 5.73877173 82.39269301 10.37271118 82.36317444 C11.77065414 82.36602196 11.77065414 82.36602196 13.19683838 82.368927 C16.28289149 82.372637 19.36871017 82.36192713 22.45474243 82.35072327 C24.59561129 82.34953145 26.73648068 82.34907831 28.87734985 82.34933472 C33.36639678 82.34776945 37.855364 82.33947653 42.34439087 82.32606506 C48.10486498 82.30907522 53.86525145 82.30525072 59.62574768 82.30601025 C64.0471582 82.30573859 68.46854948 82.30025813 72.88995361 82.2930088 C75.01428074 82.28982174 77.13861006 82.28785464 79.26293945 82.2871151 C82.22925547 82.28495195 85.19547774 82.27620815 88.16177368 82.26551819 C89.04394562 82.26597137 89.92611755 82.26642456 90.83502197 82.26689148 C94.22453434 82.24899009 97.0294774 82.19950953 100.26724243 81.12025452 C100.59724243 68.25025452 100.92724243 55.38025452 101.26724243 42.12025452 C110.50724243 42.12025452 119.74724243 42.12025452 129.26724243 42.12025452 C129.31329581 48.24023692 129.35307926 54.35961155 129.37710571 60.47962952 C129.38712793 62.55907739 129.40074931 64.6385113 129.41812134 66.71791077 C129.44253631 69.71664388 129.4537636 72.71518971 129.46255493 75.71400452 C129.4728775 76.63516052 129.48320007 77.55631653 129.49383545 78.50538635 C129.49523997 86.69016005 128.5468656 93.52072555 123.26724243 100.12025452 C114.99083966 108.39665728 104.15728831 109.21069336 92.93212891 109.26689148 C92.02596832 109.26643829 91.11980774 109.26598511 90.18618774 109.26551819 C89.20943085 109.2688768 88.23267395 109.27223541 87.22631836 109.2756958 C84.01598823 109.28514898 80.80571059 109.28714613 77.59536743 109.28822327 C75.34868346 109.29143995 73.1019997 109.29480433 70.85531616 109.29830933 C66.15147415 109.30428665 61.44765047 109.30615068 56.74380493 109.30555725 C50.74107685 109.30545575 44.73846738 109.31910148 38.73576736 109.33632946 C34.0961148 109.34749402 29.45649049 109.34947508 24.81682587 109.34894753 C22.60503481 109.35012117 20.39324287 109.35450809 18.18146515 109.36227989 C-14.81425633 109.46736168 -14.81425633 109.46736168 -23.48275757 101.51478577 C-28.63230211 95.90722886 -29.97662125 90.55656948 -30.02328491 82.9566803 C-30.03000214 82.2663974 -30.03671936 81.5761145 -30.04364014 80.86491394 C-30.06253203 78.59839037 -30.06653971 76.33216427 -30.06869507 74.06556702 C-30.07512879 72.47904848 -30.08185757 70.89253111 -30.08886719 69.30601501 C-30.10081767 65.9857661 -30.10455028 62.66562106 -30.10336304 59.34535217 C-30.1031599 55.10640338 -30.13046651 50.86812536 -30.16490746 46.6293354 C-30.1872253 43.35377487 -30.1911991 40.07837458 -30.19014359 36.80274582 C-30.19249202 35.24074364 -30.20127262 33.67873653 -30.21680832 32.11680984 C-30.30043288 22.84175802 -30.29541081 15.53375218 -24.05697632 8.13197327 C-16.69953813 2.17929655 -9.42396015 -0.0089752 0 0 Z " fill="#E1001B" transform="translate(797.7327575683594,-0.1202545166015625)"/>
<path d="M0 0 C1.1329953 -0.00137466 2.2659906 -0.00274933 3.43331909 -0.00416565 C4.67193695 -0.00057037 5.91055481 0.0030249 7.18670654 0.00672913 C8.4942691 0.0065831 9.80183167 0.00643707 11.14901733 0.00628662 C14.7313246 0.00599973 18.31359838 0.01187902 21.89589787 0.01886058 C25.64084262 0.02511208 29.38578814 0.02569934 33.1307373 0.02688599 C40.22088815 0.029994 47.31102358 0.03820025 54.40116763 0.04823548 C62.47365606 0.05941306 70.54614523 0.06491121 78.61863947 0.06993091 C95.22304467 0.0803833 111.82742864 0.0987222 128.43182373 0.12025452 C128.43182373 8.70025452 128.43182373 17.28025452 128.43182373 26.12025452 C122.71430786 26.15783875 122.71430786 26.15783875 116.88128662 26.19618225 C104.32034311 26.27947097 91.75944239 26.36812987 79.19855595 26.45959377 C71.57914345 26.51494333 63.95972627 26.56842811 56.340271 26.61756897 C49.70150609 26.66038966 43.0627759 26.7066622 36.42406458 26.75713307 C32.90680078 26.78375113 29.38954394 26.80860454 25.87224007 26.82932854 C21.95203178 26.85249098 18.03190541 26.8833579 14.11175537 26.91493225 C12.93715759 26.92068771 11.76255981 26.92644318 10.55236816 26.93237305 C9.49081009 26.94216187 8.42925201 26.95195068 7.33552551 26.96203613 C5.94315721 26.97171496 5.94315721 26.97171496 4.52266026 26.98158932 C2.44358688 26.88890338 2.44358688 26.88890338 1.43182373 28.12025452 C1.33320775 29.74152875 1.30383606 31.36707819 1.3024292 32.99134827 C1.29927704 34.02912415 1.29612488 35.06690002 1.2928772 36.13612366 C1.29490143 37.26526184 1.29692566 38.39440002 1.29901123 39.55775452 C1.2980545 40.70816223 1.29709778 41.85856995 1.29611206 43.0438385 C1.29543004 45.48174596 1.29728583 47.91965521 1.30145264 50.3575592 C1.30680056 54.10401969 1.30150834 57.85036029 1.29510498 61.59681702 C1.29576576 63.95879645 1.29704691 66.32077581 1.29901123 68.68275452 C1.296987 69.8118927 1.29496277 70.94103088 1.2928772 72.10438538 C1.29602936 73.14216125 1.29918152 74.17993713 1.3024292 75.24916077 C1.30322479 76.16769836 1.30402039 77.08623596 1.30484009 78.03260803 C1.19964794 80.10903574 1.19964794 80.10903574 2.43182373 81.12025452 C4.0636568 81.2284784 5.70014716 81.26710483 7.33552551 81.2784729 C8.39708359 81.28826172 9.45864166 81.29805054 10.55236816 81.30813599 C12.31426483 81.31676918 12.31426483 81.31676918 14.11175537 81.32557678 C15.34085129 81.33547638 16.5699472 81.34537598 17.83628845 81.35557556 C21.21628163 81.38182653 24.59625038 81.40366235 27.97628331 81.42357755 C31.50506372 81.44539911 35.03380051 81.47280647 38.56254578 81.49963379 C45.24902327 81.54961263 51.93552491 81.59453212 58.62204975 81.63765615 C66.23259773 81.68698426 73.84310197 81.74191875 81.45360768 81.79733574 C97.11297421 81.91123546 112.77238072 82.01731679 128.43182373 82.12025452 C128.43182373 90.70025452 128.43182373 99.28025452 128.43182373 108.12025452 C111.1503605 108.21071699 93.86910087 108.28433052 76.58746624 108.3275032 C68.56243572 108.34808614 60.53756329 108.3761245 52.51263428 108.42201233 C45.51415944 108.46201148 38.51579915 108.48771833 31.51721317 108.4966085 C27.81503376 108.50180126 24.11318193 108.51391562 20.41110802 108.54317474 C16.26772199 108.57565297 12.12489735 108.5762056 7.98138428 108.57435608 C6.76793335 108.58873718 5.55448242 108.60311829 4.30426025 108.61793518 C-5.57664196 108.570385 -14.81380072 106.7592682 -22.20098877 99.76087952 C-26.93309418 94.08235302 -27.68480381 86.97806868 -27.72930908 79.83631897 C-27.73891663 78.58764542 -27.74852417 77.33897186 -27.75842285 76.05245972 C-27.76327272 74.69615361 -27.76755108 73.33984536 -27.77130127 71.98353577 C-27.77412865 71.29451864 -27.77695602 70.60550152 -27.77986908 69.89560509 C-27.79482825 66.24660742 -27.80407734 62.59764893 -27.80841064 58.94862366 C-27.813879 55.20432171 -27.83788137 51.46038638 -27.8663826 47.71619892 C-27.88513384 44.81545004 -27.89022124 41.91478711 -27.89174652 39.01398277 C-27.89474739 37.63505749 -27.90268768 36.25613278 -27.9159317 34.87726784 C-28.00775747 24.57902419 -27.81004043 14.46413052 -20.38067627 6.58900452 C-14.52816324 1.84645085 -7.39255409 -0.00692187 0 0 Z " fill="#009228" transform="translate(1462.5681762695313,141.87974548339844)"/>
<path d="M0 0 C1.30843872 -0.00043808 2.61687744 -0.00087616 3.96496582 -0.00132751 C7.52223808 -0.00218176 11.07920156 0.01535034 14.63640261 0.03639436 C18.36528198 0.05525734 22.09416987 0.05691913 25.8230896 0.06047058 C32.8706017 0.06976298 39.91797275 0.09433836 46.96542299 0.12451905 C54.99450272 0.15815089 63.02358949 0.17457106 71.05272222 0.18960536 C87.55656514 0.22089076 104.06021398 0.27586729 120.56396484 0.34057617 C120.56396484 8.92057617 120.56396484 17.50057617 120.56396484 26.34057617 C78.32396484 26.67057617 36.08396484 27.00057617 -7.43603516 27.34057617 C-7.43603516 45.16057617 -7.43603516 62.98057617 -7.43603516 81.34057617 C34.80396484 81.67057617 77.04396484 82.00057617 120.56396484 82.34057617 C120.56396484 90.92057617 120.56396484 99.50057617 120.56396484 108.34057617 C103.26523563 108.40840205 85.96662062 108.46362119 68.66779518 108.49601269 C60.63492687 108.51145506 52.60214728 108.53249403 44.56933594 108.56689453 C37.56464525 108.5968777 30.56001886 108.61617027 23.55526578 108.62284166 C19.8492692 108.62673888 16.14345649 108.63584242 12.43751907 108.65776634 C8.29159783 108.68209224 4.14599246 108.68254047 0 108.68115234 C-1.2170462 108.69193817 -2.43409241 108.702724 -3.6880188 108.71383667 C-12.6345217 108.68150762 -21.50250181 107.96111982 -28.37353516 101.65307617 C-29.08380859 101.03045898 -29.79408203 100.4078418 -30.52587891 99.76635742 C-36.63143565 92.01267493 -35.89408279 82.92683908 -35.86962891 73.56323242 C-35.87419793 72.02680736 -35.87950563 70.49038434 -35.88551331 68.95396423 C-35.89441492 65.74396427 -35.89205518 62.53421349 -35.88208008 59.32421875 C-35.87059371 55.23110742 -35.89081107 51.13885928 -35.91999722 47.04586124 C-35.93843192 43.87575408 -35.9380524 40.70585103 -35.9323597 37.53570366 C-35.93220737 36.02756985 -35.93817766 34.51942142 -35.95065117 33.01133919 C-36.01776094 23.56895187 -35.61359644 15.72215075 -29.64697266 8.03588867 C-29.04111328 7.51768555 -28.43525391 6.99948242 -27.81103516 6.46557617 C-27.22064453 5.9319043 -26.63025391 5.39823242 -26.02197266 4.84838867 C-17.85366267 0.08559765 -9.22846719 -0.08178544 0 0 Z " fill="#019228" transform="translate(926.43603515625,141.659423828125)"/>
<path d="M0 0 C1.06705673 -0.00137466 2.13411346 -0.00274933 3.23350525 -0.00416565 C4.97383026 0.00122726 4.97383026 0.00122726 6.74931335 0.00672913 C7.97899338 0.0065831 9.2086734 0.00643707 10.47561646 0.00628662 C13.83887367 0.00686312 17.20206919 0.01187182 20.56531549 0.01886058 C24.08336724 0.02511996 27.60141985 0.02569996 31.11947632 0.02688599 C37.77751956 0.02999168 44.43554634 0.0381948 51.09358233 0.04823548 C58.67517206 0.05942027 66.25676259 0.06491303 73.83835852 0.06993091 C89.43067688 0.08037805 105.02297257 0.09871406 120.61528015 0.12025452 C120.61528015 8.70025452 120.61528015 17.28025452 120.61528015 26.12025452 C115.17825623 26.1421283 115.17825623 26.1421283 109.63139343 26.16444397 C97.68108189 26.21468795 85.73091239 26.28111281 73.78073311 26.35596943 C66.53240027 26.40097543 59.2841171 26.44037882 52.03569031 26.46669006 C45.71950393 26.48963145 39.40347409 26.52298575 33.08741176 26.56895608 C29.7416677 26.59294085 26.39607915 26.61163497 23.05025101 26.61786842 C19.31924873 26.6274339 15.58881895 26.65540262 11.85795593 26.68788147 C10.74305786 26.68644638 9.62815979 26.68501129 8.47947693 26.68353271 C6.96080521 26.70233994 6.96080521 26.70233994 5.41145325 26.7215271 C4.52837557 26.72613606 3.64529789 26.73074503 2.73546028 26.73549366 C2.03580084 26.86246474 1.3361414 26.98943583 0.61528015 27.12025452 C-2.44806154 31.19127376 -2.44806154 31.19127376 -2.38471985 42.12025452 C38.20528015 42.12025452 78.79528015 42.12025452 120.61528015 42.12025452 C120.61528015 51.03025452 120.61528015 59.94025452 120.61528015 69.12025452 C80.02528015 69.12025452 39.43528015 69.12025452 -2.38471985 69.12025452 C-2.38471985 82.32025452 -2.38471985 95.52025452 -2.38471985 109.12025452 C-11.29471985 109.12025452 -20.20471985 109.12025452 -29.38471985 109.12025452 C-29.47529625 97.68881535 -29.54859451 86.25761678 -29.59196854 74.82589912 C-29.61279193 69.51698029 -29.64101342 64.20832093 -29.68647766 58.89955139 C-29.7301229 53.77075037 -29.75389638 48.64219804 -29.76422882 43.51322556 C-29.77158675 41.56210799 -29.78595475 39.61100315 -29.80764008 37.65999222 C-30.04472972 15.43366023 -30.04472972 15.43366023 -23.73731995 8.24186707 C-17.36516492 2.04262443 -8.6717442 -0.00864581 0 0 Z " fill="#E1001B" transform="translate(432.3847198486328,-0.1202545166015625)"/>
<path d="M0 0 C45.75719424 0 45.75719424 0 58.5 12.1875 C62.08856471 15.94067777 65.29434336 19.99943027 68.546875 24.04296875 C71.10493088 27.12648516 73.77027804 30.06967478 76.5 33 C80.76943449 37.58735541 84.75760293 42.33444935 88.6875 47.21875 C91.63837521 50.76777559 94.75972827 54.13475472 97.9074707 57.50854492 C100.98806415 60.83204481 103.86596959 64.26251939 106.6875 67.8125 C113.43559305 76.11876729 117.53314539 79.51104846 128 83 C128 55.61 128 28.22 128 0 C136.58 0 145.16 0 154 0 C154 35.97 154 71.94 154 109 C107.89113766 109 107.89113766 109 95.4375 96.875 C91.07169752 92.37579165 87.08549574 87.58322864 83.1796875 82.68359375 C81.03182145 80.03917802 78.79688827 77.5154503 76.5 75 C72.58108748 70.70008209 68.90829131 66.24080453 65.25 61.71875 C63.06498431 59.07852271 60.80828609 56.5327028 58.5 54 C55.30909794 50.49670193 52.24649283 46.92119983 49.25 43.25 C48.50105469 42.33476563 47.75210937 41.41953125 46.98046875 40.4765625 C45.84681286 39.05893364 44.73171196 37.62487159 43.67578125 36.1484375 C39.44000058 30.35210605 32.7717144 27.6929286 26 26 C26 53.39 26 80.78 26 109 C17.42 109 8.84 109 0 109 C0 73.03 0 37.06 0 0 Z " fill="#E2001B" transform="translate(979,0)"/>
<path d="M0 0 C49.83 0 99.66 0 151 0 C151 8.58 151 17.16 151 26 C130.87 26 110.74 26 90 26 C90 53.06 90 80.12 90 108 C80.76 108 71.52 108 62 108 C62 80.94 62 53.88 62 26 C41.54 26 21.08 26 0 26 C0 17.42 0 8.84 0 0 Z " fill="#019128" transform="translate(1060,142)"/>
<path d="M0 0 C8.91 0 17.82 0 27 0 C27.02505615 2.41820068 27.0501123 4.83640137 27.07592773 7.32788086 C27.15923414 15.29873982 27.24794127 23.269532 27.33933926 31.24030209 C27.39461127 36.07513537 27.44803797 40.90997465 27.49731445 45.74487305 C27.54489507 50.40682484 27.59723533 55.06870067 27.65294075 59.73056221 C27.67339296 61.51322105 27.6921012 63.29590075 27.70907402 65.07859612 C27.73305486 67.56671601 27.7631176 70.05469098 27.79467773 72.54272461 C27.80331093 73.65942032 27.80331093 73.65942032 27.81211853 74.79867554 C27.5644931 78.18713483 27.5644931 78.18713483 29 81 C30.56846119 81.10805665 32.14174465 81.14683786 33.71388245 81.15821838 C34.73336975 81.1680072 35.75285706 81.17779602 36.80323792 81.18788147 C38.49500404 81.19651466 38.49500404 81.19651466 40.22094727 81.20532227 C41.40127533 81.21522186 42.58160339 81.22512146 43.79769897 81.23532104 C47.04339119 81.26157079 50.28907795 81.28340717 53.53481412 81.30332303 C56.92345952 81.32514552 60.31205952 81.35255243 63.70066833 81.37937927 C70.1215251 81.42935686 76.542407 81.47427682 82.96331304 81.51740164 C90.27157049 81.56673081 97.5797824 81.62166491 104.88799584 81.67708123 C119.92528966 81.79097902 134.96262642 81.89706097 150 82 C150 90.58 150 99.16 150 108 C133.48357334 108.0678357 116.96726639 108.12305069 100.45073891 108.15543652 C92.78107322 108.17087644 85.11150052 108.19191065 77.44189453 108.22631836 C70.75363009 108.25630911 64.06543303 108.27559588 57.37710321 108.28226548 C53.8387768 108.28616144 50.30064308 108.29525672 46.76237869 108.31719017 C42.80330158 108.34153098 38.84440945 108.3419638 34.88525391 108.34057617 C33.72431213 108.351362 32.56337036 108.36214783 31.36724854 108.3732605 C22.59570061 108.3400966 13.56996597 107.31526332 6.52226257 101.58309937 C-2.08420225 92.63267962 -0.64628811 80.83986715 -0.48828125 69.3359375 C-0.47894272 67.33241665 -0.47183153 65.3288843 -0.46684265 63.3253479 C-0.44785473 58.08082939 -0.39882532 52.83701565 -0.34332275 47.59277344 C-0.29195243 42.22991466 -0.26929078 36.86694075 -0.24414062 31.50390625 C-0.19069784 21.00224648 -0.10282977 10.50129242 0 0 Z " fill="#009228" transform="translate(567,142)"/>
<path d="M0 0 C8.91 0 17.82 0 27 0 C27 35.97 27 71.94 27 109 C18.09 109 9.18 109 0 109 C0 73.03 0 37.06 0 0 Z " fill="#E1001B" transform="translate(939,0)"/>
<path d="M0 0 C8.91 0 17.82 0 27 0 C27 35.97 27 71.94 27 109 C18.09 109 9.18 109 0 109 C0 73.03 0 37.06 0 0 Z " fill="#E1001B" transform="translate(728,0)"/>
<path d="M0 0 C8.91 0 17.82 0 27 0 C27 35.64 27 71.28 27 108 C18.09 108 9.18 108 0 108 C0 72.36 0 36.72 0 0 Z " fill="#019228" transform="translate(1396,142)"/>
</svg>
