<?xml version="1.0" encoding="utf-8"?>
<!-- Generator: Adobe Illustrator 25.0.0, SVG Export Plug-In . SVG Version: 6.00 Build 0)  -->
<svg version="1.1" id="Layer_1" xmlns="http://www.w3.org/2000/svg" xmlns:xlink="http://www.w3.org/1999/xlink" x="0px" y="0px"
	 viewBox="0 0 365.3 53.9" style="enable-background:new 0 0 365.3 53.9;" xml:space="preserve">
<style type="text/css">
	.st0{fill-rule:evenodd;clip-rule:evenodd;fill:#009328;}
	.st1{fill-rule:evenodd;clip-rule:evenodd;fill:#E4001C;}
</style>
<path class="st0" d="M306.6,25.4h-3.3l-2.1,8c-0.6,2.3-2.2,6.7,0,7.6H297c-2.4,0-4.3-0.5-5.7-1.6c-1.6-1.3-2.1-3-1.5-5.3l2.3-8.8
	l-1.6-6.4h3.3l1.5-5.9h11.2L305,19h3.3h0.5h8.8l-0.3,1.2c0.7-0.5,1.7-0.9,2.9-1.3c1.2-0.3,2.3-0.5,3.2-0.5c3.1,0,5.2,0.6,6.4,1.7
	c1.9-0.8,4-1.1,6.5-1.1l-5.7,22.1h-11l3.3-12.8c1.3-4,3.5-6.6,6.5-8c-5.6,0-10.7,3.2-11.8,7.6l-3.4,13.2h-11.4L306.6,25.4z
	 M209.8,27.8c0-1.6-1-2.4-3-2.4c-2,0-3.5,0.8-4.3,2.4H209.8z M250.1,27.8c0-1.6-1-2.4-3-2.4c-2,0-3.5,0.8-4.3,2.4H250.1z
	 M259.1,31.4h-17.4c-1.3,5.7,9.3,6.4,16.1,5.7c-2.7,1.7-4.8,2.9-6.5,3.4c-2,0.7-4.7,1-7.9,1c-4.3,0-7.6-0.8-9.9-2.5
	c-2.1-1.5-3.1-3.4-3.1-5.9l-0.2,0.8c-0.3,1.8-0.1,6.1,3.9,7.8c-5,0.4-12-0.7-14.1-2.7c-1.2-1.1-1.5-2.7-0.9-4.9l0.7-2.8h-18.4
	c-1.3,5.7,9.3,6.4,16.1,5.7c-2.7,1.7-4.8,2.9-6.5,3.4c-2,0.7-4.7,1-7.9,1c-4.3,0-7.6-0.8-9.9-2.5c-2.8-2-3.8-5-2.7-8.9
	c1-3.7,3.4-6.6,7.3-8.8c3.3-1.8,6.9-2.7,10.9-2.7c4.3,0,7.5,1,9.7,3c1.6,1.5,2.5,3.4,2.5,5.7l4.5-17.5h11l-4.5,17.3
	c1.3-2.4,3.3-4.4,6.2-5.9c3.3-1.8,6.9-2.7,10.9-2.7c4.3,0,7.5,1,9.7,3c1.4,1.2,2.2,2.8,2.5,4.6c1.4-2.1,3.3-3.9,6-5.2
	c3.3-1.6,7.1-2.4,11.4-2.4c2.9,0,5.3,0.3,7.2,1c1.9,0.7,3.7,1.9,5.5,3.7l-8.9,5.1c-1.2-1.5-3-2.3-5.5-2.3c-1.3,0-2.6,0.3-3.8,0.9
	c-1.4,0.7-2.2,1.7-2.6,2.9c-0.3,1.3,0,2.2,1,3c0.9,0.6,2,0.9,3.3,0.9c9,0,2.9-5.4,13.1,2.8c-2.8,1.8-5.3,3-7.5,3.7
	c-2.2,0.7-4.9,1-7.8,1c-4.4,0-7.8-0.8-10.2-2.4C259.5,37.4,258.5,34.8,259.1,31.4z M362,36.8c-2.8,1.8-5.3,3-7.5,3.7
	c-2.2,0.7-4.9,1-7.8,1c-4.4,0-7.8-0.8-10.2-2.4c-3-2-3.9-5-2.9-9.1c1-4,3.6-7,7.6-9c3.3-1.6,7.1-2.4,11.4-2.4c2.9,0,5.3,0.3,7.2,1
	c1.9,0.7,3.7,1.9,5.5,3.7l-8.9,5.1c-1.2-1.5-3-2.3-5.5-2.3c-1.3,0-2.6,0.3-3.8,0.9c-1.4,0.7-2.2,1.7-2.6,2.9c-0.3,1.3,0,2.2,1,3
	c0.9,0.6,2,0.9,3.3,0.9c2.6,0,4.8-0.8,6.8-2.3L362,36.8z"/>
<path class="st1" d="M136.2,27.3c0.2-1-0.4-1.4-1.9-1.4c-1.6,0-2.5,0.5-2.8,1.4c-0.1,0.5,0.1,0.8,0.6,1.1c0.4,0.2,0.9,0.3,1.4,0.3
	c0.5,0,1-0.1,1.6-0.4C135.7,28.1,136.1,27.8,136.2,27.3 M145.4,41.3c-0.9,3.3-3.3,5.7-7.4,7.3c-3.1,1.2-6.5,1.8-10.2,1.8
	c-3.3,0-6.1-0.4-8.4-1.3c-3.2-1.3-4.5-3.2-3.8-5.9c0.2-0.9,0.7-1.8,1.3-2.7c1.1,3.2,10.3,3.2,12.8,3.2c3.2,0,5-0.6,5.3-1.7
	c0.1-0.5-0.5-0.7-2-0.7c-0.7,0-1.5,0-2.6,0.1c-1.1,0.1-1.7,0.1-1.8,0.1c-2.5,0-4.7-0.3-6.5-1c-2.6-0.9-3.7-2.4-3.2-4.3
	c0.3-1.1,1.4-2.4,3.2-3.8c-1.3-1.4-1.8-3-1.3-5c0.8-3.1,2.9-5.4,6.4-6.9c2.7-1.2,5.7-1.7,9.1-1.7c2.4,0,4.5,0.3,6.3,0.9
	c3.9,0.5,5.2,0,8.7-1.4c-0.7,2.9-2.1,4.8-4.2,5.9c0.2,0.8,0.1,1.9-0.3,3.3c-0.8,2.9-2.9,5.1-6.6,6.5c-2.7,1.1-5.8,1.7-9.1,1.7
	c-1.5,0-2.8-0.2-3.8-0.7c-0.2,0.1-0.4,0.3-0.6,0.7c-0.2,0.7,0.5,1.1,2.1,1.1c1,0,2.6-0.2,4.8-0.5c2.2-0.3,3.8-0.5,4.8-0.5
	c2.2,0,3.9,0.4,5.2,1.2C145.4,37.7,145.9,39.2,145.4,41.3z M156.7,41.1h-11l3.3-12.8c2.1-6.6,6.8-9.3,13.4-9.2L156.7,41.1z M62.3,19
	h4.4l-2.2,8.7L62.3,19z M97.4,27.8c0-1.6-1-2.4-3-2.4c-2,0-3.5,0.8-4.3,2.4H97.4z M107.6,31.4H88.9c-1.3,5.7,9.3,6.4,16.1,5.7
	c-2.7,1.7-4.8,2.9-6.5,3.4c-2,0.7-4.7,1-7.9,1c-4.3,0-7.6-0.8-9.9-2.5c-2.8-2-3.8-5-2.7-8.9c0.5-1.8,1.3-3.4,2.4-4.8h-2.7l-4.1,15.8
	h-11L68.3,19c1-4,2.8-6.6,5.3-7.9c1.7-0.8,4.9-1.3,9.3-1.3h2.2c-3,1.4-4.3,2.9-5.6,8L79.3,19h3l-1.5,5.8c1.2-1.3,2.7-2.5,4.5-3.5
	c3.3-1.8,6.9-2.7,10.9-2.7c4.3,0,7.5,1,9.7,3c1.9,1.8,2.8,4.1,2.5,7.1l0.1-0.5c2.1-6.6,6.8-9.3,13.4-9.2l-5.7,22.1h-11L107.6,31.4z
	 M186.2,41.1h-11.4l3.1-11.9c0.5-2-0.1-3-1.9-3c-0.6,0-1.1,0.2-1.7,0.7c-0.6,0.5-1,1-1.1,1.6l-3.3,12.6h-11.4l5.7-22.1h8.8l-0.3,1.1
	c0.9-0.5,2.1-0.9,3.5-1.3c1.4-0.4,2.6-0.5,3.5-0.5c3.6,0,6.3,0.9,8.1,2.6c2,2,2.5,4.7,1.5,8.3L186.2,41.1z"/>
<path class="st0" d="M53.3,23.9c-7.2-1.6-15.1-1.6-17.9,6c5.7-4.1,13.8-2.4,17.3,0.1c-0.5,2.3-1.2,4.5-2.2,6.6
	c-6.4-5-15.1-2-20.8,4.8c5.9-4.4,13.7-4.6,17.6,0.6c-5.4,7.2-13.8,11.9-22.9,12c-6-0.1-11.4-2.1-15.6-5.6c-0.1-0.1-0.2-0.2-0.3-0.2
	c3.3-8.2,11.3-8.6,16.8-14c1.9-1.9,3.3-3.9,4.2-6.3c1-2.8,2.8-5.4,5.5-7.6c4.1-3.4,12.3-3.9,17.5-2.4C53,19.7,53.3,21.8,53.3,23.9"
	/>
<path class="st1" d="M28.9,0c-0.2,0-0.5,0-0.7,0c-0.2,0-0.5,0-0.7,0c-0.2,0-0.5,0-0.7,0c-0.2,0-0.5,0-0.7,0.1c-0.2,0-0.5,0-0.7,0.1
	c-0.2,0-0.4,0.1-0.7,0.1c-0.2,0-0.4,0.1-0.7,0.1c-0.2,0-0.4,0.1-0.7,0.1c-0.2,0-0.4,0.1-0.7,0.1c-0.2,0-0.4,0.1-0.7,0.2h0
	C21.9,0.9,21.7,1,21.5,1h0c-0.2,0.1-0.4,0.1-0.6,0.2c-0.2,0.1-0.4,0.1-0.6,0.2c-0.2,0.1-0.4,0.1-0.6,0.2c-0.2,0.1-0.4,0.2-0.6,0.2h0
	c-0.2,0.1-0.4,0.2-0.6,0.2c-0.2,0.1-0.4,0.2-0.6,0.3c-0.2,0.1-0.4,0.2-0.6,0.3s-0.4,0.2-0.6,0.3h0c-0.2,0.1-0.4,0.2-0.6,0.3h0
	c-0.2,0.1-0.4,0.2-0.6,0.3c-0.2,0.1-0.4,0.2-0.6,0.3c-0.2,0.1-0.4,0.2-0.6,0.3s-0.4,0.2-0.6,0.4h0c-0.2,0.1-0.4,0.2-0.6,0.4
	c-0.2,0.1-0.4,0.3-0.5,0.4c-0.2,0.1-0.4,0.3-0.5,0.4c-0.2,0.1-0.4,0.3-0.5,0.4h0c-0.2,0.1-0.3,0.3-0.5,0.4c-0.2,0.1-0.3,0.3-0.5,0.4
	c-0.2,0.1-0.3,0.3-0.5,0.4h0C9.7,7.5,9.6,7.7,9.4,7.8C9.2,8,9.1,8.2,8.9,8.3h0C8.8,8.5,8.6,8.6,8.4,8.8C8.3,8.9,8.1,9.1,8,9.3
	C7.8,9.4,7.7,9.6,7.5,9.7c-0.1,0.2-0.3,0.3-0.4,0.5h0c-0.1,0.2-0.3,0.3-0.4,0.5c-0.1,0.2-0.3,0.3-0.4,0.5h0
	c-0.1,0.2-0.3,0.4-0.4,0.5c-0.1,0.2-0.3,0.4-0.4,0.5c-0.1,0.2-0.3,0.4-0.4,0.5c-0.1,0.2-0.3,0.4-0.4,0.6c-0.1,0.2-0.2,0.4-0.4,0.6
	c-0.1,0.2-0.2,0.4-0.3,0.6c-0.1,0.2-0.2,0.4-0.3,0.6c-0.1,0.2-0.2,0.4-0.3,0.6C3.2,16,3.1,16.2,3,16.4c-0.1,0.2-0.2,0.4-0.3,0.6
	c-0.1,0.2-0.2,0.4-0.3,0.6c-0.1,0.2-0.2,0.4-0.3,0.6c-0.1,0.2-0.2,0.4-0.3,0.6c-0.1,0.2-0.2,0.4-0.2,0.6c-0.1,0.2-0.2,0.4-0.2,0.6
	c-0.1,0.2-0.1,0.4-0.2,0.6c-0.1,0.2-0.1,0.4-0.2,0.7C1,21.6,0.9,21.8,0.9,22c-0.1,0.2-0.1,0.4-0.2,0.7c-0.1,0.2-0.1,0.4-0.1,0.7
	c0,0.2-0.1,0.4-0.1,0.7l-0.1,0.3l0,0l0,0l0,0l0,0l0,0l0,0l0,0l0,0l0,0l0,0l0,0l0,0.1l0,0v0l0,0l0,0l0,0l0,0l0,0l0,0l0,0l0,0l0,0l0,0
	l0,0l0,0l0,0l0,0l0,0v0l0,0l0,0l0,0l0,0l0,0l0,0l0,0l0,0l0,0l0,0l0,0l0,0l0,0l0,0l0,0l0,0l0,0l0,0l0,0l0,0l0,0.1l0,0l0,0l0,0l0,0
	l0,0l0,0l0,0l0,0.1l0,0l0,0l0,0l0,0l0,0l0,0l0,0l0,0l0,0l0,0l0,0l0,0l0,0l0,0l0,0l0,0v0l0,0l0,0l0,0l0,0l0,0l0,0l0,0l0,0.1l0,0l0,0
	l0,0l0,0l0,0.1l0,0l0,0l0,0l0,0l0,0l0,0l0,0l0,0l0,0l0,0l0,0l0,0l0,0l0,0l0,0l0,0l0,0l0,0l0,0l0,0l0,0l0,0l0,0l0,0l0,0l0,0l0,0l0,0
	l0,0l0,0l0,0v0l0,0l0,0l0,0l0,0l0,0l0,0l0,0l0,0l0,0l0,0l0,0l0,0l0,0l0,0l0,0v0l0,0l0,0l0,0l0,0l0,0l0,0l0,0l0,0l0,0l0,0l0,0l0,0
	l0,0l0,0l0,0l0,0l0,0l0,0l0,0l0,0l0,0l0,0l0,0l0,0l0,0l0,0l0,0l0,0l0,0l0,0l0,0l0,0l0,0l0,0l0,0l0,0l0,0l0,0l0,0l0,0l0,0l0,0l0,0
	l0,0l0,0l0,0v0l0,0l0,0l0,0l0,0l0,0l0,0l0,0l0,0l0,0l0,0l0,0l0,0l0,0l0,0l0,0c-0.5,6,1.1,11.6,4.1,16.1c4.5-10.5,17.6-9.4,19.5-18.1
	c-0.7-4.4-10.6-8.4-16.6-3.3c5.4-8.4,15.6-7.6,19.1-1.9c7.6-8.2,15-8.4,23.2-8.5C45.2,4.6,38,0.2,29.6,0v0C29.4,0,29.1,0,28.9,0"/>
</svg>
