<svg id="visual" viewBox="0 0 960 100" width="960" height="100" xmlns="http://www.w3.org/2000/svg" xmlns:xlink="http://www.w3.org/1999/xlink" version="1.1"><path d="M0 15L10.7 15.8C21.3 16.7 42.7 18.3 64 18C85.3 17.7 106.7 15.3 128 14.3C149.3 13.3 170.7 13.7 192 15.2C213.3 16.7 234.7 19.3 256 20C277.3 20.7 298.7 19.3 320 18.7C341.3 18 362.7 18 384 18C405.3 18 426.7 18 448 17.3C469.3 16.7 490.7 15.3 512 15.8C533.3 16.3 554.7 18.7 576 19.2C597.3 19.7 618.7 18.3 640 18.5C661.3 18.7 682.7 20.3 704 20.7C725.3 21 746.7 20 768 19C789.3 18 810.7 17 832 15.8C853.3 14.7 874.7 13.3 896 12.7C917.3 12 938.7 12 949.3 12L960 12L960 101L949.3 101C938.7 101 917.3 101 896 101C874.7 101 853.3 101 832 101C810.7 101 789.3 101 768 101C746.7 101 725.3 101 704 101C682.7 101 661.3 101 640 101C618.7 101 597.3 101 576 101C554.7 101 533.3 101 512 101C490.7 101 469.3 101 448 101C426.7 101 405.3 101 384 101C362.7 101 341.3 101 320 101C298.7 101 277.3 101 256 101C234.7 101 213.3 101 192 101C170.7 101 149.3 101 128 101C106.7 101 85.3 101 64 101C42.7 101 21.3 101 10.7 101L0 101Z" fill="#ffffff"></path><path d="M0 27L10.7 26.8C21.3 26.7 42.7 26.3 64 27.2C85.3 28 106.7 30 128 30.5C149.3 31 170.7 30 192 29.5C213.3 29 234.7 29 256 29.3C277.3 29.7 298.7 30.3 320 31.8C341.3 33.3 362.7 35.7 384 36.3C405.3 37 426.7 36 448 35.2C469.3 34.3 490.7 33.7 512 33.3C533.3 33 554.7 33 576 32.3C597.3 31.7 618.7 30.3 640 29.7C661.3 29 682.7 29 704 28.7C725.3 28.3 746.7 27.7 768 28.3C789.3 29 810.7 31 832 31.7C853.3 32.3 874.7 31.7 896 31.3C917.3 31 938.7 31 949.3 31L960 31L960 101L949.3 101C938.7 101 917.3 101 896 101C874.7 101 853.3 101 832 101C810.7 101 789.3 101 768 101C746.7 101 725.3 101 704 101C682.7 101 661.3 101 640 101C618.7 101 597.3 101 576 101C554.7 101 533.3 101 512 101C490.7 101 469.3 101 448 101C426.7 101 405.3 101 384 101C362.7 101 341.3 101 320 101C298.7 101 277.3 101 256 101C234.7 101 213.3 101 192 101C170.7 101 149.3 101 128 101C106.7 101 85.3 101 64 101C42.7 101 21.3 101 10.7 101L0 101Z" fill="#ffcec5"></path><path d="M0 46L10.7 46.2C21.3 46.3 42.7 46.7 64 47.7C85.3 48.7 106.7 50.3 128 51.5C149.3 52.7 170.7 53.3 192 53.7C213.3 54 234.7 54 256 53.8C277.3 53.7 298.7 53.3 320 52.7C341.3 52 362.7 51 384 49.3C405.3 47.7 426.7 45.3 448 44.5C469.3 43.7 490.7 44.3 512 45.2C533.3 46 554.7 47 576 47.3C597.3 47.7 618.7 47.3 640 48.3C661.3 49.3 682.7 51.7 704 52.7C725.3 53.7 746.7 53.3 768 51.8C789.3 50.3 810.7 47.7 832 46.5C853.3 45.3 874.7 45.7 896 46.8C917.3 48 938.7 50 949.3 51L960 52L960 101L949.3 101C938.7 101 917.3 101 896 101C874.7 101 853.3 101 832 101C810.7 101 789.3 101 768 101C746.7 101 725.3 101 704 101C682.7 101 661.3 101 640 101C618.7 101 597.3 101 576 101C554.7 101 533.3 101 512 101C490.7 101 469.3 101 448 101C426.7 101 405.3 101 384 101C362.7 101 341.3 101 320 101C298.7 101 277.3 101 256 101C234.7 101 213.3 101 192 101C170.7 101 149.3 101 128 101C106.7 101 85.3 101 64 101C42.7 101 21.3 101 10.7 101L0 101Z" fill="#fc9d8d"></path><path d="M0 68L10.7 67.8C21.3 67.7 42.7 67.3 64 67.5C85.3 67.7 106.7 68.3 128 68.5C149.3 68.7 170.7 68.3 192 67.5C213.3 66.7 234.7 65.3 256 64C277.3 62.7 298.7 61.3 320 62C341.3 62.7 362.7 65.3 384 65.2C405.3 65 426.7 62 448 61.3C469.3 60.7 490.7 62.3 512 64.3C533.3 66.3 554.7 68.7 576 68.3C597.3 68 618.7 65 640 63.5C661.3 62 682.7 62 704 63.5C725.3 65 746.7 68 768 67.8C789.3 67.7 810.7 64.3 832 62.8C853.3 61.3 874.7 61.7 896 63.5C917.3 65.3 938.7 68.7 949.3 70.3L960 72L960 101L949.3 101C938.7 101 917.3 101 896 101C874.7 101 853.3 101 832 101C810.7 101 789.3 101 768 101C746.7 101 725.3 101 704 101C682.7 101 661.3 101 640 101C618.7 101 597.3 101 576 101C554.7 101 533.3 101 512 101C490.7 101 469.3 101 448 101C426.7 101 405.3 101 384 101C362.7 101 341.3 101 320 101C298.7 101 277.3 101 256 101C234.7 101 213.3 101 192 101C170.7 101 149.3 101 128 101C106.7 101 85.3 101 64 101C42.7 101 21.3 101 10.7 101L0 101Z" fill="#ef6958"></path><path d="M0 86L10.7 85.8C21.3 85.7 42.7 85.3 64 85.3C85.3 85.3 106.7 85.7 128 85.8C149.3 86 170.7 86 192 85.5C213.3 85 234.7 84 256 83.3C277.3 82.7 298.7 82.3 320 82.5C341.3 82.7 362.7 83.3 384 82.8C405.3 82.3 426.7 80.7 448 81.2C469.3 81.7 490.7 84.3 512 84.2C533.3 84 554.7 81 576 81C597.3 81 618.7 84 640 84C661.3 84 682.7 81 704 80.3C725.3 79.7 746.7 81.3 768 81.8C789.3 82.3 810.7 81.7 832 81.3C853.3 81 874.7 81 896 81.2C917.3 81.3 938.7 81.7 949.3 81.8L960 82L960 101L949.3 101C938.7 101 917.3 101 896 101C874.7 101 853.3 101 832 101C810.7 101 789.3 101 768 101C746.7 101 725.3 101 704 101C682.7 101 661.3 101 640 101C618.7 101 597.3 101 576 101C554.7 101 533.3 101 512 101C490.7 101 469.3 101 448 101C426.7 101 405.3 101 384 101C362.7 101 341.3 101 320 101C298.7 101 277.3 101 256 101C234.7 101 213.3 101 192 101C170.7 101 149.3 101 128 101C106.7 101 85.3 101 64 101C42.7 101 21.3 101 10.7 101L0 101Z" fill="#dc2626"></path></svg>