<?xml version="1.0" encoding="utf-8" standalone="yes"?>
<!DOCTYPE svg PUBLIC "-//W3C//DTD SVG 1.1//EN" "http://www.w3.org/Graphics/SVG/1.1/DTD/svg11.dtd">
<svg width="588" height="486" viewBox="0 0 588 486" style="fill:none;stroke:none;fill-rule:evenodd;clip-rule:evenodd;stroke-linecap:round;stroke-linejoin:round;stroke-miterlimit:1.5;" version="1.1" xmlns="http://www.w3.org/2000/svg" xmlns:xlink="http://www.w3.org/1999/xlink"><style id="fontImports">@import url("https://fonts.googleapis.com/css2?family=Roboto:wght@400;700&amp;display=block");</style><g id="items" style="isolation: isolate"><g id="blend" style="mix-blend-mode:normal"><g id="g-root--1.cu_sy_18f2uis7ta8lm-fill" data-item-order="999879753" data-item-id="-1.cu_sy_18f2uis7ta8lm" data-item-class="Part Stroke ColorStrokeGray" data-item-index="-1" data-renderer-id="0" transform="translate(125.39523315429688, 68)"></g><g id="g-root--1.cu_sy_18f2uis7ta8lm-fill" data-item-order="999879753" data-item-id="-1.cu_sy_18f2uis7ta8lm" data-item-class="Part Stroke ColorStrokeGray" data-item-index="-1" data-renderer-id="0" transform="translate(125.39523315429688, 68)"></g><g id="g-root-0.cu_sy_v3mc5g7taa6j-fill" data-item-order="999879754" data-item-id="0.cu_sy_v3mc5g7taa6j" data-item-class="Part Indexed_0 Fill Stroke" data-item-index="0" data-renderer-id="0" transform="translate(229.523193359375, 169.523193359375)"><g id="0.cu_sy_v3mc5g7taa6j-fill" stroke="none" fill="#fffce6"><g><path d="M 108.811407 46.112807C 118.953807 70.598107 107.326107 98.669307 82.840807 108.811407C 58.355507 118.953807 30.284307 107.326107 20.142207 82.840807C 10.000007 58.355507 21.627507 30.284307 46.112807 20.142207C 70.598107 10.000007 98.669307 21.627507 108.811407 46.112807Z"></path></g></g></g><g id="g-root-0.cu_sy_v3mc5g7taa6j-fill" data-item-order="999879754" data-item-id="0.cu_sy_v3mc5g7taa6j" data-item-class="Part Indexed_0 Fill Stroke" data-item-index="0" data-renderer-id="0" transform="translate(229.523193359375, 169.523193359375)"><g id="0.cu_sy_v3mc5g7taa6j-fill" stroke="none" fill="#fffce6"><g><path d="M 108.811407 46.112807C 118.953807 70.598107 107.326107 98.669307 82.840807 108.811407C 58.355507 118.953807 30.284307 107.326107 20.142207 82.840807C 10.000007 58.355507 21.627507 30.284307 46.112807 20.142207C 70.598107 10.000007 98.669307 21.627507 108.811407 46.112807Z"></path></g></g></g><g id="g-root-5.cu_sy_1lrsb2c7ta96w-fill" data-item-order="999879756" data-item-id="5.cu_sy_1lrsb2c7ta96w" data-item-class="Part Indexed Fill Stroke" data-item-index="5" data-renderer-id="0" transform="translate(166.7615966796875, 70.7615966796875)"><g id="5.cu_sy_1lrsb2c7ta96w-fill" stroke="none" fill="#ebe6ff"><g><path d="M 28.056403 59.405703C 15.813703 54.334603 10.000003 40.299103 15.071103 28.056403C 20.142203 15.813703 34.177703 10.000003 46.420403 15.071103C 58.663103 20.142203 64.476803 34.177703 59.405703 46.420403C 54.334603 58.663103 40.299103 64.476803 28.056403 59.405703Z"></path></g></g></g><g id="g-root-5.cu_sy_1lrsb2c7ta96w-fill" data-item-order="999879756" data-item-id="5.cu_sy_1lrsb2c7ta96w" data-item-class="Part Indexed Fill Stroke" data-item-index="5" data-renderer-id="0" transform="translate(166.7615966796875, 70.7615966796875)"><g id="5.cu_sy_1lrsb2c7ta96w-fill" stroke="none" fill="#ebe6ff"><g><path d="M 28.056403 59.405703C 15.813703 54.334603 10.000003 40.299103 15.071103 28.056403C 20.142203 15.813703 34.177703 10.000003 46.420403 15.071103C 58.663103 20.142203 64.476803 34.177703 59.405703 46.420403C 54.334603 58.663103 40.299103 64.476803 28.056403 59.405703Z"></path></g></g></g><g id="g-root-4.cu_sy_1iadg7taayv-fill" data-item-order="999879758" data-item-id="4.cu_sy_1iadg7taayv" data-item-class="Part Indexed Fill Stroke" data-item-index="4" data-renderer-id="0" transform="translate(106.7615966796875, 244.7615966796875)"><g id="4.cu_sy_1iadg7taayv-fill" stroke="none" fill="#f7e6fe"><g><path d="M 46.420404 59.405703C 34.177704 64.476803 20.142204 58.663103 15.071104 46.420403C 10.000004 34.177703 15.813704 20.142203 28.056404 15.071103C 40.299104 10.000003 54.334604 15.813703 59.405704 28.056403C 64.476804 40.299103 58.663104 54.334603 46.420404 59.405703Z"></path></g></g></g><g id="g-root-4.cu_sy_1iadg7taayv-fill" data-item-order="999879758" data-item-id="4.cu_sy_1iadg7taayv" data-item-class="Part Indexed Fill Stroke" data-item-index="4" data-renderer-id="0" transform="translate(106.7615966796875, 244.7615966796875)"><g id="4.cu_sy_1iadg7taayv-fill" stroke="none" fill="#f7e6fe"><g><path d="M 46.420404 59.405703C 34.177704 64.476803 20.142204 58.663103 15.071104 46.420403C 10.000004 34.177703 15.813704 20.142203 28.056404 15.071103C 40.299104 10.000003 54.334604 15.813703 59.405704 28.056403C 64.476804 40.299103 58.663104 54.334603 46.420404 59.405703Z"></path></g></g></g><g id="g-root-3.cu_sy_4hbshw7taa6m-fill" data-item-order="999879760" data-item-id="3.cu_sy_4hbshw7taa6m" data-item-class="Part Indexed Fill Stroke" data-item-index="3" data-renderer-id="0" transform="translate(256.7615966796875, 352.7615966796875)"><g id="3.cu_sy_4hbshw7taa6m-fill" stroke="none" fill="#fee7f5"><g><path d="M 59.405703 46.420403C 54.334603 58.663103 40.299103 64.476803 28.056403 59.405703C 15.813703 54.334603 10.000003 40.299103 15.071103 28.056403C 20.142203 15.813703 34.177703 10.000003 46.420403 15.071103C 58.663103 20.142203 64.476803 34.177703 59.405703 46.420403Z"></path></g></g></g><g id="g-root-3.cu_sy_4hbshw7taa6m-fill" data-item-order="999879760" data-item-id="3.cu_sy_4hbshw7taa6m" data-item-class="Part Indexed Fill Stroke" data-item-index="3" data-renderer-id="0" transform="translate(256.7615966796875, 352.7615966796875)"><g id="3.cu_sy_4hbshw7taa6m-fill" stroke="none" fill="#fee7f5"><g><path d="M 59.405703 46.420403C 54.334603 58.663103 40.299103 64.476803 28.056403 59.405703C 15.813703 54.334603 10.000003 40.299103 15.071103 28.056403C 20.142203 15.813703 34.177703 10.000003 46.420403 15.071103C 58.663103 20.142203 64.476803 34.177703 59.405703 46.420403Z"></path></g></g></g><g id="g-root-2.cu_sy_dcysqs7ta9dx-fill" data-item-order="999879762" data-item-id="2.cu_sy_dcysqs7ta9dx" data-item-class="Part Indexed Fill Stroke" data-item-index="2" data-renderer-id="0" transform="translate(406.7615966796875, 244.7615966796875)"><g id="2.cu_sy_dcysqs7ta9dx-fill" stroke="none" fill="#ffe7e6"><g><path d="M 59.405703 28.056403C 64.476803 40.299103 58.663103 54.334603 46.420403 59.405703C 34.177703 64.476803 20.142203 58.663103 15.071103 46.420403C 10.000003 34.177703 15.813703 20.142203 28.056403 15.071103C 40.299103 10.000003 54.334603 15.813703 59.405703 28.056403Z"></path></g></g></g><g id="g-root-2.cu_sy_dcysqs7ta9dx-fill" data-item-order="999879762" data-item-id="2.cu_sy_dcysqs7ta9dx" data-item-class="Part Indexed Fill Stroke" data-item-index="2" data-renderer-id="0" transform="translate(406.7615966796875, 244.7615966796875)"><g id="2.cu_sy_dcysqs7ta9dx-fill" stroke="none" fill="#ffe7e6"><g><path d="M 59.405703 28.056403C 64.476803 40.299103 58.663103 54.334603 46.420403 59.405703C 34.177703 64.476803 20.142203 58.663103 15.071103 46.420403C 10.000003 34.177703 15.813703 20.142203 28.056403 15.071103C 40.299103 10.000003 54.334603 15.813703 59.405703 28.056403Z"></path></g></g></g><g id="g-root-1.cu_sy_qnsu107taays-fill" data-item-order="999879764" data-item-id="1.cu_sy_qnsu107taays" data-item-class="Part Indexed Indexed_1 Fill Stroke" data-item-index="1" data-renderer-id="0" transform="translate(346.7615966796875, 70.7615966796875)"><g id="1.cu_sy_qnsu107taays-fill" stroke="none" fill="#fef2e6"><g><path d="M 28.056403 59.405703C 15.813703 54.334603 10.000003 40.299103 15.071103 28.056403C 20.142203 15.813703 34.177703 10.000003 46.420403 15.071103C 58.663103 20.142203 64.476803 34.177703 59.405703 46.420403C 54.334603 58.663103 40.299103 64.476803 28.056403 59.405703Z"></path></g></g></g><g id="g-root-1.cu_sy_qnsu107taays-fill" data-item-order="999879764" data-item-id="1.cu_sy_qnsu107taays" data-item-class="Part Indexed Indexed_1 Fill Stroke" data-item-index="1" data-renderer-id="0" transform="translate(346.7615966796875, 70.7615966796875)"><g id="1.cu_sy_qnsu107taays-fill" stroke="none" fill="#fef2e6"><g><path d="M 28.056403 59.405703C 15.813703 54.334603 10.000003 40.299103 15.071103 28.056403C 20.142203 15.813703 34.177703 10.000003 46.420403 15.071103C 58.663103 20.142203 64.476803 34.177703 59.405703 46.420403C 54.334603 58.663103 40.299103 64.476803 28.056403 59.405703Z"></path></g></g></g><g id="g-root-tx_individu_1uljw1w7ta9ds-fill" data-item-order="1000000000" data-item-id="tx_individu_1uljw1w7ta9ds" data-item-class="Label Stroke Indexed Indexed_1" data-item-index="1" data-renderer-id="0" transform="translate(410, 74)"><g id="tx_individu_1uljw1w7ta9ds-fill" stroke="none" fill="#484848"><g><text style="font: 20px Roboto, sans-serif; white-space: pre;" font-weight="20px" font-size="Roboto," font-family="sans-serif"><tspan x="12" y="34" dominant-baseline="ideographic">Individual </tspan><tspan x="12" y="58" dominant-baseline="ideographic">Savings</tspan></text></g></g></g><g id="g-root-tx_individu_1uljw1w7ta9ds-fill" data-item-order="1000000000" data-item-id="tx_individu_1uljw1w7ta9ds" data-item-class="Label Stroke Indexed Indexed_1" data-item-index="1" data-renderer-id="0" transform="translate(410, 74)"><g id="tx_individu_1uljw1w7ta9ds-fill" stroke="none" fill="#484848"><g><text style="font: 20px Roboto, sans-serif; white-space: pre;" font-weight="20px" font-size="Roboto," font-family="sans-serif"><tspan x="12" y="34" dominant-baseline="ideographic">Individual </tspan><tspan x="12" y="58" dominant-baseline="ideographic">Savings</tspan></text></g></g></g><g id="g-root-bank_1q88dfo7td2px-fill" data-item-order="1000000000" data-item-id="bank_1q88dfo7td2px" data-item-class="Icon Stroke Indexed Indexed_1 InsideFill InsideColorFill" data-item-index="1" data-renderer-id="0" transform="translate(362, 86)"></g><g id="g-root-bank_1q88dfo7td2px-fill" data-item-order="1000000000" data-item-id="bank_1q88dfo7td2px" data-item-class="Icon Stroke Indexed Indexed_1 InsideFill InsideColorFill" data-item-index="1" data-renderer-id="0" transform="translate(362, 86)"></g><g id="g-root-idea_1lxeo047tboqx-fill" data-item-order="1000000000" data-item-id="idea_1lxeo047tboqx" data-item-class="Icon Stroke Indexed Indexed_0 InsideFill InsideColorFill" data-item-index="0" data-renderer-id="0" transform="translate(260, 200)"></g><g id="g-root-idea_1lxeo047tboqx-fill" data-item-order="1000000000" data-item-id="idea_1lxeo047tboqx" data-item-class="Icon Stroke Indexed Indexed_0 InsideFill InsideColorFill" data-item-index="0" data-renderer-id="0" transform="translate(260, 200)"></g><g id="g-root-bolt_1cxec5g7td152-fill" data-item-order="1000000000" data-item-id="bolt_1cxec5g7td152" data-item-class="Icon Stroke Indexed InsideFill InsideColorFill" data-item-index="5" data-renderer-id="0" transform="translate(182, 86)"></g><g id="g-root-bolt_1cxec5g7td152-fill" data-item-order="1000000000" data-item-id="bolt_1cxec5g7td152" data-item-class="Icon Stroke Indexed InsideFill InsideColorFill" data-item-index="5" data-renderer-id="0" transform="translate(182, 86)"></g><g id="g-root-tx_precisio_dl2yv87t8vt2-fill" data-item-order="1000000000" data-item-id="tx_precisio_dl2yv87t8vt2" data-item-class="Label Stroke Indexed" data-item-index="3" data-renderer-id="0" transform="translate(212, 416)"><g id="tx_precisio_dl2yv87t8vt2-fill" stroke="none" fill="#484848"><g><text style="font: 20px Roboto, sans-serif; white-space: pre;" font-weight="20px" font-size="Roboto," font-family="sans-serif"><tspan x="40.63" y="34" dominant-baseline="ideographic">Precision </tspan><tspan x="13.23" y="58" dominant-baseline="ideographic">Voltage Control</tspan></text></g></g></g><g id="g-root-tx_quickroi_i0wgzo7t8v0t-fill" data-item-order="1000000000" data-item-id="tx_quickroi_i0wgzo7t8v0t" data-item-class="Label Stroke Indexed" data-item-index="4" data-renderer-id="0" transform="translate(2, 260)"><g id="tx_quickroi_i0wgzo7t8v0t-fill" stroke="none" fill="#484848"><g><text style="font: 20px Roboto, sans-serif; white-space: pre;" font-weight="20px" font-size="Roboto," font-family="sans-serif"><tspan x="17.3" y="34" dominant-baseline="ideographic">Quick ROI</tspan></text></g></g></g><g id="g-root-tx_quickroi_i0wgzo7t8v0t-fill" data-item-order="1000000000" data-item-id="tx_quickroi_i0wgzo7t8v0t" data-item-class="Label Stroke Indexed" data-item-index="4" data-renderer-id="0" transform="translate(2, 260)"><g id="tx_quickroi_i0wgzo7t8v0t-fill" stroke="none" fill="#484848"><g><text style="font: 20px Roboto, sans-serif; white-space: pre;" font-weight="20px" font-size="Roboto," font-family="sans-serif"><tspan x="17.3" y="34" dominant-baseline="ideographic">Quick ROI</tspan></text></g></g></g><g id="g-root-quar_hvaadg7td1xd-fill" data-item-order="1000000000" data-item-id="quar_hvaadg7td1xd" data-item-class="Icon Stroke Indexed InsideFill InsideColorFill" data-item-index="4" data-renderer-id="0" transform="translate(122, 260)"></g><g id="g-root-quar_hvaadg7td1xd-fill" data-item-order="1000000000" data-item-id="quar_hvaadg7td1xd" data-item-class="Icon Stroke Indexed InsideFill InsideColorFill" data-item-index="4" data-renderer-id="0" transform="translate(122, 260)"></g><g id="g-root-bulb_141rbwk7td1xr-fill" data-item-order="1000000000" data-item-id="bulb_141rbwk7td1xr" data-item-class="Icon Stroke Indexed InsideFill InsideColorFill" data-item-index="2" data-renderer-id="0" transform="translate(422, 260)"></g><g id="g-root-bulb_141rbwk7td1xr-fill" data-item-order="1000000000" data-item-id="bulb_141rbwk7td1xr" data-item-class="Icon Stroke Indexed InsideFill InsideColorFill" data-item-index="2" data-renderer-id="0" transform="translate(422, 260)"></g><g id="g-root-tx_business_9c787ta8sn-fill" data-item-order="1000000000" data-item-id="tx_business_9c787ta8sn" data-item-class="Label Stroke Indexed" data-item-index="2" data-renderer-id="0" transform="translate(470, 248)"><g id="tx_business_9c787ta8sn-fill" stroke="none" fill="#484848"><g><text style="font: 20px Roboto, sans-serif; white-space: pre;" font-weight="20px" font-size="Roboto," font-family="sans-serif"><tspan x="12" y="34" dominant-baseline="ideographic">Business </tspan><tspan x="12" y="58" dominant-baseline="ideographic">Savings</tspan></text></g></g></g><g id="g-root-tx_business_9c787ta8sn-fill" data-item-order="1000000000" data-item-id="tx_business_9c787ta8sn" data-item-class="Label Stroke Indexed" data-item-index="2" data-renderer-id="0" transform="translate(470, 248)"><g id="tx_business_9c787ta8sn-fill" stroke="none" fill="#484848"><g><text style="font: 20px Roboto, sans-serif; white-space: pre;" font-weight="20px" font-size="Roboto," font-family="sans-serif"><tspan x="12" y="34" dominant-baseline="ideographic">Business </tspan><tspan x="12" y="58" dominant-baseline="ideographic">Savings</tspan></text></g></g></g><g id="g-root-tx_enhanced_vcczd07t8tfw-fill" data-item-order="1000000000" data-item-id="tx_enhanced_vcczd07t8tfw" data-item-class="Label Stroke Indexed" data-item-index="5" data-renderer-id="0" transform="translate(62, 74)"><g id="tx_enhanced_vcczd07t8tfw-fill" stroke="none" fill="#484848"><g><text style="font: 20px Roboto, sans-serif; white-space: pre;" font-weight="20px" font-size="Roboto," font-family="sans-serif"><tspan x="16.31" y="34" dominant-baseline="ideographic">Enhanced </tspan><tspan x="18.72" y="58" dominant-baseline="ideographic">Reliability</tspan></text></g></g></g><g id="g-root-tx_empoweri_1lpwvt07taa6h-fill" data-item-order="1000000000" data-item-id="tx_empoweri_1lpwvt07taa6h" data-item-class="Label Stroke Title" data-item-index="none" data-renderer-id="0" transform="translate(146, 2)"><g id="tx_empoweri_1lpwvt07taa6h-fill" stroke="none" fill="#484848"><g><text style="font: 20px Roboto, sans-serif; white-space: pre;" font-weight="20px" font-size="Roboto," font-family="sans-serif"><tspan x="14.74" y="34" dominant-baseline="ideographic">Empowering Energy Efficiency</tspan></text></g></g></g><g id="g-root-1_v64bno7td3i8-fill" data-item-order="1000000000" data-item-id="1_v64bno7td3i8" data-item-class="Icon Stroke Indexed InsideFill InsideColorFill" data-item-index="3" data-renderer-id="0" transform="translate(272, 368)"></g><g id="g-root-1_v64bno7td3i8-fill" data-item-order="1000000000" data-item-id="1_v64bno7td3i8" data-item-class="Icon Stroke Indexed InsideFill InsideColorFill" data-item-index="3" data-renderer-id="0" transform="translate(272, 368)"></g><g id="g-root-tx_precisio_dl2yv87t8vt2-fill" data-item-order="1000000000" data-item-id="tx_precisio_dl2yv87t8vt2" data-item-class="Label Stroke Indexed" data-item-index="3" data-renderer-id="0" transform="translate(212, 416)"><g id="tx_precisio_dl2yv87t8vt2-fill" stroke="none" fill="#484848"><g><text style="font: 20px Roboto, sans-serif; white-space: pre;" font-weight="20px" font-size="Roboto," font-family="sans-serif"><tspan x="40.63" y="34" dominant-baseline="ideographic">Precision </tspan><tspan x="13.23" y="58" dominant-baseline="ideographic">Voltage Control</tspan></text></g></g></g><g id="g-root-tx_empoweri_1lpwvt07taa6h-fill" data-item-order="1000000000" data-item-id="tx_empoweri_1lpwvt07taa6h" data-item-class="Label Stroke Title" data-item-index="none" data-renderer-id="0" transform="translate(146, 2)"><g id="tx_empoweri_1lpwvt07taa6h-fill" stroke="none" fill="#484848"><g><text style="font: 20px Roboto, sans-serif; white-space: pre;" font-weight="20px" font-size="Roboto," font-family="sans-serif"><tspan x="14.74" y="34" dominant-baseline="ideographic">Empowering Energy Efficiency</tspan></text></g></g></g><g id="g-root-tx_enhanced_vcczd07t8tfw-fill" data-item-order="1000000000" data-item-id="tx_enhanced_vcczd07t8tfw" data-item-class="Label Stroke Indexed" data-item-index="5" data-renderer-id="0" transform="translate(62, 74)"><g id="tx_enhanced_vcczd07t8tfw-fill" stroke="none" fill="#484848"><g><text style="font: 20px Roboto, sans-serif; white-space: pre;" font-weight="20px" font-size="Roboto," font-family="sans-serif"><tspan x="16.31" y="34" dominant-baseline="ideographic">Enhanced </tspan><tspan x="18.72" y="58" dominant-baseline="ideographic">Reliability</tspan></text></g></g></g><g id="g-root--1.cu_sy_18f2uis7ta8lm-stroke" data-item-order="999879753" data-item-id="-1.cu_sy_18f2uis7ta8lm" data-item-class="Part Stroke ColorStrokeGray" data-item-index="-1" data-renderer-id="0" transform="translate(125.39523315429688, 68)"><g id="-1.cu_sy_18f2uis7ta8lm-stroke" fill="none" stroke-linecap="round" stroke-linejoin="round" stroke-miterlimit="4" stroke="#888888" stroke-width="2" stroke-dasharray="5.0, 7.0"><g><path d="M 146.993667 311.5745C 124.535267 289.0213 108.604767 232.3476 108.604767 166C 108.604767 79.8436 135.467667 10 168.604767 10C 201.741867 10 228.604767 79.8436 228.604767 166C 228.604767 232.3479 212.674167 289.0218 190.215567 311.5748M 234.971083 35.829346C 203.595983 41.893446 158.357483 78.025746 120.063283 130.733246C 69.421783 200.435246 50.101283 272.729546 76.909783 292.207046C 103.718283 311.684546 166.503783 270.969546 217.145283 201.267546C 256.442083 147.180146 276.879083 91.531746 271.537183 60.212546M 65.671859 60.214569C 60.331559 91.534269 80.768459 147.181069 120.064259 201.266969C 170.705659 270.968969 233.491259 311.684069 260.299759 292.206569C 287.108159 272.729069 267.787759 200.434769 217.146259 130.732769C 178.851059 78.023969 133.611359 41.891069 102.236159 35.828369M 35.634034 230.911328C 63.541134 245.992728 123.142834 243.859728 187.145434 223.064028C 269.085134 196.440228 327.209234 149.309228 316.969234 117.793928C 306.729334 86.278728 232.003034 82.313428 150.063434 108.937228C 86.915034 129.455328 37.911434 162.153328 23.443634 190.496928M 313.764699 190.494984C 299.295799 162.151884 250.292899 129.454684 187.145699 108.936984C 105.206099 82.313184 30.479799 86.278484 20.239899 117.793684C 9.999999 149.308984 68.123999 196.439984 150.063699 223.063784C 214.066199 243.859484 273.667799 245.992484 301.574999 230.911184"></path></g></g></g><g id="g-root--1.cu_sy_18f2uis7ta8lm-stroke" data-item-order="999879753" data-item-id="-1.cu_sy_18f2uis7ta8lm" data-item-class="Part Stroke ColorStrokeGray" data-item-index="-1" data-renderer-id="0" transform="translate(125.39523315429688, 68)"><g id="-1.cu_sy_18f2uis7ta8lm-stroke" fill="none" stroke-linecap="round" stroke-linejoin="round" stroke-miterlimit="4" stroke="#888888" stroke-width="2" stroke-dasharray="5.0, 7.0"><g><path d="M 146.993667 311.5745C 124.535267 289.0213 108.604767 232.3476 108.604767 166C 108.604767 79.8436 135.467667 10 168.604767 10C 201.741867 10 228.604767 79.8436 228.604767 166C 228.604767 232.3479 212.674167 289.0218 190.215567 311.5748M 234.971083 35.829346C 203.595983 41.893446 158.357483 78.025746 120.063283 130.733246C 69.421783 200.435246 50.101283 272.729546 76.909783 292.207046C 103.718283 311.684546 166.503783 270.969546 217.145283 201.267546C 256.442083 147.180146 276.879083 91.531746 271.537183 60.212546M 65.671859 60.214569C 60.331559 91.534269 80.768459 147.181069 120.064259 201.266969C 170.705659 270.968969 233.491259 311.684069 260.299759 292.206569C 287.108159 272.729069 267.787759 200.434769 217.146259 130.732769C 178.851059 78.023969 133.611359 41.891069 102.236159 35.828369M 35.634034 230.911328C 63.541134 245.992728 123.142834 243.859728 187.145434 223.064028C 269.085134 196.440228 327.209234 149.309228 316.969234 117.793928C 306.729334 86.278728 232.003034 82.313428 150.063434 108.937228C 86.915034 129.455328 37.911434 162.153328 23.443634 190.496928M 313.764699 190.494984C 299.295799 162.151884 250.292899 129.454684 187.145699 108.936984C 105.206099 82.313184 30.479799 86.278484 20.239899 117.793684C 9.999999 149.308984 68.123999 196.439984 150.063699 223.063784C 214.066199 243.859484 273.667799 245.992484 301.574999 230.911184"></path></g></g></g><g id="g-root-0.cu_sy_v3mc5g7taa6j-stroke" data-item-order="999879754" data-item-id="0.cu_sy_v3mc5g7taa6j" data-item-class="Part Indexed_0 Fill Stroke" data-item-index="0" data-renderer-id="0" transform="translate(229.523193359375, 169.523193359375)"><g id="0.cu_sy_v3mc5g7taa6j-stroke" fill="none" stroke-linecap="round" stroke-linejoin="round" stroke-miterlimit="4" stroke="#e3cd09" stroke-width="2"><g><path d="M 108.811407 46.112807C 118.953607 70.598107 107.326107 98.669307 82.840807 108.811407C 58.355507 118.953607 30.284307 107.326107 20.142207 82.840807C 10.000007 58.355507 21.627507 30.284307 46.112807 20.142207C 70.598107 10.000007 98.669307 21.627507 108.811407 46.112807Z"></path></g></g></g><g id="g-root-0.cu_sy_v3mc5g7taa6j-stroke" data-item-order="999879754" data-item-id="0.cu_sy_v3mc5g7taa6j" data-item-class="Part Indexed_0 Fill Stroke" data-item-index="0" data-renderer-id="0" transform="translate(229.523193359375, 169.523193359375)"><g id="0.cu_sy_v3mc5g7taa6j-stroke" fill="none" stroke-linecap="round" stroke-linejoin="round" stroke-miterlimit="4" stroke="#e3cd09" stroke-width="2"><g><path d="M 108.811407 46.112807C 118.953607 70.598107 107.326107 98.669307 82.840807 108.811407C 58.355507 118.953607 30.284307 107.326107 20.142207 82.840807C 10.000007 58.355507 21.627507 30.284307 46.112807 20.142207C 70.598107 10.000007 98.669307 21.627507 108.811407 46.112807Z"></path></g></g></g><g id="g-root-5.cu_sy_1lrsb2c7ta96w-stroke" data-item-order="999879756" data-item-id="5.cu_sy_1lrsb2c7ta96w" data-item-class="Part Indexed Fill Stroke" data-item-index="5" data-renderer-id="0" transform="translate(166.7615966796875, 70.7615966796875)"><g id="5.cu_sy_1lrsb2c7ta96w-stroke" fill="none" stroke-linecap="round" stroke-linejoin="round" stroke-miterlimit="4" stroke="#795ee3" stroke-width="2"><g><path d="M 28.056403 59.405703C 15.813703 54.334603 10.000003 40.299103 15.071103 28.056403C 20.142203 15.813703 34.177703 10.000003 46.420403 15.071103C 58.663103 20.142203 64.476803 34.177703 59.405703 46.420403C 54.334603 58.663103 40.299103 64.476803 28.056403 59.405703Z"></path></g></g></g><g id="g-root-5.cu_sy_1lrsb2c7ta96w-stroke" data-item-order="999879756" data-item-id="5.cu_sy_1lrsb2c7ta96w" data-item-class="Part Indexed Fill Stroke" data-item-index="5" data-renderer-id="0" transform="translate(166.7615966796875, 70.7615966796875)"><g id="5.cu_sy_1lrsb2c7ta96w-stroke" fill="none" stroke-linecap="round" stroke-linejoin="round" stroke-miterlimit="4" stroke="#795ee3" stroke-width="2"><g><path d="M 28.056403 59.405703C 15.813703 54.334603 10.000003 40.299103 15.071103 28.056403C 20.142203 15.813703 34.177703 10.000003 46.420403 15.071103C 58.663103 20.142203 64.476803 34.177703 59.405703 46.420403C 54.334603 58.663103 40.299103 64.476803 28.056403 59.405703Z"></path></g></g></g><g id="g-root-4.cu_sy_1iadg7taayv-stroke" data-item-order="999879758" data-item-id="4.cu_sy_1iadg7taayv" data-item-class="Part Indexed Fill Stroke" data-item-index="4" data-renderer-id="0" transform="translate(106.7615966796875, 244.7615966796875)"><g id="4.cu_sy_1iadg7taayv-stroke" fill="none" stroke-linecap="round" stroke-linejoin="round" stroke-miterlimit="4" stroke="#b65edf" stroke-width="2"><g><path d="M 46.420404 59.405703C 34.177704 64.476803 20.142204 58.663103 15.071104 46.420403C 10.000004 34.177703 15.813704 20.142203 28.056404 15.071103C 40.299104 10.000003 54.334604 15.813703 59.405704 28.056403C 64.476804 40.299103 58.663104 54.334603 46.420404 59.405703Z"></path></g></g></g><g id="g-root-4.cu_sy_1iadg7taayv-stroke" data-item-order="999879758" data-item-id="4.cu_sy_1iadg7taayv" data-item-class="Part Indexed Fill Stroke" data-item-index="4" data-renderer-id="0" transform="translate(106.7615966796875, 244.7615966796875)"><g id="4.cu_sy_1iadg7taayv-stroke" fill="none" stroke-linecap="round" stroke-linejoin="round" stroke-miterlimit="4" stroke="#b65edf" stroke-width="2"><g><path d="M 46.420404 59.405703C 34.177704 64.476803 20.142204 58.663103 15.071104 46.420403C 10.000004 34.177703 15.813704 20.142203 28.056404 15.071103C 40.299104 10.000003 54.334604 15.813703 59.405704 28.056403C 64.476804 40.299103 58.663104 54.334603 46.420404 59.405703Z"></path></g></g></g><g id="g-root-3.cu_sy_4hbshw7taa6m-stroke" data-item-order="999879760" data-item-id="3.cu_sy_4hbshw7taa6m" data-item-class="Part Indexed Fill Stroke" data-item-index="3" data-renderer-id="0" transform="translate(256.7615966796875, 352.7615966796875)"><g id="3.cu_sy_4hbshw7taa6m-stroke" fill="none" stroke-linecap="round" stroke-linejoin="round" stroke-miterlimit="4" stroke="#da5da8" stroke-width="2"><g><path d="M 59.405703 46.420403C 54.334603 58.663103 40.299103 64.476803 28.056403 59.405703C 15.813703 54.334603 10.000003 40.299103 15.071103 28.056403C 20.142203 15.813703 34.177703 10.000003 46.420403 15.071103C 58.663103 20.142203 64.476803 34.177703 59.405703 46.420403Z"></path></g></g></g><g id="g-root-3.cu_sy_4hbshw7taa6m-stroke" data-item-order="999879760" data-item-id="3.cu_sy_4hbshw7taa6m" data-item-class="Part Indexed Fill Stroke" data-item-index="3" data-renderer-id="0" transform="translate(256.7615966796875, 352.7615966796875)"><g id="3.cu_sy_4hbshw7taa6m-stroke" fill="none" stroke-linecap="round" stroke-linejoin="round" stroke-miterlimit="4" stroke="#da5da8" stroke-width="2"><g><path d="M 59.405703 46.420403C 54.334603 58.663103 40.299103 64.476803 28.056403 59.405703C 15.813703 54.334603 10.000003 40.299103 15.071103 28.056403C 20.142203 15.813703 34.177703 10.000003 46.420403 15.071103C 58.663103 20.142203 64.476803 34.177703 59.405703 46.420403Z"></path></g></g></g><g id="g-root-2.cu_sy_dcysqs7ta9dx-stroke" data-item-order="999879762" data-item-id="2.cu_sy_dcysqs7ta9dx" data-item-class="Part Indexed Fill Stroke" data-item-index="2" data-renderer-id="0" transform="translate(406.7615966796875, 244.7615966796875)"><g id="2.cu_sy_dcysqs7ta9dx-stroke" fill="none" stroke-linecap="round" stroke-linejoin="round" stroke-miterlimit="4" stroke="#e15e5a" stroke-width="2"><g><path d="M 59.405703 28.056403C 64.476803 40.299103 58.663103 54.334603 46.420403 59.405703C 34.177703 64.476803 20.142203 58.663103 15.071103 46.420403C 10.000003 34.177703 15.813703 20.142203 28.056403 15.071103C 40.299103 10.000003 54.334603 15.813703 59.405703 28.056403Z"></path></g></g></g><g id="g-root-2.cu_sy_dcysqs7ta9dx-stroke" data-item-order="999879762" data-item-id="2.cu_sy_dcysqs7ta9dx" data-item-class="Part Indexed Fill Stroke" data-item-index="2" data-renderer-id="0" transform="translate(406.7615966796875, 244.7615966796875)"><g id="2.cu_sy_dcysqs7ta9dx-stroke" fill="none" stroke-linecap="round" stroke-linejoin="round" stroke-miterlimit="4" stroke="#e15e5a" stroke-width="2"><g><path d="M 59.405703 28.056403C 64.476803 40.299103 58.663103 54.334603 46.420403 59.405703C 34.177703 64.476803 20.142203 58.663103 15.071103 46.420403C 10.000003 34.177703 15.813703 20.142203 28.056403 15.071103C 40.299103 10.000003 54.334603 15.813703 59.405703 28.056403Z"></path></g></g></g><g id="g-root-1.cu_sy_qnsu107taays-stroke" data-item-order="999879764" data-item-id="1.cu_sy_qnsu107taays" data-item-class="Part Indexed Indexed_1 Fill Stroke" data-item-index="1" data-renderer-id="0" transform="translate(346.7615966796875, 70.7615966796875)"><g id="1.cu_sy_qnsu107taays-stroke" fill="none" stroke-linecap="round" stroke-linejoin="round" stroke-miterlimit="4" stroke="#dd8433" stroke-width="2"><g><path d="M 28.056403 59.405703C 15.813703 54.334603 10.000003 40.299103 15.071103 28.056403C 20.142203 15.813703 34.177703 10.000003 46.420403 15.071103C 58.663103 20.142203 64.476803 34.177703 59.405703 46.420403C 54.334603 58.663103 40.299103 64.476803 28.056403 59.405703Z"></path></g></g></g><g id="g-root-1.cu_sy_qnsu107taays-stroke" data-item-order="999879764" data-item-id="1.cu_sy_qnsu107taays" data-item-class="Part Indexed Indexed_1 Fill Stroke" data-item-index="1" data-renderer-id="0" transform="translate(346.7615966796875, 70.7615966796875)"><g id="1.cu_sy_qnsu107taays-stroke" fill="none" stroke-linecap="round" stroke-linejoin="round" stroke-miterlimit="4" stroke="#dd8433" stroke-width="2"><g><path d="M 28.056403 59.405703C 15.813703 54.334603 10.000003 40.299103 15.071103 28.056403C 20.142203 15.813703 34.177703 10.000003 46.420403 15.071103C 58.663103 20.142203 64.476803 34.177703 59.405703 46.420403C 54.334603 58.663103 40.299103 64.476803 28.056403 59.405703Z"></path></g></g></g><g id="g-root-tx_individu_1uljw1w7ta9ds-stroke" data-item-order="1000000000" data-item-id="tx_individu_1uljw1w7ta9ds" data-item-class="Label Stroke Indexed Indexed_1" data-item-index="1" data-renderer-id="0" transform="translate(410, 74)"></g><g id="g-root-tx_individu_1uljw1w7ta9ds-stroke" data-item-order="1000000000" data-item-id="tx_individu_1uljw1w7ta9ds" data-item-class="Label Stroke Indexed Indexed_1" data-item-index="1" data-renderer-id="0" transform="translate(410, 74)"></g><g id="g-root-bank_1q88dfo7td2px-stroke" data-item-order="1000000000" data-item-id="bank_1q88dfo7td2px" data-item-class="Icon Stroke Indexed Indexed_1 InsideFill InsideColorFill" data-item-index="1" data-renderer-id="0" transform="translate(362, 86)"><g id="bank_1q88dfo7td2px-stroke" fill="none" stroke-linecap="round" stroke-linejoin="round" stroke-miterlimit="4" stroke="#dd8433" stroke-width="2"><g><path d="M 22 16.5C 23.790515 16.377927 25.565204 16.903945 27.000001 17.982M 33.5 19.5C 33.5 20.604569 32.604569 21.5 31.5 21.5M 19.55 13.78C 18.770275 12.399449 17.159889 11.715497 15.625 12.113C 15.449258 12.158978 15.312279 12.296655 15.267195 12.472628C 15.222111 12.648602 15.276015 12.835183 15.408 12.96C 15.892192 13.416293 16.2363 14.001138 16.4 14.646C 16.452121 14.853103 16.366951 15.070447 16.188 15.187C 14.278457 16.358384 12.963771 18.293266 12.578 20.5L 11.5 20.5C 10.947715 20.5 10.5 20.947715 10.5 21.5L 10.5 23.5C 10.5 24.052285 10.947715 24.5 11.5 24.5L 13.2 24.5C 14.950565 27.697891 18.356754 29.633226 22 29.5C 27.247 29.5 31.5 25.919 31.5 21.5C 31.5 16.333 25.7 12.4 19.55 13.78ZM 16 19.75C 16.138071 19.75 16.25 19.861929 16.25 20C 16.25 20.138071 16.138071 20.25 16 20.25C 15.861929 20.25 15.75 20.138071 15.75 20C 15.750548 19.862156 15.862156 19.750548 16 19.75M 17.504 28.546L 16.504 32M 26.504 28.546L 27.504 32"></path></g></g></g><g id="g-root-bank_1q88dfo7td2px-stroke" data-item-order="1000000000" data-item-id="bank_1q88dfo7td2px" data-item-class="Icon Stroke Indexed Indexed_1 InsideFill InsideColorFill" data-item-index="1" data-renderer-id="0" transform="translate(362, 86)"><g id="bank_1q88dfo7td2px-stroke" fill="none" stroke-linecap="round" stroke-linejoin="round" stroke-miterlimit="4" stroke="#dd8433" stroke-width="2"><g><path d="M 22 16.5C 23.790515 16.377927 25.565204 16.903945 27.000001 17.982M 33.5 19.5C 33.5 20.604569 32.604569 21.5 31.5 21.5M 19.55 13.78C 18.770275 12.399449 17.159889 11.715497 15.625 12.113C 15.449258 12.158978 15.312279 12.296655 15.267195 12.472628C 15.222111 12.648602 15.276015 12.835183 15.408 12.96C 15.892192 13.416293 16.2363 14.001138 16.4 14.646C 16.452121 14.853103 16.366951 15.070447 16.188 15.187C 14.278457 16.358384 12.963771 18.293266 12.578 20.5L 11.5 20.5C 10.947715 20.5 10.5 20.947715 10.5 21.5L 10.5 23.5C 10.5 24.052285 10.947715 24.5 11.5 24.5L 13.2 24.5C 14.950565 27.697891 18.356754 29.633226 22 29.5C 27.247 29.5 31.5 25.919 31.5 21.5C 31.5 16.333 25.7 12.4 19.55 13.78ZM 16 19.75C 16.138071 19.75 16.25 19.861929 16.25 20C 16.25 20.138071 16.138071 20.25 16 20.25C 15.861929 20.25 15.75 20.138071 15.75 20C 15.750548 19.862156 15.862156 19.750548 16 19.75M 17.504 28.546L 16.504 32M 26.504 28.546L 27.504 32"></path></g></g></g><g id="g-root-idea_1lxeo047tboqx-stroke" data-item-order="1000000000" data-item-id="idea_1lxeo047tboqx" data-item-class="Icon Stroke Indexed Indexed_0 InsideFill InsideColorFill" data-item-index="0" data-renderer-id="0" transform="translate(260, 200)"><g id="idea_1lxeo047tboqx-stroke" fill="none" stroke-linecap="round" stroke-linejoin="round" stroke-miterlimit="4" stroke="#e3cd09" stroke-width="2"><g><path d="M 25.507999 33L 19.507999 33M 28.507999 22C 28.414944 18.725613 25.782389 16.093058 22.507999 16C 19.233612 16.093058 16.601057 18.725613 16.507999 22C 16.553801 24.079809 17.694427 25.980852 19.507999 26.999998L 19.507999 29L 25.507999 29L 25.507999 27C 27.320992 25.980255 28.461397 24.079578 28.507999 22ZM 22.507999 11L 22.507999 13M 30.285999 14.222L 28.872 15.636M 33.507999 21L 31.507999 21M 14.73 14.222L 16.144001 15.636M 11.508 21L 13.507999 21M 36.52 15.238C 45.733578 16.7173 52.509109 24.668423 52.507999 34M 30.511999 52.765999C 21.29216 51.291744 14.509869 43.336964 14.512 34M 36.507999 47C 36.508003 52.522846 40.985153 57 46.507999 57C 52.030849 57 56.507999 52.522846 56.507999 47C 56.507999 41.477154 52.030849 37 46.507999 37C 40.985153 37 36.508003 41.477154 36.508003 47ZM 46.507999 51L 46.507999 53M 46.507999 41L 46.507999 43M 42.507999 51L 48.507999 51C 49.612568 51 50.507999 50.104568 50.507999 49C 50.507999 47.895432 49.612568 47 48.507999 47L 44.507999 47C 43.403431 47 42.507999 46.104568 42.507999 45C 42.507999 43.895432 43.403431 43 44.507999 43L 50.507999 43M 28.507999 47L 31.507999 53L 26.507999 56M 38.507999 20L 36.507999 15L 40.507999 12"></path></g></g></g><g id="g-root-idea_1lxeo047tboqx-stroke" data-item-order="1000000000" data-item-id="idea_1lxeo047tboqx" data-item-class="Icon Stroke Indexed Indexed_0 InsideFill InsideColorFill" data-item-index="0" data-renderer-id="0" transform="translate(260, 200)"><g id="idea_1lxeo047tboqx-stroke" fill="none" stroke-linecap="round" stroke-linejoin="round" stroke-miterlimit="4" stroke="#e3cd09" stroke-width="2"><g><path d="M 25.507999 33L 19.507999 33M 28.507999 22C 28.414944 18.725613 25.782389 16.093058 22.507999 16C 19.233612 16.093058 16.601057 18.725613 16.507999 22C 16.553801 24.079809 17.694427 25.980852 19.507999 26.999998L 19.507999 29L 25.507999 29L 25.507999 27C 27.320992 25.980255 28.461397 24.079578 28.507999 22ZM 22.507999 11L 22.507999 13M 30.285999 14.222L 28.872 15.636M 33.507999 21L 31.507999 21M 14.73 14.222L 16.144001 15.636M 11.508 21L 13.507999 21M 36.52 15.238C 45.733578 16.7173 52.509109 24.668423 52.507999 34M 30.511999 52.765999C 21.29216 51.291744 14.509869 43.336964 14.512 34M 36.507999 47C 36.508003 52.522846 40.985153 57 46.507999 57C 52.030849 57 56.507999 52.522846 56.507999 47C 56.507999 41.477154 52.030849 37 46.507999 37C 40.985153 37 36.508003 41.477154 36.508003 47ZM 46.507999 51L 46.507999 53M 46.507999 41L 46.507999 43M 42.507999 51L 48.507999 51C 49.612568 51 50.507999 50.104568 50.507999 49C 50.507999 47.895432 49.612568 47 48.507999 47L 44.507999 47C 43.403431 47 42.507999 46.104568 42.507999 45C 42.507999 43.895432 43.403431 43 44.507999 43L 50.507999 43M 28.507999 47L 31.507999 53L 26.507999 56M 38.507999 20L 36.507999 15L 40.507999 12"></path></g></g></g><g id="g-root-bolt_1cxec5g7td152-stroke" data-item-order="1000000000" data-item-id="bolt_1cxec5g7td152" data-item-class="Icon Stroke Indexed InsideFill InsideColorFill" data-item-index="5" data-renderer-id="0" transform="translate(182, 86)"><g id="bolt_1cxec5g7td152-stroke" fill="none" stroke-linecap="round" stroke-linejoin="round" stroke-miterlimit="4" stroke="#795ee3" stroke-width="2"><g><path d="M 22.323 14.753C 22.411903 14.596527 22.578035 14.499903 22.758 14.5L 25.265 14.5C 25.445557 14.499888 25.612149 14.597131 25.700837 14.754406C 25.789524 14.911681 25.786529 15.104555 25.693 15.259L 23.128 19.5L 25.758 19.5C 25.957355 19.499897 26.137721 19.618227 26.21701 19.801135C 26.2963 19.984043 26.259359 20.196574 26.123 20.342L 19.869 27.013C 19.786948 27.100817 19.654021 27.117821 19.552506 27.053487C 19.45099 26.989153 19.409618 26.861689 19.454 26.75L 21.522 21.5L 19.358 21.5C 19.179937 21.500096 19.015258 21.405486 18.925653 21.251612C 18.836047 21.097737 18.835037 20.907819 18.923 20.753ZM 11.5 13.775L 11.5 21.412C 11.560187 26.581141 14.843303 31.162084 19.719 32.879999L 20.84 33.294C 21.588882 33.569015 22.411117 33.569015 23.16 33.293999L 24.281 32.88C 29.156695 31.162084 32.439811 26.581141 32.499999 21.411999L 32.5 13.775C 32.497947 13.161695 32.130553 12.608639 31.566 12.369C 28.53664 11.105162 25.282281 10.469327 22 10.5C 18.717719 10.469327 15.46336 11.105162 12.434 12.369C 11.869447 12.608639 11.502054 13.161695 11.5 13.775Z"></path></g></g></g><g id="g-root-bolt_1cxec5g7td152-stroke" data-item-order="1000000000" data-item-id="bolt_1cxec5g7td152" data-item-class="Icon Stroke Indexed InsideFill InsideColorFill" data-item-index="5" data-renderer-id="0" transform="translate(182, 86)"><g id="bolt_1cxec5g7td152-stroke" fill="none" stroke-linecap="round" stroke-linejoin="round" stroke-miterlimit="4" stroke="#795ee3" stroke-width="2"><g><path d="M 22.323 14.753C 22.411903 14.596527 22.578035 14.499903 22.758 14.5L 25.265 14.5C 25.445557 14.499888 25.612149 14.597131 25.700837 14.754406C 25.789524 14.911681 25.786529 15.104555 25.693 15.259L 23.128 19.5L 25.758 19.5C 25.957355 19.499897 26.137721 19.618227 26.21701 19.801135C 26.2963 19.984043 26.259359 20.196574 26.123 20.342L 19.869 27.013C 19.786948 27.100817 19.654021 27.117821 19.552506 27.053487C 19.45099 26.989153 19.409618 26.861689 19.454 26.75L 21.522 21.5L 19.358 21.5C 19.179937 21.500096 19.015258 21.405486 18.925653 21.251612C 18.836047 21.097737 18.835037 20.907819 18.923 20.753ZM 11.5 13.775L 11.5 21.412C 11.560187 26.581141 14.843303 31.162084 19.719 32.879999L 20.84 33.294C 21.588882 33.569015 22.411117 33.569015 23.16 33.293999L 24.281 32.88C 29.156695 31.162084 32.439811 26.581141 32.499999 21.411999L 32.5 13.775C 32.497947 13.161695 32.130553 12.608639 31.566 12.369C 28.53664 11.105162 25.282281 10.469327 22 10.5C 18.717719 10.469327 15.46336 11.105162 12.434 12.369C 11.869447 12.608639 11.502054 13.161695 11.5 13.775Z"></path></g></g></g><g id="g-root-tx_precisio_dl2yv87t8vt2-stroke" data-item-order="1000000000" data-item-id="tx_precisio_dl2yv87t8vt2" data-item-class="Label Stroke Indexed" data-item-index="3" data-renderer-id="0" transform="translate(212, 416)"></g><g id="g-root-tx_quickroi_i0wgzo7t8v0t-stroke" data-item-order="1000000000" data-item-id="tx_quickroi_i0wgzo7t8v0t" data-item-class="Label Stroke Indexed" data-item-index="4" data-renderer-id="0" transform="translate(2, 260)"></g><g id="g-root-tx_quickroi_i0wgzo7t8v0t-stroke" data-item-order="1000000000" data-item-id="tx_quickroi_i0wgzo7t8v0t" data-item-class="Label Stroke Indexed" data-item-index="4" data-renderer-id="0" transform="translate(2, 260)"></g><g id="g-root-quar_hvaadg7td1xd-stroke" data-item-order="1000000000" data-item-id="quar_hvaadg7td1xd" data-item-class="Icon Stroke Indexed InsideFill InsideColorFill" data-item-index="4" data-renderer-id="0" transform="translate(122, 260)"><g id="quar_hvaadg7td1xd-stroke" fill="none" stroke-linecap="round" stroke-linejoin="round" stroke-miterlimit="4" stroke="#b65edf" stroke-width="2"><g><path d="M 21.571428 14.285714C 26.778685 14.285715 31 18.507029 31 23.714287C 31 28.921543 26.778685 33.142857 21.571428 33.142857C 16.364172 33.142857 12.142858 28.921543 12.142858 23.714287L 21.571428 23.714287ZM 19 10.857142L 24.142857 10.857142M 21.571428 14.285714L 21.571428 10.857142M 30.142857 13.428572L 31.857143 15.142858M 14.902857 17.045715L 16.719999 18.862858"></path></g></g></g><g id="g-root-quar_hvaadg7td1xd-stroke" data-item-order="1000000000" data-item-id="quar_hvaadg7td1xd" data-item-class="Icon Stroke Indexed InsideFill InsideColorFill" data-item-index="4" data-renderer-id="0" transform="translate(122, 260)"><g id="quar_hvaadg7td1xd-stroke" fill="none" stroke-linecap="round" stroke-linejoin="round" stroke-miterlimit="4" stroke="#b65edf" stroke-width="2"><g><path d="M 21.571428 14.285714C 26.778685 14.285715 31 18.507029 31 23.714287C 31 28.921543 26.778685 33.142857 21.571428 33.142857C 16.364172 33.142857 12.142858 28.921543 12.142858 23.714287L 21.571428 23.714287ZM 19 10.857142L 24.142857 10.857142M 21.571428 14.285714L 21.571428 10.857142M 30.142857 13.428572L 31.857143 15.142858M 14.902857 17.045715L 16.719999 18.862858"></path></g></g></g><g id="g-root-bulb_141rbwk7td1xr-stroke" data-item-order="1000000000" data-item-id="bulb_141rbwk7td1xr" data-item-class="Icon Stroke Indexed InsideFill InsideColorFill" data-item-index="2" data-renderer-id="0" transform="translate(422, 260)"><g id="bulb_141rbwk7td1xr-stroke" fill="none" stroke-linecap="round" stroke-linejoin="round" stroke-miterlimit="4" stroke="#e15e5a" stroke-width="2"><g><path d="M 19.5 30.502L 24.5 30.502M 19.5 32.502L 24.5 32.502M 22 32.502L 22 33.502M 19.5 28C 19.5 28.276142 19.723858 28.5 20 28.5L 24 28.5C 24.276142 28.5 24.5 28.276142 24.5 28L 24.5 27.161C 28.260542 26.219933 30.924079 22.87576 31.000001 19C 30.857882 14.169322 26.830911 10.366072 22 10.5C 17.169088 10.366072 13.142117 14.169322 13 19C 13.075922 22.87576 15.739459 26.219933 19.5 27.161001ZM 23.5 16.5L 21.8 16.5C 21.223495 16.495558 20.71293 16.871344 20.545804 17.423111C 20.378679 17.974878 20.594921 18.570806 21.077 18.887L 22.917 20.113C 23.398118 20.428595 23.614539 21.022921 23.44901 21.573989C 23.283482 22.125057 22.775389 22.501755 22.2 22.5L 20.5 22.5M 22.5 16.502L 22.5 15.502M 21.5 23.502L 21.5 22.502"></path></g></g></g><g id="g-root-bulb_141rbwk7td1xr-stroke" data-item-order="1000000000" data-item-id="bulb_141rbwk7td1xr" data-item-class="Icon Stroke Indexed InsideFill InsideColorFill" data-item-index="2" data-renderer-id="0" transform="translate(422, 260)"><g id="bulb_141rbwk7td1xr-stroke" fill="none" stroke-linecap="round" stroke-linejoin="round" stroke-miterlimit="4" stroke="#e15e5a" stroke-width="2"><g><path d="M 19.5 30.502L 24.5 30.502M 19.5 32.502L 24.5 32.502M 22 32.502L 22 33.502M 19.5 28C 19.5 28.276142 19.723858 28.5 20 28.5L 24 28.5C 24.276142 28.5 24.5 28.276142 24.5 28L 24.5 27.161C 28.260542 26.219933 30.924079 22.87576 31.000001 19C 30.857882 14.169322 26.830911 10.366072 22 10.5C 17.169088 10.366072 13.142117 14.169322 13 19C 13.075922 22.87576 15.739459 26.219933 19.5 27.161001ZM 23.5 16.5L 21.8 16.5C 21.223495 16.495558 20.71293 16.871344 20.545804 17.423111C 20.378679 17.974878 20.594921 18.570806 21.077 18.887L 22.917 20.113C 23.398118 20.428595 23.614539 21.022921 23.44901 21.573989C 23.283482 22.125057 22.775389 22.501755 22.2 22.5L 20.5 22.5M 22.5 16.502L 22.5 15.502M 21.5 23.502L 21.5 22.502"></path></g></g></g><g id="g-root-tx_business_9c787ta8sn-stroke" data-item-order="1000000000" data-item-id="tx_business_9c787ta8sn" data-item-class="Label Stroke Indexed" data-item-index="2" data-renderer-id="0" transform="translate(470, 248)"></g><g id="g-root-tx_business_9c787ta8sn-stroke" data-item-order="1000000000" data-item-id="tx_business_9c787ta8sn" data-item-class="Label Stroke Indexed" data-item-index="2" data-renderer-id="0" transform="translate(470, 248)"></g><g id="g-root-tx_enhanced_vcczd07t8tfw-stroke" data-item-order="1000000000" data-item-id="tx_enhanced_vcczd07t8tfw" data-item-class="Label Stroke Indexed" data-item-index="5" data-renderer-id="0" transform="translate(62, 74)"></g><g id="g-root-tx_empoweri_1lpwvt07taa6h-stroke" data-item-order="1000000000" data-item-id="tx_empoweri_1lpwvt07taa6h" data-item-class="Label Stroke Title" data-item-index="none" data-renderer-id="0" transform="translate(146, 2)"></g><g id="g-root-1_v64bno7td3i8-stroke" data-item-order="1000000000" data-item-id="1_v64bno7td3i8" data-item-class="Icon Stroke Indexed InsideFill InsideColorFill" data-item-index="3" data-renderer-id="0" transform="translate(272, 368)"><g id="1_v64bno7td3i8-stroke" fill="none" stroke-linecap="round" stroke-linejoin="round" stroke-miterlimit="4" stroke="#da5da8" stroke-width="2"><g><path d="M 26.617077 19.50401L 20.253117 25.867971C 20.253117 25.867971 19.54601 26.575077 18.838903 25.867971L 18.131796 25.160864C 18.131796 25.160864 17.424689 24.453757 18.131796 23.746651L 24.495757 17.38269C 24.495757 17.38269 25.202864 16.675583 25.90997 17.38269L 26.617077 18.089796C 26.617077 18.089796 27.324184 18.796904 26.617077 19.50401M 21.668 24.454L 19.546 22.332M 25.203 20.918L 23.082 18.797M 33.5 10.5L 26.264 17.736M 18.486 25.514L 10.5 33.5M 30.872671 23.749082L 24.508709 30.113043C 24.508709 30.113043 23.801602 30.82015 23.094496 30.113043L 22.387389 29.405937C 22.387389 29.405937 21.680283 28.69883 22.387389 27.991724L 28.75135 21.627762C 28.75135 21.627762 29.458458 20.920655 30.165565 21.627762L 30.872671 22.334867C 30.872671 22.334867 31.579777 23.041974 30.872671 23.749082M 25.923 28.698L 23.802 26.577M 28.044 26.577L 25.923 24.456M 33.5 19L 30.519 21.981M 22.741 29.759L 19 33.5M 22.372486 15.249081L 16.008525 21.613042C 16.008525 21.613042 15.301418 22.320148 14.594311 21.613042L 13.887205 20.905935C 13.887205 20.905935 13.180098 20.198829 13.887205 19.491722L 20.251165 13.127761C 20.251165 13.127761 20.958272 12.420654 21.66538 13.127761L 22.372486 13.834868C 22.372486 13.834868 23.079593 14.541975 22.372486 15.249081M 25 10.5L 22.019 13.481M 14.241 21.259L 10.5 25M 17.418 20.204L 15.296 18.082M 18.832 18.789L 16.711 16.668"></path></g></g></g><g id="g-root-1_v64bno7td3i8-stroke" data-item-order="1000000000" data-item-id="1_v64bno7td3i8" data-item-class="Icon Stroke Indexed InsideFill InsideColorFill" data-item-index="3" data-renderer-id="0" transform="translate(272, 368)"><g id="1_v64bno7td3i8-stroke" fill="none" stroke-linecap="round" stroke-linejoin="round" stroke-miterlimit="4" stroke="#da5da8" stroke-width="2"><g><path d="M 26.617077 19.50401L 20.253117 25.867971C 20.253117 25.867971 19.54601 26.575077 18.838903 25.867971L 18.131796 25.160864C 18.131796 25.160864 17.424689 24.453757 18.131796 23.746651L 24.495757 17.38269C 24.495757 17.38269 25.202864 16.675583 25.90997 17.38269L 26.617077 18.089796C 26.617077 18.089796 27.324184 18.796904 26.617077 19.50401M 21.668 24.454L 19.546 22.332M 25.203 20.918L 23.082 18.797M 33.5 10.5L 26.264 17.736M 18.486 25.514L 10.5 33.5M 30.872671 23.749082L 24.508709 30.113043C 24.508709 30.113043 23.801602 30.82015 23.094496 30.113043L 22.387389 29.405937C 22.387389 29.405937 21.680283 28.69883 22.387389 27.991724L 28.75135 21.627762C 28.75135 21.627762 29.458458 20.920655 30.165565 21.627762L 30.872671 22.334867C 30.872671 22.334867 31.579777 23.041974 30.872671 23.749082M 25.923 28.698L 23.802 26.577M 28.044 26.577L 25.923 24.456M 33.5 19L 30.519 21.981M 22.741 29.759L 19 33.5M 22.372486 15.249081L 16.008525 21.613042C 16.008525 21.613042 15.301418 22.320148 14.594311 21.613042L 13.887205 20.905935C 13.887205 20.905935 13.180098 20.198829 13.887205 19.491722L 20.251165 13.127761C 20.251165 13.127761 20.958272 12.420654 21.66538 13.127761L 22.372486 13.834868C 22.372486 13.834868 23.079593 14.541975 22.372486 15.249081M 25 10.5L 22.019 13.481M 14.241 21.259L 10.5 25M 17.418 20.204L 15.296 18.082M 18.832 18.789L 16.711 16.668"></path></g></g></g><g id="g-root-tx_precisio_dl2yv87t8vt2-stroke" data-item-order="1000000000" data-item-id="tx_precisio_dl2yv87t8vt2" data-item-class="Label Stroke Indexed" data-item-index="3" data-renderer-id="0" transform="translate(212, 416)"></g><g id="g-root-tx_empoweri_1lpwvt07taa6h-stroke" data-item-order="1000000000" data-item-id="tx_empoweri_1lpwvt07taa6h" data-item-class="Label Stroke Title" data-item-index="none" data-renderer-id="0" transform="translate(146, 2)"></g><g id="g-root-tx_enhanced_vcczd07t8tfw-stroke" data-item-order="1000000000" data-item-id="tx_enhanced_vcczd07t8tfw" data-item-class="Label Stroke Indexed" data-item-index="5" data-renderer-id="0" transform="translate(62, 74)"></g></g></g></svg>