<svg id="visual" viewBox="0 0 960 100" width="960" height="100" xmlns="http://www.w3.org/2000/svg" xmlns:xlink="http://www.w3.org/1999/xlink" version="1.1"><path d="M0 52L5.2 53.2C10.3 54.3 20.7 56.7 31 61.3C41.3 66 51.7 73 62 74.2C72.3 75.3 82.7 70.7 93 68.7C103.3 66.7 113.7 67.3 124 64.5C134.3 61.7 144.7 55.3 155 53.7C165.3 52 175.7 55 186 56.3C196.3 57.7 206.7 57.3 217 62.5C227.3 67.7 237.7 78.3 248 77C258.3 75.7 268.7 62.3 279 61C289.3 59.7 299.7 70.3 310 70.5C320.3 70.7 330.7 60.3 341 56.3C351.3 52.3 361.7 54.7 372 59.3C382.3 64 392.7 71 403 75.5C413.3 80 423.7 82 434 83.2C444.3 84.3 454.7 84.7 464.8 81.5C475 78.3 485 71.7 495.2 66C505.3 60.3 515.7 55.7 526 56.8C536.3 58 546.7 65 557 65.5C567.3 66 577.7 60 588 58.2C598.3 56.3 608.7 58.7 619 63.5C629.3 68.3 639.7 75.7 650 75.5C660.3 75.3 670.7 67.7 681 67C691.3 66.3 701.7 72.7 712 70.8C722.3 69 732.7 59 743 57C753.3 55 763.7 61 774 61.8C784.3 62.7 794.7 58.3 805 57.5C815.3 56.7 825.7 59.3 836 64.3C846.3 69.3 856.7 76.7 867 78.5C877.3 80.3 887.7 76.7 898 71C908.3 65.3 918.7 57.7 929 58.3C939.3 59 949.7 68 954.8 72.5L960 77L960 101L954.8 101C949.7 101 939.3 101 929 101C918.7 101 908.3 101 898 101C887.7 101 877.3 101 867 101C856.7 101 846.3 101 836 101C825.7 101 815.3 101 805 101C794.7 101 784.3 101 774 101C763.7 101 753.3 101 743 101C732.7 101 722.3 101 712 101C701.7 101 691.3 101 681 101C670.7 101 660.3 101 650 101C639.7 101 629.3 101 619 101C608.7 101 598.3 101 588 101C577.7 101 567.3 101 557 101C546.7 101 536.3 101 526 101C515.7 101 505.3 101 495.2 101C485 101 475 101 464.8 101C454.7 101 444.3 101 434 101C423.7 101 413.3 101 403 101C392.7 101 382.3 101 372 101C361.7 101 351.3 101 341 101C330.7 101 320.3 101 310 101C299.7 101 289.3 101 279 101C268.7 101 258.3 101 248 101C237.7 101 227.3 101 217 101C206.7 101 196.3 101 186 101C175.7 101 165.3 101 155 101C144.7 101 134.3 101 124 101C113.7 101 103.3 101 93 101C82.7 101 72.3 101 62 101C51.7 101 41.3 101 31 101C20.7 101 10.3 101 5.2 101L0 101Z" fill="#fe3e3e" stroke-linecap="round" stroke-linejoin="miter"></path></svg>