<svg id="visual" viewBox="0 0 960 540" width="960" height="540" xmlns="http://www.w3.org/2000/svg" xmlns:xlink="http://www.w3.org/1999/xlink" version="1.1"><path d="M0 294L11.5 298C23 302 46 310 68.8 310.5C91.7 311 114.3 304 137.2 300.5C160 297 183 297 205.8 299.8C228.7 302.7 251.3 308.3 274.2 309.8C297 311.3 320 308.7 342.8 307.3C365.7 306 388.3 306 411.2 307.2C434 308.3 457 310.7 480 309.7C503 308.7 526 304.3 548.8 301.2C571.7 298 594.3 296 617.2 297.3C640 298.7 663 303.3 685.8 305.3C708.7 307.3 731.3 306.7 754.2 306C777 305.3 800 304.7 822.8 306.7C845.7 308.7 868.3 313.3 891.2 314.2C914 315 937 312 948.5 310.5L960 309L960 541L948.5 541C937 541 914 541 891.2 541C868.3 541 845.7 541 822.8 541C800 541 777 541 754.2 541C731.3 541 708.7 541 685.8 541C663 541 640 541 617.2 541C594.3 541 571.7 541 548.8 541C526 541 503 541 480 541C457 541 434 541 411.2 541C388.3 541 365.7 541 342.8 541C320 541 297 541 274.2 541C251.3 541 228.7 541 205.8 541C183 541 160 541 137.2 541C114.3 541 91.7 541 68.8 541C46 541 23 541 11.5 541L0 541Z" fill="#ffffff"></path><path d="M0 361L11.5 358.8C23 356.7 46 352.3 68.8 349.3C91.7 346.3 114.3 344.7 137.2 343.3C160 342 183 341 205.8 341.2C228.7 341.3 251.3 342.7 274.2 341.8C297 341 320 338 342.8 340.5C365.7 343 388.3 351 411.2 353.2C434 355.3 457 351.7 480 351.5C503 351.3 526 354.7 548.8 353.8C571.7 353 594.3 348 617.2 347C640 346 663 349 685.8 347.8C708.7 346.7 731.3 341.3 754.2 340C777 338.7 800 341.3 822.8 342C845.7 342.7 868.3 341.3 891.2 340.7C914 340 937 340 948.5 340L960 340L960 541L948.5 541C937 541 914 541 891.2 541C868.3 541 845.7 541 822.8 541C800 541 777 541 754.2 541C731.3 541 708.7 541 685.8 541C663 541 640 541 617.2 541C594.3 541 571.7 541 548.8 541C526 541 503 541 480 541C457 541 434 541 411.2 541C388.3 541 365.7 541 342.8 541C320 541 297 541 274.2 541C251.3 541 228.7 541 205.8 541C183 541 160 541 137.2 541C114.3 541 91.7 541 68.8 541C46 541 23 541 11.5 541L0 541Z" fill="#ffddd7"></path><path d="M0 384L11.5 383.3C23 382.7 46 381.3 68.8 379.3C91.7 377.3 114.3 374.7 137.2 376C160 377.3 183 382.7 205.8 384C228.7 385.3 251.3 382.7 274.2 383.7C297 384.7 320 389.3 342.8 391.2C365.7 393 388.3 392 411.2 392.8C434 393.7 457 396.3 480 396.7C503 397 526 395 548.8 391.5C571.7 388 594.3 383 617.2 382.2C640 381.3 663 384.7 685.8 385.8C708.7 387 731.3 386 754.2 387.3C777 388.7 800 392.3 822.8 393.7C845.7 395 868.3 394 891.2 392.5C914 391 937 389 948.5 388L960 387L960 541L948.5 541C937 541 914 541 891.2 541C868.3 541 845.7 541 822.8 541C800 541 777 541 754.2 541C731.3 541 708.7 541 685.8 541C663 541 640 541 617.2 541C594.3 541 571.7 541 548.8 541C526 541 503 541 480 541C457 541 434 541 411.2 541C388.3 541 365.7 541 342.8 541C320 541 297 541 274.2 541C251.3 541 228.7 541 205.8 541C183 541 160 541 137.2 541C114.3 541 91.7 541 68.8 541C46 541 23 541 11.5 541L0 541Z" fill="#ffbab0"></path><path d="M0 433L11.5 431.8C23 430.7 46 428.3 68.8 426C91.7 423.7 114.3 421.3 137.2 420.3C160 419.3 183 419.7 205.8 421C228.7 422.3 251.3 424.7 274.2 422.8C297 421 320 415 342.8 413.2C365.7 411.3 388.3 413.7 411.2 418.3C434 423 457 430 480 432.5C503 435 526 433 548.8 429C571.7 425 594.3 419 617.2 417.5C640 416 663 419 685.8 419.2C708.7 419.3 731.3 416.7 754.2 419.2C777 421.7 800 429.3 822.8 431.3C845.7 433.3 868.3 429.7 891.2 426C914 422.3 937 418.7 948.5 416.8L960 415L960 541L948.5 541C937 541 914 541 891.2 541C868.3 541 845.7 541 822.8 541C800 541 777 541 754.2 541C731.3 541 708.7 541 685.8 541C663 541 640 541 617.2 541C594.3 541 571.7 541 548.8 541C526 541 503 541 480 541C457 541 434 541 411.2 541C388.3 541 365.7 541 342.8 541C320 541 297 541 274.2 541C251.3 541 228.7 541 205.8 541C183 541 160 541 137.2 541C114.3 541 91.7 541 68.8 541C46 541 23 541 11.5 541L0 541Z" fill="#ff978a"></path><path d="M0 450L11.5 453.2C23 456.3 46 462.7 68.8 465.2C91.7 467.7 114.3 466.3 137.2 464C160 461.7 183 458.3 205.8 456.2C228.7 454 251.3 453 274.2 455C297 457 320 462 342.8 462C365.7 462 388.3 457 411.2 456.3C434 455.7 457 459.3 480 460.7C503 462 526 461 548.8 459.5C571.7 458 594.3 456 617.2 455.3C640 454.7 663 455.3 685.8 457.2C708.7 459 731.3 462 754.2 465.5C777 469 800 473 822.8 473.7C845.7 474.3 868.3 471.7 891.2 468.5C914 465.3 937 461.7 948.5 459.8L960 458L960 541L948.5 541C937 541 914 541 891.2 541C868.3 541 845.7 541 822.8 541C800 541 777 541 754.2 541C731.3 541 708.7 541 685.8 541C663 541 640 541 617.2 541C594.3 541 571.7 541 548.8 541C526 541 503 541 480 541C457 541 434 541 411.2 541C388.3 541 365.7 541 342.8 541C320 541 297 541 274.2 541C251.3 541 228.7 541 205.8 541C183 541 160 541 137.2 541C114.3 541 91.7 541 68.8 541C46 541 23 541 11.5 541L0 541Z" fill="#ff7266"></path><path d="M0 500L11.5 502.3C23 504.7 46 509.3 68.8 509.3C91.7 509.3 114.3 504.7 137.2 503.2C160 501.7 183 503.3 205.8 501C228.7 498.7 251.3 492.3 274.2 489.7C297 487 320 488 342.8 488.7C365.7 489.3 388.3 489.7 411.2 491.3C434 493 457 496 480 500C503 504 526 509 548.8 508.3C571.7 507.7 594.3 501.3 617.2 498C640 494.7 663 494.3 685.8 497.3C708.7 500.3 731.3 506.7 754.2 507.7C777 508.7 800 504.3 822.8 500.5C845.7 496.7 868.3 493.3 891.2 491.7C914 490 937 490 948.5 490L960 490L960 541L948.5 541C937 541 914 541 891.2 541C868.3 541 845.7 541 822.8 541C800 541 777 541 754.2 541C731.3 541 708.7 541 685.8 541C663 541 640 541 617.2 541C594.3 541 571.7 541 548.8 541C526 541 503 541 480 541C457 541 434 541 411.2 541C388.3 541 365.7 541 342.8 541C320 541 297 541 274.2 541C251.3 541 228.7 541 205.8 541C183 541 160 541 137.2 541C114.3 541 91.7 541 68.8 541C46 541 23 541 11.5 541L0 541Z" fill="#ff4343"></path></svg>