<svg xmlns="http://www.w3.org/2000/svg" version="1.1" xmlns:xlink="http://www.w3.org/1999/xlink" xmlns:svgjs="http://svgjs.dev/svgjs" width="54" height="54"><svg xmlns="http://www.w3.org/2000/svg" viewBox="0 0 54 54" xml:space="preserve"><path d="M53.3 23.9c-7.2-1.6-15.1-1.6-17.9 6 5.7-4.1 13.8-2.4 17.3.1-.5 2.3-1.2 4.5-2.2 6.6-6.4-5-15.1-2-20.8 4.8 5.9-4.4 13.7-4.6 17.6.6-5.4 7.2-13.8 11.9-22.9 12-6-.1-11.4-2.1-15.6-5.6-.1-.1-.2-.2-.3-.2 3.3-8.2 11.3-8.6 16.8-14 1.9-1.9 3.3-3.9 4.2-6.3 1-2.8 2.8-5.4 5.5-7.6 4.1-3.4 12.3-3.9 17.5-2.4.5 1.8.8 3.9.8 6" style="fill-rule:evenodd;clip-rule:evenodd;fill:#02e53f"></path><path d="M28.9 0h-2.1c-.2 0-.5 0-.7.1-.2 0-.5 0-.7.1-.2 0-.4.1-.7.1-.2 0-.4.1-.7.1-.2 0-.4.1-.7.1-.2 0-.4.1-.7.1-.2 0-.4.1-.7.2 0 .1-.2.2-.4.2-.2.1-.4.1-.6.2s-.4.1-.6.2-.4.1-.6.2-.4.2-.6.2c-.2.1-.4.2-.6.2l-.6.3-.6.3-.6.3-.6.3-.6.3-.6.3-.6.3c-.2.1-.4.2-.6.4-.2.1-.4.2-.6.4-.2.1-.4.3-.5.4-.2.1-.4.3-.5.4-.2.1-.4.3-.5.4-.2.1-.3.3-.5.4s-.3.3-.5.4-.3.3-.5.4c-.4.2-.5.4-.7.5-.2.2-.3.4-.5.5-.1.2-.3.3-.5.5-.1.1-.3.3-.4.5-.2.1-.3.3-.5.4-.1.2-.3.3-.4.5s-.3.3-.4.5-.3.3-.4.5-.3.4-.4.5c-.1.2-.3.4-.4.5-.1.2-.3.4-.4.5-.1.2-.3.4-.4.6s-.2.4-.4.6l-.3.6-.3.6-.3.6c-.2.3-.3.5-.4.7l-.3.6-.3.6-.3.6-.3.6c-.1.2-.2.4-.2.6-.1.2-.2.4-.2.6-.1.2-.1.4-.2.6s-.1.4-.2.7c0 .3-.1.5-.1.7-.1.2-.1.4-.2.7-.1.2-.1.4-.1.7 0 .2-.1.4-.1.7l-.1.3v.5c-.5 6 1.1 11.6 4.1 16.1C9 30.5 22.1 31.6 24 22.9c-.7-4.4-10.6-8.4-16.6-3.3 5.4-8.4 15.6-7.6 19.1-1.9 7.6-8.2 15-8.4 23.2-8.5C45.2 4.6 38 .2 29.6 0z" style="fill-rule:evenodd;clip-rule:evenodd;fill:#ff596d"></path></svg><style>@media (prefers-color-scheme: light) { :root { filter: none; } }
@media (prefers-color-scheme: dark) { :root { filter: none; } }
</style></svg>